<svg class="main-svg" xmlns="http://www.w3.org/2000/svg" xmlns:xlink="http://www.w3.org/1999/xlink" width="1600" height="900" style="" viewBox="0 0 1600 900"><rect x="0" y="0" width="1600" height="900" style="fill: rgb(255, 255, 255); fill-opacity: 1;"/><defs id="defs-9ec564"><g class="clips"><clipPath id="clip9ec564xyplot" class="plotclip"><rect width="1395" height="740"/></clipPath><clipPath class="axesclip" id="clip9ec564x"><rect x="80" y="0" width="1395" height="900"/></clipPath><clipPath class="axesclip" id="clip9ec564y"><rect x="0" y="100" width="1600" height="740"/></clipPath><clipPath class="axesclip" id="clip9ec564xy"><rect x="80" y="100" width="1395" height="740"/></clipPath></g><g class="gradients"><linearGradient x1="0" y1="1" x2="0" y2="0" gradientUnits="objectBoundingBox" id="g9ec564-cb7ca00e"><stop offset="0%" stop-color="rgb(255, 255, 204)" stop-opacity="1"/><stop offset="12.5%" stop-color="rgb(255, 237, 160)" stop-opacity="1"/><stop offset="25%" stop-color="rgb(254, 217, 118)" stop-opacity="1"/><stop offset="37.5%" stop-color="rgb(254, 178, 76)" stop-opacity="1"/><stop offset="50%" stop-color="rgb(253, 141, 60)" stop-opacity="1"/><stop offset="62.5%" stop-color="rgb(252, 78, 42)" stop-opacity="1"/><stop offset="75%" stop-color="rgb(227, 26, 28)" stop-opacity="1"/><stop offset="87.5%" stop-color="rgb(189, 0, 38)" stop-opacity="1"/><stop offset="100%" stop-color="rgb(128, 0, 38)" stop-opacity="1"/></linearGradient></g><g class="patterns"/></defs><g class="bglayer"><rect class="bg" x="80" y="100" width="1395" height="740" style="fill: rgb(229, 236, 246); fill-opacity: 1; stroke-width: 0;"/></g><g class="layer-below"><g class="imagelayer"/><g class="shapelayer"/></g><g class="cartesianlayer"><g class="subplot xy"><g class="layer-subplot"><g class="shapelayer"><g class="shape-group" data-index="0" clip-path="url(#clip9ec564xy)"><path data-index="0" fill-rule="evenodd" d="M517.0799999999999,805.66L517.0799999999999,170.25" style="opacity: 1; stroke: rgb(0, 0, 0); stroke-opacity: 1; fill: rgb(0, 0, 0); fill-opacity: 0; stroke-dasharray: 9px, 9px; stroke-width: 1.5px;"/></g></g><g class="imagelayer"/></g><g class="minor-gridlayer"><g class="x"/><g class="y"/></g><g class="gridlayer"><g class="x"><path class="xgrid crisp" transform="translate(220.76,0)" d="M0,100v740" style="stroke: rgb(255, 255, 255); stroke-opacity: 1; stroke-width: 1px;"/><path class="xgrid crisp" transform="translate(517.0799999999999,0)" d="M0,100v740" style="stroke: rgb(255, 255, 255); stroke-opacity: 1; stroke-width: 1px;"/><path class="xgrid crisp" transform="translate(813.39,0)" d="M0,100v740" style="stroke: rgb(255, 255, 255); stroke-opacity: 1; stroke-width: 1px;"/><path class="xgrid crisp" transform="translate(1109.71,0)" d="M0,100v740" style="stroke: rgb(255, 255, 255); stroke-opacity: 1; stroke-width: 1px;"/><path class="xgrid crisp" transform="translate(1406.03,0)" d="M0,100v740" style="stroke: rgb(255, 255, 255); stroke-opacity: 1; stroke-width: 1px;"/></g><g class="y"><path class="ygrid crisp" transform="translate(0,788.82)" d="M80,0h1395" style="stroke: rgb(255, 255, 255); stroke-opacity: 1; stroke-width: 1px;"/><path class="ygrid crisp" transform="translate(0,714.32)" d="M80,0h1395" style="stroke: rgb(255, 255, 255); stroke-opacity: 1; stroke-width: 1px;"/><path class="ygrid crisp" transform="translate(0,639.82)" d="M80,0h1395" style="stroke: rgb(255, 255, 255); stroke-opacity: 1; stroke-width: 1px;"/><path class="ygrid crisp" transform="translate(0,565.3199999999999)" d="M80,0h1395" style="stroke: rgb(255, 255, 255); stroke-opacity: 1; stroke-width: 1px;"/><path class="ygrid crisp" transform="translate(0,490.82)" d="M80,0h1395" style="stroke: rgb(255, 255, 255); stroke-opacity: 1; stroke-width: 1px;"/><path class="ygrid crisp" transform="translate(0,416.32)" d="M80,0h1395" style="stroke: rgb(255, 255, 255); stroke-opacity: 1; stroke-width: 1px;"/><path class="ygrid crisp" transform="translate(0,341.82)" d="M80,0h1395" style="stroke: rgb(255, 255, 255); stroke-opacity: 1; stroke-width: 1px;"/><path class="ygrid crisp" transform="translate(0,267.32)" d="M80,0h1395" style="stroke: rgb(255, 255, 255); stroke-opacity: 1; stroke-width: 1px;"/><path class="ygrid crisp" transform="translate(0,192.82)" d="M80,0h1395" style="stroke: rgb(255, 255, 255); stroke-opacity: 1; stroke-width: 1px;"/><path class="ygrid crisp" transform="translate(0,118.32)" d="M80,0h1395" style="stroke: rgb(255, 255, 255); stroke-opacity: 1; stroke-width: 1px;"/></g></g><g class="zerolinelayer"/><g class="layer-between"><g class="shapelayer"/><g class="imagelayer"/></g><path class="xlines-below"/><path class="ylines-below"/><g class="overlines-below"/><g class="xaxislayer-below"/><g class="yaxislayer-below"/><g class="overaxes-below"/><g class="overplot"><g class="xy" transform="translate(80,100)" clip-path="url(#clip9ec564xyplot)"><g class="scatterlayer mlayer"><g class="trace scatter trace7ca00e" style="stroke-miterlimit: 2; opacity: 1;"><g class="fills"/><g class="errorbars"/><g class="lines"/><g class="points"><path class="point" transform="translate(160.85,685.84)" d="M1,0A1,1 0 1,1 0,-1A1,1 0 0,1 1,0Z" style="opacity: 0.7; stroke-width: 1px; fill: rgb(254, 227, 139); fill-opacity: 1; stroke: rgb(255, 255, 255); stroke-opacity: 1;"/><path class="point" transform="translate(207.46,521.94)" d="M10,0A10,10 0 1,1 0,-10A10,10 0 0,1 10,0Z" style="opacity: 0.7; stroke-width: 1px; fill: rgb(255, 241, 170); fill-opacity: 1; stroke: rgb(255, 255, 255); stroke-opacity: 1;"/><path class="point" transform="translate(1271.5,599.42)" d="M43,0A43,43 0 1,1 0,-43A43,43 0 0,1 43,0Z" style="opacity: 0.7; stroke-width: 1px; fill: rgb(192, 2, 37); fill-opacity: 1; stroke: rgb(255, 255, 255); stroke-opacity: 1;"/><path class="point" transform="translate(95.22,682.86)" d="M2,0A2,2 0 1,1 0,-2A2,2 0 0,1 2,0Z" style="opacity: 0.7; stroke-width: 1px; fill: rgb(254, 225, 135); fill-opacity: 1; stroke: rgb(255, 255, 255); stroke-opacity: 1;"/><path class="point" transform="translate(551.19,629.22)" d="M7,0A7,7 0 1,1 0,-7A7,7 0 0,1 7,0Z" style="opacity: 0.7; stroke-width: 1px; fill: rgb(254, 189, 87); fill-opacity: 1; stroke: rgb(255, 255, 255); stroke-opacity: 1;"/><path class="point" transform="translate(583.78,672.43)" d="M11,0A11,11 0 1,1 0,-11A11,11 0 0,1 11,0Z" style="opacity: 0.7; stroke-width: 1px; fill: rgb(255, 239, 166); fill-opacity: 1; stroke: rgb(255, 255, 255); stroke-opacity: 1;"/><path class="point" transform="translate(850.1,493.63)" d="M47,0A47,47 0 1,1 0,-47A47,47 0 0,1 47,0Z" style="opacity: 0.7; stroke-width: 1px; fill: rgb(226, 25, 28); fill-opacity: 1; stroke: rgb(255, 255, 255); stroke-opacity: 1;"/><path class="point" transform="translate(217.9,556.21)" d="M5,0A5,5 0 1,1 0,-5A5,5 0 0,1 5,0Z" style="opacity: 0.7; stroke-width: 1px; fill: rgb(255, 241, 169); fill-opacity: 1; stroke: rgb(255, 255, 255); stroke-opacity: 1;"/><path class="point" transform="translate(264.43,699.25)" d="M3,0A3,3 0 1,1 0,-3A3,3 0 0,1 3,0Z" style="opacity: 0.7; stroke-width: 1px; fill: rgb(254, 219, 123); fill-opacity: 1; stroke: rgb(255, 255, 255); stroke-opacity: 1;"/><path class="point" transform="translate(361.64,568.13)" d="M10,0A10,10 0 1,1 0,-10A10,10 0 0,1 10,0Z" style="opacity: 0.7; stroke-width: 1px; fill: rgb(252, 90, 45); fill-opacity: 1; stroke: rgb(255, 255, 255); stroke-opacity: 1;"/><path class="point" transform="translate(635.31,103.25)" d="M53,0A53,53 0 1,1 0,-53A53,53 0 0,1 53,0Z" style="opacity: 0.7; stroke-width: 1px; fill: rgb(128, 0, 38); fill-opacity: 1; stroke: rgb(255, 255, 255); stroke-opacity: 1;"/><path class="point" transform="translate(344.96,513)" d="M16,0A16,16 0 1,1 0,-16A16,16 0 0,1 16,0Z" style="opacity: 0.7; stroke-width: 1px; fill: rgb(255, 241, 170); fill-opacity: 1; stroke: rgb(255, 255, 255); stroke-opacity: 1;"/><path class="point" transform="translate(325.17,533.86)" d="M9,0A9,9 0 1,1 0,-9A9,9 0 0,1 9,0Z" style="opacity: 0.7; stroke-width: 1px; fill: rgb(255, 229, 144); fill-opacity: 1; stroke: rgb(255, 255, 255); stroke-opacity: 1;"/><path class="point" transform="translate(402.35,591.97)" d="M6,0A6,6 0 1,1 0,-6A6,6 0 0,1 6,0Z" style="opacity: 0.7; stroke-width: 1px; fill: rgb(255, 228, 141); fill-opacity: 1; stroke: rgb(255, 255, 255); stroke-opacity: 1;"/><path class="point" transform="translate(947.36,687.33)" d="M4,0A4,4 0 1,1 0,-4A4,4 0 0,1 4,0Z" style="opacity: 0.7; stroke-width: 1px; fill: rgb(255, 242, 172); fill-opacity: 1; stroke: rgb(255, 255, 255); stroke-opacity: 1;"/><path class="point" transform="translate(446.66,699.25)" d="M2,0A2,2 0 1,1 0,-2A2,2 0 0,1 2,0Z" style="opacity: 0.7; stroke-width: 1px; fill: rgb(255, 235, 156); fill-opacity: 1; stroke: rgb(255, 255, 255); stroke-opacity: 1;"/><path class="point" transform="translate(72.75,687.33)" d="M0,0A0,0 0 1,1 0,-0A0,0 0 0,1 0,0Z" style="opacity: 0.7; stroke-width: 1px; fill: rgb(254, 187, 85); fill-opacity: 1; stroke: rgb(255, 255, 255); stroke-opacity: 1;"/><path class="point" transform="translate(375.31,578.56)" d="M13,0A13,13 0 1,1 0,-13A13,13 0 0,1 13,0Z" style="opacity: 0.7; stroke-width: 1px; fill: rgb(254, 212, 112); fill-opacity: 1; stroke: rgb(255, 255, 255); stroke-opacity: 1;"/><path class="point" transform="translate(265.49,617.3)" d="M4,0A4,4 0 1,1 0,-4A4,4 0 0,1 4,0Z" style="opacity: 0.7; stroke-width: 1px; fill: rgb(254, 219, 123); fill-opacity: 1; stroke: rgb(255, 255, 255); stroke-opacity: 1;"/><path class="point" transform="translate(212.78,693.29)" d="M2,0A2,2 0 1,1 0,-2A2,2 0 0,1 2,0Z" style="opacity: 0.7; stroke-width: 1px; fill: rgb(255, 235, 156); fill-opacity: 1; stroke: rgb(255, 255, 255); stroke-opacity: 1;"/><path class="point" transform="translate(421.81,535.35)" d="M19,0A19,19 0 1,1 0,-19A19,19 0 0,1 19,0Z" style="opacity: 0.7; stroke-width: 1px; fill: rgb(254, 191, 90); fill-opacity: 1; stroke: rgb(255, 255, 255); stroke-opacity: 1;"/><path class="point" transform="translate(330.8,651.57)" d="M8,0A8,8 0 1,1 0,-8A8,8 0 0,1 8,0Z" style="opacity: 0.7; stroke-width: 1px; fill: rgb(255, 235, 157); fill-opacity: 1; stroke: rgb(255, 255, 255); stroke-opacity: 1;"/><path class="point" transform="translate(269.07,290.99)" d="M15,0A15,15 0 1,1 0,-15A15,15 0 0,1 15,0Z" style="opacity: 0.7; stroke-width: 1px; fill: rgb(254, 198, 97); fill-opacity: 1; stroke: rgb(255, 255, 255); stroke-opacity: 1;"/><path class="point" transform="translate(282.01,691.8)" d="M2,0A2,2 0 1,1 0,-2A2,2 0 0,1 2,0Z" style="opacity: 0.7; stroke-width: 1px; fill: rgb(255, 245, 179); fill-opacity: 1; stroke: rgb(255, 255, 255); stroke-opacity: 1;"/><path class="point" transform="translate(220.36,672.43)" d="M4,0A4,4 0 1,1 0,-4A4,4 0 0,1 4,0Z" style="opacity: 0.7; stroke-width: 1px; fill: rgb(254, 196, 96); fill-opacity: 1; stroke: rgb(255, 255, 255); stroke-opacity: 1;"/><path class="point" transform="translate(539.62,514.49)" d="M22,0A22,22 0 1,1 0,-22A22,22 0 0,1 22,0Z" style="opacity: 0.7; stroke-width: 1px; fill: rgb(254, 165, 70); fill-opacity: 1; stroke: rgb(255, 255, 255); stroke-opacity: 1;"/><path class="point" transform="translate(191.75,428.07)" d="M6,0A6,6 0 1,1 0,-6A6,6 0 0,1 6,0Z" style="opacity: 0.7; stroke-width: 1px; fill: rgb(254, 223, 130); fill-opacity: 1; stroke: rgb(255, 255, 255); stroke-opacity: 1;"/><path class="point" transform="translate(534.65,480.22)" d="M21,0A21,21 0 1,1 0,-21A21,21 0 0,1 21,0Z" style="opacity: 0.7; stroke-width: 1px; fill: rgb(254, 225, 136); fill-opacity: 1; stroke: rgb(255, 255, 255); stroke-opacity: 1;"/><path class="point" transform="translate(579.83,673.92)" d="M11,0A11,11 0 1,1 0,-11A11,11 0 0,1 11,0Z" style="opacity: 0.7; stroke-width: 1px; fill: rgb(254, 215, 115); fill-opacity: 1; stroke: rgb(255, 255, 255); stroke-opacity: 1;"/><path class="point" transform="translate(317.22,597.93)" d="M10,0A10,10 0 1,1 0,-10A10,10 0 0,1 10,0Z" style="opacity: 0.7; stroke-width: 1px; fill: rgb(255, 255, 204); fill-opacity: 1; stroke: rgb(255, 255, 255); stroke-opacity: 1;"/><path class="point" transform="translate(208.37,673.92)" d="M3,0A3,3 0 1,1 0,-3A3,3 0 0,1 3,0Z" style="opacity: 0.7; stroke-width: 1px; fill: rgb(255, 230, 146); fill-opacity: 1; stroke: rgb(255, 255, 255); stroke-opacity: 1;"/><path class="point" transform="translate(331.43,670.94)" d="M6,0A6,6 0 1,1 0,-6A6,6 0 0,1 6,0Z" style="opacity: 0.7; stroke-width: 1px; fill: rgb(255, 229, 143); fill-opacity: 1; stroke: rgb(255, 255, 255); stroke-opacity: 1;"/><path class="point" transform="translate(1070.76,687.33)" d="M12,0A12,12 0 1,1 0,-12A12,12 0 0,1 12,0Z" style="opacity: 0.7; stroke-width: 1px; fill: rgb(254, 162, 69); fill-opacity: 1; stroke: rgb(255, 255, 255); stroke-opacity: 1;"/><path class="point" transform="translate(717.38,498.1)" d="M41,0A41,41 0 1,1 0,-41A41,41 0 0,1 41,0Z" style="opacity: 0.7; stroke-width: 1px; fill: rgb(254, 198, 97); fill-opacity: 1; stroke: rgb(255, 255, 255); stroke-opacity: 1;"/><path class="point" transform="translate(232.08,597.93)" d="M8,0A8,8 0 1,1 0,-8A8,8 0 0,1 8,0Z" style="opacity: 0.7; stroke-width: 1px; fill: rgb(255, 230, 145); fill-opacity: 1; stroke: rgb(255, 255, 255); stroke-opacity: 1;"/><path class="point" transform="translate(377.7,621.77)" d="M10,0A10,10 0 1,1 0,-10A10,10 0 0,1 10,0Z" style="opacity: 0.7; stroke-width: 1px; fill: rgb(254, 211, 112); fill-opacity: 1; stroke: rgb(255, 255, 255); stroke-opacity: 1;"/><path class="point" transform="translate(270.74,676.9)" d="M2,0A2,2 0 1,1 0,-2A2,2 0 0,1 2,0Z" style="opacity: 0.7; stroke-width: 1px; fill: rgb(254, 202, 102); fill-opacity: 1; stroke: rgb(255, 255, 255); stroke-opacity: 1;"/><path class="point" transform="translate(665.5,401.25)" d="M49,0A49,49 0 1,1 0,-49A49,49 0 0,1 49,0Z" style="opacity: 0.7; stroke-width: 1px; fill: rgb(249, 73, 41); fill-opacity: 1; stroke: rgb(255, 255, 255); stroke-opacity: 1;"/><path class="point" transform="translate(509.08,644.12)" d="M14,0A14,14 0 1,1 0,-14A14,14 0 0,1 14,0Z" style="opacity: 0.7; stroke-width: 1px; fill: rgb(254, 225, 135); fill-opacity: 1; stroke: rgb(255, 255, 255); stroke-opacity: 1;"/><path class="point" transform="translate(196.16,691.8)" d="M2,0A2,2 0 1,1 0,-2A2,2 0 0,1 2,0Z" style="opacity: 0.7; stroke-width: 1px; fill: rgb(254, 193, 93); fill-opacity: 1; stroke: rgb(255, 255, 255); stroke-opacity: 1;"/><path class="point" transform="translate(372.66,684.35)" d="M4,0A4,4 0 1,1 0,-4A4,4 0 0,1 4,0Z" style="opacity: 0.7; stroke-width: 1px; fill: rgb(254, 207, 107); fill-opacity: 1; stroke: rgb(255, 255, 255); stroke-opacity: 1;"/><path class="point" transform="translate(316.35,341.65)" d="M22,0A22,22 0 1,1 0,-22A22,22 0 0,1 22,0Z" style="opacity: 0.7; stroke-width: 1px; fill: rgb(254, 221, 127); fill-opacity: 1; stroke: rgb(255, 255, 255); stroke-opacity: 1;"/><path class="point" transform="translate(356.41,302.91)" d="M30,0A30,30 0 1,1 0,-30A30,30 0 0,1 30,0Z" style="opacity: 0.7; stroke-width: 1px; fill: rgb(255, 246, 181); fill-opacity: 1; stroke: rgb(255, 255, 255); stroke-opacity: 1;"/><path class="point" transform="translate(316.78,614.32)" d="M9,0A9,9 0 1,1 0,-9A9,9 0 0,1 9,0Z" style="opacity: 0.7; stroke-width: 1px; fill: rgb(254, 203, 103); fill-opacity: 1; stroke: rgb(255, 255, 255); stroke-opacity: 1;"/><path class="point" transform="translate(286.08,663.49)" d="M6,0A6,6 0 1,1 0,-6A6,6 0 0,1 6,0Z" style="opacity: 0.7; stroke-width: 1px; fill: rgb(255, 243, 174); fill-opacity: 1; stroke: rgb(255, 255, 255); stroke-opacity: 1;"/><path class="point" transform="translate(424.2,662)" d="M7,0A7,7 0 1,1 0,-7A7,7 0 0,1 7,0Z" style="opacity: 0.7; stroke-width: 1px; fill: rgb(254, 214, 115); fill-opacity: 1; stroke: rgb(255, 255, 255); stroke-opacity: 1;"/></g><g class="text"><g class="textpoint"/><g class="textpoint" transform="translate(0,2.375)"><text x="207.46" y="521.94" text-anchor="middle" style="font-family: 'Vazirmatn FD'; font-size: 9.5px; fill: rgb(0, 0, 128); fill-opacity: 1; white-space: pre;">امیرکبیر</text></g><g class="textpoint" transform="translate(0,-5.779999999999998)"><text x="1271.5" y="599.42" text-anchor="middle" style="font-family: 'Vazirmatn FD'; font-size: 14.45px; fill: rgb(0, 0, 128); fill-opacity: 1; white-space: pre;"><tspan class="line" dy="0em" x="1271.5" y="599.42">فناوری های</tspan><tspan class="line" dy="1.3em" x="1271.5" y="599.42">نوین آمل</tspan></text></g><g class="textpoint"/><g class="textpoint"/><g class="textpoint"/><g class="textpoint" transform="translate(0,3.762500000000001)"><text x="850.1" y="493.63" text-anchor="middle" style="font-family: 'Vazirmatn FD'; font-size: 15.05px; fill: rgb(0, 0, 128); fill-opacity: 1; white-space: pre;">دامغان</text></g><g class="textpoint"/><g class="textpoint"/><g class="textpoint"/><g class="textpoint" transform="translate(0,3.987499999999999)"><text x="635.31" y="103.25" text-anchor="middle" style="font-family: 'Vazirmatn FD'; font-size: 15.95px; fill: rgb(0, 0, 128); fill-opacity: 1; white-space: pre;">IPM</text></g><g class="textpoint" transform="translate(0,-4.159999999999998)"><text x="344.96" y="513" text-anchor="middle" style="font-family: 'Vazirmatn FD'; font-size: 10.4px; fill: rgb(0, 0, 128); fill-opacity: 1; white-space: pre;"><tspan class="line" dy="0em" x="344.96" y="513">علم‌ و</tspan><tspan class="line" dy="1.3em" x="344.96" y="513">صنعت</tspan></text></g><g class="textpoint" transform="translate(0,-3.74)"><text x="325.17" y="533.86" text-anchor="middle" style="font-family: 'Vazirmatn FD'; font-size: 9.35px; fill: rgb(0, 0, 128); fill-opacity: 1; white-space: pre;"><tspan class="line" dy="0em" x="325.17" y="533.86">صنعتی</tspan><tspan class="line" dy="1.3em" x="325.17" y="533.86">اصفهان</tspan></text></g><g class="textpoint"/><g class="textpoint"/><g class="textpoint"/><g class="textpoint"/><g class="textpoint" transform="translate(0,2.4875)"><text x="375.31" y="578.56" text-anchor="middle" style="font-family: 'Vazirmatn FD'; font-size: 9.95px; fill: rgb(0, 0, 128); fill-opacity: 1; white-space: pre;">پیام‌نور</text></g><g class="textpoint"/><g class="textpoint"/><g class="textpoint" transform="translate(0,2.7124999999999995)"><text x="421.81" y="535.35" text-anchor="middle" style="font-family: 'Vazirmatn FD'; font-size: 10.85px; fill: rgb(0, 0, 128); fill-opacity: 1; white-space: pre;">سمنان</text></g><g class="textpoint"/><g class="textpoint" transform="translate(0,2.5625)"><text x="269.07" y="290.99" text-anchor="middle" style="font-family: 'Vazirmatn FD'; font-size: 10.25px; fill: rgb(0, 0, 128); fill-opacity: 1; white-space: pre;">بهشتی</text></g><g class="textpoint"/><g class="textpoint"/><g class="textpoint" transform="translate(0,-4.519999999999998)"><text x="539.62" y="514.49" text-anchor="middle" style="font-family: 'Vazirmatn FD'; font-size: 11.3px; fill: rgb(0, 0, 128); fill-opacity: 1; white-space: pre;"><tspan class="line" dy="0em" x="539.62" y="514.49">صنعتی</tspan><tspan class="line" dy="1.3em" x="539.62" y="514.49">شاهرود</tspan></text></g><g class="textpoint" transform="translate(0,-3.5599999999999987)"><text x="191.75" y="428.07" text-anchor="middle" style="font-family: 'Vazirmatn FD'; font-size: 8.9px; fill: rgb(0, 0, 128); fill-opacity: 1; white-space: pre;"><tspan class="line" dy="0em" x="191.75" y="428.07">صنعتی</tspan><tspan class="line" dy="1.3em" x="191.75" y="428.07">شریف</tspan></text></g><g class="textpoint" transform="translate(0,2.7875000000000005)"><text x="534.65" y="480.22" text-anchor="middle" style="font-family: 'Vazirmatn FD'; font-size: 11.15px; fill: rgb(0, 0, 128); fill-opacity: 1; white-space: pre;">شیراز</text></g><g class="textpoint"/><g class="textpoint" transform="translate(0,-3.799999999999999)"><text x="317.22" y="597.93" text-anchor="middle" style="font-family: 'Vazirmatn FD'; font-size: 9.5px; fill: rgb(0, 0, 128); fill-opacity: 1; white-space: pre;"><tspan class="line" dy="0em" x="317.22" y="597.93">تربیت</tspan><tspan class="line" dy="1.3em" x="317.22" y="597.93">مدرس</tspan></text></g><g class="textpoint"/><g class="textpoint"/><g class="textpoint" transform="translate(0,2.45)"><text x="1070.76" y="687.33" text-anchor="middle" style="font-family: 'Vazirmatn FD'; font-size: 9.8px; fill: rgb(0, 0, 128); fill-opacity: 1; white-space: pre;">بناب</text></g><g class="textpoint" transform="translate(0,3.5374999999999996)"><text x="717.38" y="498.1" text-anchor="middle" style="font-family: 'Vazirmatn FD'; font-size: 14.15px; fill: rgb(0, 0, 128); fill-opacity: 1; white-space: pre;">گیلان</text></g><g class="textpoint"/><g class="textpoint"/><g class="textpoint"/><g class="textpoint" transform="translate(0,3.8374999999999995)"><text x="665.5" y="401.25" text-anchor="middle" style="font-family: 'Vazirmatn FD'; font-size: 15.35px; fill: rgb(0, 0, 128); fill-opacity: 1; white-space: pre;">مازندران</text></g><g class="textpoint"/><g class="textpoint"/><g class="textpoint"/><g class="textpoint" transform="translate(0,2.825000000000001)"><text x="316.35" y="341.65" text-anchor="middle" style="font-family: 'Vazirmatn FD'; font-size: 11.3px; fill: rgb(0, 0, 128); fill-opacity: 1; white-space: pre;">تبریز</text></g><g class="textpoint" transform="translate(0,3.125)"><text x="356.41" y="302.91" text-anchor="middle" style="font-family: 'Vazirmatn FD'; font-size: 12.5px; fill: rgb(0, 0, 128); fill-opacity: 1; white-space: pre;">تهران</text></g><g class="textpoint"/><g class="textpoint"/><g class="textpoint"/></g></g></g></g></g><g class="zerolinelayer-above"/><path class="xlines-above crisp" d="M0,0" style="fill: none;"/><path class="ylines-above crisp" d="M0,0" style="fill: none;"/><g class="overlines-above"/><g class="xaxislayer-above"><g class="xtick"><text text-anchor="middle" x="0" y="854" transform="translate(220.76,0)" style="font-family: 'Vazirmatn FD'; font-size: 13px; fill: rgb(42, 63, 95); fill-opacity: 1; white-space: pre;">0.5</text></g><g class="xtick"><text text-anchor="middle" x="0" y="854" style="font-family: 'Vazirmatn FD'; font-size: 13px; fill: rgb(42, 63, 95); fill-opacity: 1; white-space: pre;" transform="translate(517.0799999999999,0)">1</text></g><g class="xtick"><text text-anchor="middle" x="0" y="854" style="font-family: 'Vazirmatn FD'; font-size: 13px; fill: rgb(42, 63, 95); fill-opacity: 1; white-space: pre;" transform="translate(813.39,0)">1.5</text></g><g class="xtick"><text text-anchor="middle" x="0" y="854" style="font-family: 'Vazirmatn FD'; font-size: 13px; fill: rgb(42, 63, 95); fill-opacity: 1; white-space: pre;" transform="translate(1109.71,0)">2</text></g><g class="xtick"><text text-anchor="middle" x="0" y="854" style="font-family: 'Vazirmatn FD'; font-size: 13px; fill: rgb(42, 63, 95); fill-opacity: 1; white-space: pre;" transform="translate(1406.03,0)">2.5</text></g></g><g class="yaxislayer-above"><g class="ytick"><text text-anchor="end" x="79" y="4.55" transform="translate(0,788.82)" style="font-family: 'Vazirmatn FD'; font-size: 13px; fill: rgb(42, 63, 95); fill-opacity: 1; white-space: pre;">50</text></g><g class="ytick"><text text-anchor="end" x="79" y="4.55" style="font-family: 'Vazirmatn FD'; font-size: 13px; fill: rgb(42, 63, 95); fill-opacity: 1; white-space: pre;" transform="translate(0,714.32)">100</text></g><g class="ytick"><text text-anchor="end" x="79" y="4.55" style="font-family: 'Vazirmatn FD'; font-size: 13px; fill: rgb(42, 63, 95); fill-opacity: 1; white-space: pre;" transform="translate(0,639.82)">150</text></g><g class="ytick"><text text-anchor="end" x="79" y="4.55" style="font-family: 'Vazirmatn FD'; font-size: 13px; fill: rgb(42, 63, 95); fill-opacity: 1; white-space: pre;" transform="translate(0,565.3199999999999)">200</text></g><g class="ytick"><text text-anchor="end" x="79" y="4.55" style="font-family: 'Vazirmatn FD'; font-size: 13px; fill: rgb(42, 63, 95); fill-opacity: 1; white-space: pre;" transform="translate(0,490.82)">250</text></g><g class="ytick"><text text-anchor="end" x="79" y="4.55" style="font-family: 'Vazirmatn FD'; font-size: 13px; fill: rgb(42, 63, 95); fill-opacity: 1; white-space: pre;" transform="translate(0,416.32)">300</text></g><g class="ytick"><text text-anchor="end" x="79" y="4.55" style="font-family: 'Vazirmatn FD'; font-size: 13px; fill: rgb(42, 63, 95); fill-opacity: 1; white-space: pre;" transform="translate(0,341.82)">350</text></g><g class="ytick"><text text-anchor="end" x="79" y="4.55" style="font-family: 'Vazirmatn FD'; font-size: 13px; fill: rgb(42, 63, 95); fill-opacity: 1; white-space: pre;" transform="translate(0,267.32)">400</text></g><g class="ytick"><text text-anchor="end" x="79" y="4.55" style="font-family: 'Vazirmatn FD'; font-size: 13px; fill: rgb(42, 63, 95); fill-opacity: 1; white-space: pre;" transform="translate(0,192.82)">450</text></g><g class="ytick"><text text-anchor="end" x="79" y="4.55" style="font-family: 'Vazirmatn FD'; font-size: 13px; fill: rgb(42, 63, 95); fill-opacity: 1; white-space: pre;" transform="translate(0,118.32)">500</text></g></g><g class="overaxes-above"/></g></g><g class="polarlayer"/><g class="smithlayer"/><g class="ternarylayer"/><g class="geolayer"/><g class="funnelarealayer"/><g class="pielayer"/><g class="iciclelayer"/><g class="treemaplayer"/><g class="sunburstlayer"/><g class="glimages"/><defs id="topdefs-9ec564"><g class="clips"/></defs><g class="layer-above"><g class="imagelayer"/><g class="shapelayer"/></g><g class="infolayer"><g class="cb7ca00e colorbar" transform="translate(80,100)"><rect class="cbbg" x="1422.5" y="0" width="85.462890625" height="741" style="fill: rgb(0, 0, 0); fill-opacity: 0; stroke: rgb(68, 68, 68); stroke-opacity: 1; stroke-width: 0;"/><g class="cbfills" transform="translate(0,37)"><rect class="cbfill gradient_filled" style="fill: url('#g9ec564-cb7ca00e');" x="1433" y="0" width="30" height="693"/></g><g class="cblines" transform="translate(0,37)"/><g class="cbaxis crisp" transform="translate(0,-100)"><g class="ycb7ca00etick"><text text-anchor="start" x="1466.4" y="4.199999999999999" transform="translate(0,830)" style="font-family: 'Vazirmatn FD'; font-size: 12px; fill: rgb(42, 63, 95); fill-opacity: 1; white-space: pre;">2%</text></g><g class="ycb7ca00etick"><text text-anchor="start" x="1466.4" y="4.199999999999999" style="font-family: 'Vazirmatn FD'; font-size: 12px; fill: rgb(42, 63, 95); fill-opacity: 1; white-space: pre;" transform="translate(0,676.3599999999999)">6%</text></g><g class="ycb7ca00etick"><text text-anchor="start" x="1466.4" y="4.199999999999999" style="font-family: 'Vazirmatn FD'; font-size: 12px; fill: rgb(42, 63, 95); fill-opacity: 1; white-space: pre;" transform="translate(0,572.24)">10%</text></g><g class="ycb7ca00etick"><text text-anchor="start" x="1466.4" y="4.199999999999999" style="font-family: 'Vazirmatn FD'; font-size: 12px; fill: rgb(42, 63, 95); fill-opacity: 1; white-space: pre;" transform="translate(0,487.97999999999996)">14%</text></g><g class="ycb7ca00etick"><text text-anchor="start" x="1466.4" y="4.199999999999999" style="font-family: 'Vazirmatn FD'; font-size: 12px; fill: rgb(42, 63, 95); fill-opacity: 1; white-space: pre;" transform="translate(0,415.2699999999999)">18%</text></g><g class="ycb7ca00etick"><text text-anchor="start" x="1466.4" y="4.199999999999999" style="font-family: 'Vazirmatn FD'; font-size: 12px; fill: rgb(42, 63, 95); fill-opacity: 1; white-space: pre;" transform="translate(0,350.3499999999999)">22%</text></g><g class="ycb7ca00etick"><text text-anchor="start" x="1466.4" y="4.199999999999999" style="font-family: 'Vazirmatn FD'; font-size: 12px; fill: rgb(42, 63, 95); fill-opacity: 1; white-space: pre;" transform="translate(0,291.16999999999996)">26%</text></g><g class="ycb7ca00etick"><text text-anchor="start" x="1466.4" y="4.199999999999999" style="font-family: 'Vazirmatn FD'; font-size: 12px; fill: rgb(42, 63, 95); fill-opacity: 1; white-space: pre;" transform="translate(0,236.41999999999996)">30%</text></g><g class="ycb7ca00etick"><text text-anchor="start" x="1466.4" y="4.199999999999999" style="font-family: 'Vazirmatn FD'; font-size: 12px; fill: rgb(42, 63, 95); fill-opacity: 1; white-space: pre;" transform="translate(0,185.23999999999995)">34%</text></g><g class="ycb7ca00etick"><text text-anchor="start" x="1466.4" y="4.199999999999999" style="font-family: 'Vazirmatn FD'; font-size: 12px; fill: rgb(42, 63, 95); fill-opacity: 1; white-space: pre;" transform="translate(0,136.99999999999994)">38%</text></g></g><g class="cbtitleunshift" transform="translate(-80,-100)"><g class="cbtitle" transform="translate(-0.5,-0.5)"><text class="ycb7ca00etitle" x="1512.9" y="123.5" text-anchor="start" style="opacity: 1; font-family: 'Vazirmatn FD'; font-size: 14px; fill: rgb(42, 63, 95); fill-opacity: 1; white-space: pre;">سهم فیزیک</text></g></g><rect class="cboutline" x="1433" y="37" width="30" height="693" style="stroke: rgb(68, 68, 68); stroke-opacity: 1; fill: none; stroke-width: 1;"/></g><g class="g-gtitle"><text class="gtitle" x="777.5" y="45" text-anchor="middle" dy="0.7em" style="opacity: 1; font-family: 'Vazirmatn FD Black'; font-size: 17px; fill: rgb(42, 63, 95); fill-opacity: 1; white-space: pre;">وضعیت دانشگاه‌های ایرانی در حوزه فیزیک در بازه سه ساله ۲۰۲۲ تا ۲۰۲۵</text></g><g class="g-xtitle"><text class="xtitle" x="777.5" y="885.3" text-anchor="middle" style="opacity: 1; font-family: 'Vazirmatn FD'; font-size: 14px; fill: rgb(42, 63, 95); fill-opacity: 1; white-space: pre;">میانگین تاثیر استنادی نرمال شده</text></g><g class="g-ytitle"><text class="ytitle" transform="rotate(-90,37.88125,470)" x="37.88125" y="470" text-anchor="middle" style="opacity: 1; font-family: 'Vazirmatn FD'; font-size: 14px; fill: rgb(42, 63, 95); fill-opacity: 1; white-space: pre;">مجموع فراوانی مقالات فیزیک</text></g><g class="annotation" data-index="0" style="opacity: 1;"><g class="annotation-text-g" transform="rotate(0,777.5,51.79999999999996)"><g class="cursor-pointer" transform="translate(516,41)"><rect class="bg" x="0.5" y="0.5" width="523" height="21" style="stroke-width: 1px; stroke: rgb(0, 0, 0); stroke-opacity: 0; fill: rgb(0, 0, 0); fill-opacity: 0;"/><text class="annotation-text" text-anchor="middle" x="262.15625" y="14" style="font-family: 'Vazirmatn FD'; font-size: 12px; fill: rgb(128, 128, 128); fill-opacity: 1; white-space: pre;">مقالات با بیش از ۲۰ نویسنده استثنا شده‌ و اندازه دایره متناسب با سهم مقالات حاضر در دهک اول اسنادی است</text></g></g></g></g></svg>