<svg class="main-svg" xmlns="http://www.w3.org/2000/svg" xmlns:xlink="http://www.w3.org/1999/xlink" width="1600" height="900" style="" viewBox="0 0 1600 900"><rect x="0" y="0" width="1600" height="900" style="fill: rgb(255, 255, 255); fill-opacity: 1;"/><defs id="defs-00b896"><g class="clips"><clipPath id="clip00b896xyplot" class="plotclip"><rect width="1389" height="720"/></clipPath><clipPath class="axesclip" id="clip00b896x"><rect x="80" y="0" width="1389" height="900"/></clipPath><clipPath class="axesclip" id="clip00b896y"><rect x="0" y="100" width="1600" height="720"/></clipPath><clipPath class="axesclip" id="clip00b896xy"><rect x="80" y="100" width="1389" height="720"/></clipPath></g><g class="gradients"><linearGradient x1="0" y1="1" x2="0" y2="0" gradientUnits="objectBoundingBox" id="g00b896-cb858eaa"><stop offset="0%" stop-color="rgb(255, 255, 217)" stop-opacity="1"/><stop offset="12.5%" stop-color="rgb(237, 248, 177)" stop-opacity="1"/><stop offset="25%" stop-color="rgb(199, 233, 180)" stop-opacity="1"/><stop offset="37.5%" stop-color="rgb(127, 205, 187)" stop-opacity="1"/><stop offset="50%" stop-color="rgb(65, 182, 196)" stop-opacity="1"/><stop offset="62.5%" stop-color="rgb(29, 145, 192)" stop-opacity="1"/><stop offset="75%" stop-color="rgb(34, 94, 168)" stop-opacity="1"/><stop offset="87.5%" stop-color="rgb(37, 52, 148)" stop-opacity="1"/><stop offset="100%" stop-color="rgb(8, 29, 88)" stop-opacity="1"/></linearGradient></g><g class="patterns"/></defs><g class="bglayer"><rect class="bg" x="80" y="100" width="1389" height="720" style="fill: rgb(229, 236, 246); fill-opacity: 1; stroke-width: 0;"/></g><g class="layer-below"><g class="imagelayer"/><g class="shapelayer"/></g><g class="cartesianlayer"><g class="subplot xy"><g class="layer-subplot"><g class="shapelayer"/><g class="imagelayer"/></g><g class="minor-gridlayer"><g class="x"/><g class="y"/></g><g class="gridlayer"><g class="x"><path class="xgrid crisp" transform="translate(218.34,0)" d="M0,100v720" style="stroke: rgb(255, 255, 255); stroke-opacity: 1; stroke-width: 1px;"/><path class="xgrid crisp" transform="translate(397.95,0)" d="M0,100v720" style="stroke: rgb(255, 255, 255); stroke-opacity: 1; stroke-width: 1px;"/><path class="xgrid crisp" transform="translate(577.5699999999999,0)" d="M0,100v720" style="stroke: rgb(255, 255, 255); stroke-opacity: 1; stroke-width: 1px;"/><path class="xgrid crisp" transform="translate(757.18,0)" d="M0,100v720" style="stroke: rgb(255, 255, 255); stroke-opacity: 1; stroke-width: 1px;"/><path class="xgrid crisp" transform="translate(936.8,0)" d="M0,100v720" style="stroke: rgb(255, 255, 255); stroke-opacity: 1; stroke-width: 1px;"/><path class="xgrid crisp" transform="translate(1116.41,0)" d="M0,100v720" style="stroke: rgb(255, 255, 255); stroke-opacity: 1; stroke-width: 1px;"/><path class="xgrid crisp" transform="translate(1296.03,0)" d="M0,100v720" style="stroke: rgb(255, 255, 255); stroke-opacity: 1; stroke-width: 1px;"/></g><g class="y"><path class="ygrid crisp" transform="translate(0,805.02)" d="M80,0h1389" style="stroke: rgb(255, 255, 255); stroke-opacity: 1; stroke-width: 1px;"/><path class="ygrid crisp" transform="translate(0,775.35)" d="M80,0h1389" style="stroke: rgb(255, 255, 255); stroke-opacity: 1; stroke-width: 1px;"/><path class="ygrid crisp" transform="translate(0,750.26)" d="M80,0h1389" style="stroke: rgb(255, 255, 255); stroke-opacity: 1; stroke-width: 1px;"/><path class="ygrid crisp" transform="translate(0,728.53)" d="M80,0h1389" style="stroke: rgb(255, 255, 255); stroke-opacity: 1; stroke-width: 1px;"/><path class="ygrid crisp" transform="translate(0,709.36)" d="M80,0h1389" style="stroke: rgb(255, 255, 255); stroke-opacity: 1; stroke-width: 1px;"/><path class="ygrid crisp" transform="translate(0,692.22)" d="M80,0h1389" style="stroke: rgb(255, 255, 255); stroke-opacity: 1; stroke-width: 1px;"/><path class="ygrid crisp" transform="translate(0,579.4200000000001)" d="M80,0h1389" style="stroke: rgb(255, 255, 255); stroke-opacity: 1; stroke-width: 1px;"/><path class="ygrid crisp" transform="translate(0,513.4300000000001)" d="M80,0h1389" style="stroke: rgb(255, 255, 255); stroke-opacity: 1; stroke-width: 1px;"/><path class="ygrid crisp" transform="translate(0,466.62)" d="M80,0h1389" style="stroke: rgb(255, 255, 255); stroke-opacity: 1; stroke-width: 1px;"/><path class="ygrid crisp" transform="translate(0,430.3)" d="M80,0h1389" style="stroke: rgb(255, 255, 255); stroke-opacity: 1; stroke-width: 1px;"/><path class="ygrid crisp" transform="translate(0,400.63)" d="M80,0h1389" style="stroke: rgb(255, 255, 255); stroke-opacity: 1; stroke-width: 1px;"/><path class="ygrid crisp" transform="translate(0,375.55)" d="M80,0h1389" style="stroke: rgb(255, 255, 255); stroke-opacity: 1; stroke-width: 1px;"/><path class="ygrid crisp" transform="translate(0,353.82)" d="M80,0h1389" style="stroke: rgb(255, 255, 255); stroke-opacity: 1; stroke-width: 1px;"/><path class="ygrid crisp" transform="translate(0,334.65)" d="M80,0h1389" style="stroke: rgb(255, 255, 255); stroke-opacity: 1; stroke-width: 1px;"/><path class="ygrid crisp" transform="translate(0,317.5)" d="M80,0h1389" style="stroke: rgb(255, 255, 255); stroke-opacity: 1; stroke-width: 1px;"/></g></g><g class="zerolinelayer"/><g class="layer-between"><g class="shapelayer"/><g class="imagelayer"/></g><path class="xlines-below"/><path class="ylines-below"/><g class="overlines-below"/><g class="xaxislayer-below"/><g class="yaxislayer-below"/><g class="overaxes-below"/><g class="overplot"><g class="xy" transform="translate(80,100)" clip-path="url(#clip00b896xyplot)"><g class="scatterlayer mlayer"><g class="trace scatter trace858eaa" style="stroke-miterlimit: 2; opacity: 1;"><g class="fills"/><g class="errorbars"/><g class="lines"/><g class="points"><path class="point" transform="translate(391.5,93.69)" d="M46.15,0A46.15,46.15 0 1,1 0,-46.15A46.15,46.15 0 0,1 46.15,0Z" style="opacity: 0.7; stroke-width: 1px; fill: rgb(109, 198, 190); fill-opacity: 1; stroke: rgb(255, 255, 255); stroke-opacity: 1;"/><path class="point" transform="translate(235.87,168.67)" d="M27.69,0A27.69,27.69 0 1,1 0,-27.69A27.69,27.69 0 0,1 27.69,0Z" style="opacity: 0.7; stroke-width: 1px; fill: rgb(218, 240, 179); fill-opacity: 1; stroke: rgb(255, 255, 255); stroke-opacity: 1;"/><path class="point" transform="translate(251.39,193.35)" d="M28.85,0A28.85,28.85 0 1,1 0,-28.85A28.85,28.85 0 0,1 28.85,0Z" style="opacity: 0.7; stroke-width: 1px; fill: rgb(197, 232, 180); fill-opacity: 1; stroke: rgb(255, 255, 255); stroke-opacity: 1;"/><path class="point" transform="translate(238.52,209.56)" d="M21.92,0A21.92,21.92 0 1,1 0,-21.92A21.92,21.92 0 0,1 21.92,0Z" style="opacity: 0.7; stroke-width: 1px; fill: rgb(214, 239, 179); fill-opacity: 1; stroke: rgb(255, 255, 255); stroke-opacity: 1;"/><path class="point" transform="translate(553.51,255.86)" d="M39.23,0A39.23,39.23 0 1,1 0,-39.23A39.23,39.23 0 0,1 39.23,0Z" style="opacity: 0.7; stroke-width: 1px; fill: rgb(32, 110, 176); fill-opacity: 1; stroke: rgb(255, 255, 255); stroke-opacity: 1;"/><path class="point" transform="translate(92.53,262.16)" d="M18.46,0A18.46,18.46 0 1,1 0,-18.46A18.46,18.46 0 0,1 18.46,0Z" style="opacity: 0.7; stroke-width: 1px; fill: rgb(255, 255, 217); fill-opacity: 1; stroke: rgb(255, 255, 255); stroke-opacity: 1;"/><path class="point" transform="translate(659.19,268.72)" d="M21.92,0A21.92,21.92 0 1,1 0,-21.92A21.92,21.92 0 0,1 21.92,0Z" style="opacity: 0.7; stroke-width: 1px; fill: rgb(57, 173, 195); fill-opacity: 1; stroke: rgb(255, 255, 255); stroke-opacity: 1;"/><path class="point" transform="translate(808.29,592.22)" d="M6.92,0A6.92,6.92 0 1,1 0,-6.92A6.92,6.92 0 0,1 6.92,0Z" style="opacity: 0.7; stroke-width: 1px; fill: rgb(44, 160, 194); fill-opacity: 1; stroke: rgb(255, 255, 255); stroke-opacity: 1;"/><path class="point" transform="translate(513.85,273.24)" d="M20.77,0A20.77,20.77 0 1,1 0,-20.77A20.77,20.77 0 0,1 20.77,0Z" style="opacity: 0.7; stroke-width: 1px; fill: rgb(114, 200, 189); fill-opacity: 1; stroke: rgb(255, 255, 255); stroke-opacity: 1;"/><path class="point" transform="translate(324.8,285.12)" d="M24.23,0A24.23,24.23 0 1,1 0,-24.23A24.23,24.23 0 0,1 24.23,0Z" style="opacity: 0.7; stroke-width: 1px; fill: rgb(106, 197, 190); fill-opacity: 1; stroke: rgb(255, 255, 255); stroke-opacity: 1;"/><path class="point" transform="translate(446.56,297.94)" d="M21.92,0A21.92,21.92 0 1,1 0,-21.92A21.92,21.92 0 0,1 21.92,0Z" style="opacity: 0.7; stroke-width: 1px; fill: rgb(107, 198, 190); fill-opacity: 1; stroke: rgb(255, 255, 255); stroke-opacity: 1;"/><path class="point" transform="translate(694.04,323.92)" d="M27.69,0A27.69,27.69 0 1,1 0,-27.69A27.69,27.69 0 0,1 27.69,0Z" style="opacity: 0.7; stroke-width: 1px; fill: rgb(32, 116, 178); fill-opacity: 1; stroke: rgb(255, 255, 255); stroke-opacity: 1;"/><path class="point" transform="translate(750.91,347.45)" d="M18.46,0A18.46,18.46 0 1,1 0,-18.46A18.46,18.46 0 0,1 18.46,0Z" style="opacity: 0.7; stroke-width: 1px; fill: rgb(32, 114, 177); fill-opacity: 1; stroke: rgb(255, 255, 255); stroke-opacity: 1;"/><path class="point" transform="translate(537.19,675.35)" d="M6.92,0A6.92,6.92 0 1,1 0,-6.92A6.92,6.92 0 0,1 6.92,0Z" style="opacity: 0.7; stroke-width: 1px; fill: rgb(8, 29, 88); fill-opacity: 1; stroke: rgb(255, 255, 255); stroke-opacity: 1;"/><path class="point" transform="translate(691.58,383.76)" d="M17.31,0A17.31,17.31 0 1,1 0,-17.31A17.31,17.31 0 0,1 17.31,0Z" style="opacity: 0.7; stroke-width: 1px; fill: rgb(33, 108, 175); fill-opacity: 1; stroke: rgb(255, 255, 255); stroke-opacity: 1;"/><path class="point" transform="translate(468.61,675.35)" d="M6.92,0A6.92,6.92 0 1,1 0,-6.92A6.92,6.92 0 0,1 6.92,0Z" style="opacity: 0.7; stroke-width: 1px; fill: rgb(35, 82, 162); fill-opacity: 1; stroke: rgb(255, 255, 255); stroke-opacity: 1;"/><path class="point" transform="translate(510.15,675.35)" d="M6.92,0A6.92,6.92 0 1,1 0,-6.92A6.92,6.92 0 0,1 6.92,0Z" style="opacity: 0.7; stroke-width: 1px; fill: rgb(35, 82, 162); fill-opacity: 1; stroke: rgb(255, 255, 255); stroke-opacity: 1;"/><path class="point" transform="translate(395.95,675.35)" d="M6.92,0A6.92,6.92 0 1,1 0,-6.92A6.92,6.92 0 0,1 6.92,0Z" style="opacity: 0.7; stroke-width: 1px; fill: rgb(35, 82, 162); fill-opacity: 1; stroke: rgb(255, 255, 255); stroke-opacity: 1;"/><path class="point" transform="translate(838.77,675.35)" d="M6.92,0A6.92,6.92 0 1,1 0,-6.92A6.92,6.92 0 0,1 6.92,0Z" style="opacity: 0.7; stroke-width: 1px; fill: rgb(35, 82, 162); fill-opacity: 1; stroke: rgb(255, 255, 255); stroke-opacity: 1;"/><path class="point" transform="translate(988.81,675.35)" d="M4.62,0A4.62,4.62 0 1,1 0,-4.62A4.62,4.62 0 0,1 4.62,0Z" style="opacity: 0.7; stroke-width: 1px; fill: rgb(44, 160, 194); fill-opacity: 1; stroke: rgb(255, 255, 255); stroke-opacity: 1;"/><path class="point" transform="translate(1022.49,443.1)" d="M19.62,0A19.62,19.62 0 1,1 0,-19.62A19.62,19.62 0 0,1 19.62,0Z" style="opacity: 0.7; stroke-width: 1px; fill: rgb(30, 135, 187); fill-opacity: 1; stroke: rgb(255, 255, 255); stroke-opacity: 1;"/><path class="point" transform="translate(439.83,576.71)" d="M11.54,0A11.54,11.54 0 1,1 0,-11.54A11.54,11.54 0 0,1 11.54,0Z" style="opacity: 0.7; stroke-width: 1px; fill: rgb(37, 56, 150); fill-opacity: 1; stroke: rgb(255, 255, 255); stroke-opacity: 1;"/><path class="point" transform="translate(1149.1,576.71)" d="M8.08,0A8.08,8.08 0 1,1 0,-8.08A8.08,8.08 0 0,1 8.08,0Z" style="opacity: 0.7; stroke-width: 1px; fill: rgb(12, 33, 97); fill-opacity: 1; stroke: rgb(255, 255, 255); stroke-opacity: 1;"/><path class="point" transform="translate(1306.57,537.46)" d="M10.38,0A10.38,10.38 0 1,1 0,-10.38A10.38,10.38 0 0,1 10.38,0Z" style="opacity: 0.7; stroke-width: 1px; fill: rgb(120, 202, 188); fill-opacity: 1; stroke: rgb(255, 255, 255); stroke-opacity: 1;"/><path class="point" transform="translate(701.21,576.71)" d="M6.92,0A6.92,6.92 0 1,1 0,-6.92A6.92,6.92 0 0,1 6.92,0Z" style="opacity: 0.7; stroke-width: 1px; fill: rgb(115, 201, 189); fill-opacity: 1; stroke: rgb(255, 255, 255); stroke-opacity: 1;"/><path class="point" transform="translate(565.99,628.53)" d="M5.77,0A5.77,5.77 0 1,1 0,-5.77A5.77,5.77 0 0,1 5.77,0Z" style="opacity: 0.7; stroke-width: 1px; fill: rgb(33, 101, 171); fill-opacity: 1; stroke: rgb(255, 255, 255); stroke-opacity: 1;"/><path class="point" transform="translate(390.17,675.35)" d="M6.92,0A6.92,6.92 0 1,1 0,-6.92A6.92,6.92 0 0,1 6.92,0Z" style="opacity: 0.7; stroke-width: 1px; fill: rgb(35, 82, 162); fill-opacity: 1; stroke: rgb(255, 255, 255); stroke-opacity: 1;"/></g><g class="text"><g class="textpoint" transform="translate(0,-4.639999999999999)"><text x="391.5" y="93.69" text-anchor="middle" style="font-family: 'Vazirmatn FD'; font-size: 11.6px; fill: rgb(0, 0, 0); fill-opacity: 1; white-space: pre;"><tspan class="line" dy="0em" x="391.5" y="93.69">هادی</tspan><tspan class="line" dy="1.3em" x="391.5" y="93.69">رضازاده</tspan></text></g><g class="textpoint" transform="translate(0,-4.063999999999999)"><text x="235.87" y="168.67" text-anchor="middle" style="font-family: 'Vazirmatn FD'; font-size: 10.16px; fill: rgb(0, 0, 0); fill-opacity: 1; white-space: pre;"><tspan class="line" dy="0em" x="235.87" y="168.67">حسن</tspan><tspan class="line" dy="1.3em" x="235.87" y="168.67">حسن‌آبادی</tspan></text></g><g class="textpoint" transform="translate(0,-4.1)"><text x="251.39" y="193.35" text-anchor="middle" style="font-family: 'Vazirmatn FD'; font-size: 10.25px; fill: rgb(0, 0, 0); fill-opacity: 1; white-space: pre;"><tspan class="line" dy="0em" x="251.39" y="193.35">جلیل</tspan><tspan class="line" dy="1.3em" x="251.39" y="193.35">منافیان</tspan></text></g><g class="textpoint" transform="translate(0,-3.8840000000000003)"><text x="238.52" y="209.56" text-anchor="middle" style="font-family: 'Vazirmatn FD'; font-size: 9.71px; fill: rgb(0, 0, 0); fill-opacity: 1; white-space: pre;"><tspan class="line" dy="0em" x="238.52" y="209.56">کاظم</tspan><tspan class="line" dy="1.3em" x="238.52" y="209.56">عزیزی</tspan></text></g><g class="textpoint" transform="translate(0,-4.4239999999999995)"><text x="553.51" y="255.86" text-anchor="middle" style="font-family: 'Vazirmatn FD'; font-size: 11.06px; fill: rgb(0, 0, 0); fill-opacity: 1; white-space: pre;"><tspan class="line" dy="0em" x="553.51" y="255.86">محمد</tspan><tspan class="line" dy="1.3em" x="553.51" y="255.86">میرزازاده</tspan></text></g><g class="textpoint" transform="translate(0,-3.775999999999998)"><text x="92.53" y="262.16" text-anchor="middle" style="font-family: 'Vazirmatn FD'; font-size: 9.44px; fill: rgb(0, 0, 0); fill-opacity: 1; white-space: pre;"><tspan class="line" dy="0em" x="92.53" y="262.16">علی‌اصغر</tspan><tspan class="line" dy="1.3em" x="92.53" y="262.16">اروجی</tspan></text></g><g class="textpoint" transform="translate(0,-3.8840000000000003)"><text x="659.19" y="268.72" text-anchor="middle" style="font-family: 'Vazirmatn FD'; font-size: 9.71px; fill: rgb(0, 0, 0); fill-opacity: 1; white-space: pre;"><tspan class="line" dy="0em" x="659.19" y="268.72">سعید</tspan><tspan class="line" dy="1.3em" x="659.19" y="268.72">نوری‌گشتی</tspan></text></g><g class="textpoint"/><g class="textpoint" transform="translate(0,-3.847999999999999)"><text x="513.85" y="273.24" text-anchor="middle" style="font-family: 'Vazirmatn FD'; font-size: 9.62px; fill: rgb(0, 0, 0); fill-opacity: 1; white-space: pre;"><tspan class="line" dy="0em" x="513.85" y="273.24">جعفر</tspan><tspan class="line" dy="1.3em" x="513.85" y="273.24">صادقی</tspan></text></g><g class="textpoint" transform="translate(0,-3.9559999999999995)"><text x="324.8" y="285.12" text-anchor="middle" style="font-family: 'Vazirmatn FD'; font-size: 9.89px; fill: rgb(0, 0, 0); fill-opacity: 1; white-space: pre;"><tspan class="line" dy="0em" x="324.8" y="285.12">سعید</tspan><tspan class="line" dy="1.3em" x="324.8" y="285.12">حدادی</tspan></text></g><g class="textpoint" transform="translate(0,-3.8840000000000003)"><text x="446.56" y="297.94" text-anchor="middle" style="font-family: 'Vazirmatn FD'; font-size: 9.71px; fill: rgb(0, 0, 0); fill-opacity: 1; white-space: pre;"><tspan class="line" dy="0em" x="446.56" y="297.94">میرسجاد</tspan><tspan class="line" dy="1.3em" x="446.56" y="297.94">هاشمی</tspan></text></g><g class="textpoint" transform="translate(0,-4.063999999999999)"><text x="694.04" y="323.92" text-anchor="middle" style="font-family: 'Vazirmatn FD'; font-size: 10.16px; fill: rgb(0, 0, 0); fill-opacity: 1; white-space: pre;"><tspan class="line" dy="0em" x="694.04" y="323.92">محمدمهدی</tspan><tspan class="line" dy="1.3em" x="694.04" y="323.92">شیخ‌جباری</tspan></text></g><g class="textpoint" transform="translate(0,-3.775999999999998)"><text x="750.91" y="347.45" text-anchor="middle" style="font-family: 'Vazirmatn FD'; font-size: 9.44px; fill: rgb(0, 0, 0); fill-opacity: 1; white-space: pre;"><tspan class="line" dy="0em" x="750.91" y="347.45">محمدعلی</tspan><tspan class="line" dy="1.3em" x="750.91" y="347.45">افشار</tspan></text></g><g class="textpoint" transform="translate(0,-3.4159999999999986)"><text x="537.19" y="675.35" text-anchor="middle" style="font-family: 'Vazirmatn FD'; font-size: 8.54px; fill: rgb(0, 0, 0); fill-opacity: 1; white-space: pre;"><tspan class="line" dy="0em" x="537.19" y="675.35">رادمهر</tspan><tspan class="line" dy="1.3em" x="537.19" y="675.35">جعفری</tspan></text></g><g class="textpoint" transform="translate(0,-3.74)"><text x="691.58" y="383.76" text-anchor="middle" style="font-family: 'Vazirmatn FD'; font-size: 9.35px; fill: rgb(0, 0, 0); fill-opacity: 1; white-space: pre;"><tspan class="line" dy="0em" x="691.58" y="383.76">محمدرضا</tspan><tspan class="line" dy="1.3em" x="691.58" y="383.76">علیپور</tspan></text></g><g class="textpoint" transform="translate(0,-3.4159999999999986)"><text x="468.61" y="675.35" text-anchor="middle" style="font-family: 'Vazirmatn FD'; font-size: 8.54px; fill: rgb(0, 0, 0); fill-opacity: 1; white-space: pre;"><tspan class="line" dy="0em" x="468.61" y="675.35">فاطمه</tspan><tspan class="line" dy="1.3em" x="468.61" y="675.35">داور</tspan></text></g><g class="textpoint"/><g class="textpoint"/><g class="textpoint" transform="translate(0,-3.4159999999999986)"><text x="838.77" y="675.35" text-anchor="middle" style="font-family: 'Vazirmatn FD'; font-size: 8.54px; fill: rgb(0, 0, 0); fill-opacity: 1; white-space: pre;"><tspan class="line" dy="0em" x="838.77" y="675.35">موسی</tspan><tspan class="line" dy="1.3em" x="838.77" y="675.35">ایلی</tspan></text></g><g class="textpoint" transform="translate(0,-3.3439999999999994)"><text x="988.81" y="675.35" text-anchor="middle" style="font-family: 'Vazirmatn FD'; font-size: 8.36px; fill: rgb(0, 0, 0); fill-opacity: 1; white-space: pre;"><tspan class="line" dy="0em" x="988.81" y="675.35">فاطمه</tspan><tspan class="line" dy="1.3em" x="988.81" y="675.35">کیانی</tspan></text></g><g class="textpoint" transform="translate(0,-3.8119999999999994)"><text x="1022.49" y="443.1" text-anchor="middle" style="font-family: 'Vazirmatn FD'; font-size: 9.53px; fill: rgb(0, 0, 0); fill-opacity: 1; white-space: pre;"><tspan class="line" dy="0em" x="1022.49" y="443.1">محسن</tspan><tspan class="line" dy="1.3em" x="1022.49" y="443.1">خدادی</tspan></text></g><g class="textpoint" transform="translate(0,-3.5599999999999987)"><text x="439.83" y="576.71" text-anchor="middle" style="font-family: 'Vazirmatn FD'; font-size: 8.9px; fill: rgb(0, 0, 0); fill-opacity: 1; white-space: pre;"><tspan class="line" dy="0em" x="439.83" y="576.71">حمیدرضا</tspan><tspan class="line" dy="1.3em" x="439.83" y="576.71">مشایخی</tspan></text></g><g class="textpoint" transform="translate(0,-3.452)"><text x="1149.1" y="576.71" text-anchor="middle" style="font-family: 'Vazirmatn FD'; font-size: 8.63px; fill: rgb(0, 0, 0); fill-opacity: 1; white-space: pre;"><tspan class="line" dy="0em" x="1149.1" y="576.71">سعید</tspan><tspan class="line" dy="1.3em" x="1149.1" y="576.71">پوروجاقی</tspan></text></g><g class="textpoint" transform="translate(0,-3.523999999999999)"><text x="1306.57" y="537.46" text-anchor="middle" style="font-family: 'Vazirmatn FD'; font-size: 8.81px; fill: rgb(0, 0, 0); fill-opacity: 1; white-space: pre;"><tspan class="line" dy="0em" x="1306.57" y="537.46">علیرضا</tspan><tspan class="line" dy="1.3em" x="1306.57" y="537.46">الهیاری</tspan></text></g><g class="textpoint"/><g class="textpoint" transform="translate(0,-3.379999999999998)"><text x="565.99" y="628.53" text-anchor="middle" style="font-family: 'Vazirmatn FD'; font-size: 8.45px; fill: rgb(0, 0, 0); fill-opacity: 1; white-space: pre;"><tspan class="line" dy="0em" x="565.99" y="628.53">سوما</tspan><tspan class="line" dy="1.3em" x="565.99" y="628.53">حیدری</tspan></text></g><g class="textpoint"/></g></g></g></g></g><g class="zerolinelayer-above"/><path class="xlines-above crisp" d="M0,0" style="fill: none;"/><path class="ylines-above crisp" d="M0,0" style="fill: none;"/><g class="overlines-above"/><g class="xaxislayer-above"><g class="xtick"><text text-anchor="middle" x="0" y="834" transform="translate(218.34,0)" style="font-family: 'Vazirmatn FD'; font-size: 13px; fill: rgb(42, 63, 95); fill-opacity: 1; white-space: pre;">1</text></g><g class="xtick"><text text-anchor="middle" x="0" y="834" style="font-family: 'Vazirmatn FD'; font-size: 13px; fill: rgb(42, 63, 95); fill-opacity: 1; white-space: pre;" transform="translate(397.95,0)">2</text></g><g class="xtick"><text text-anchor="middle" x="0" y="834" style="font-family: 'Vazirmatn FD'; font-size: 13px; fill: rgb(42, 63, 95); fill-opacity: 1; white-space: pre;" transform="translate(577.5699999999999,0)">3</text></g><g class="xtick"><text text-anchor="middle" x="0" y="834" style="font-family: 'Vazirmatn FD'; font-size: 13px; fill: rgb(42, 63, 95); fill-opacity: 1; white-space: pre;" transform="translate(757.18,0)">4</text></g><g class="xtick"><text text-anchor="middle" x="0" y="834" style="font-family: 'Vazirmatn FD'; font-size: 13px; fill: rgb(42, 63, 95); fill-opacity: 1; white-space: pre;" transform="translate(936.8,0)">5</text></g><g class="xtick"><text text-anchor="middle" x="0" y="834" style="font-family: 'Vazirmatn FD'; font-size: 13px; fill: rgb(42, 63, 95); fill-opacity: 1; white-space: pre;" transform="translate(1116.41,0)">6</text></g><g class="xtick"><text text-anchor="middle" x="0" y="834" style="font-family: 'Vazirmatn FD'; font-size: 13px; fill: rgb(42, 63, 95); fill-opacity: 1; white-space: pre;" transform="translate(1296.03,0)">7</text></g></g><g class="yaxislayer-above"><g class="ytick"><text text-anchor="end" x="79" y="4.55" transform="translate(0,805.02)" style="font-family: 'Vazirmatn FD'; font-size: 13px; fill: rgb(42, 63, 95); fill-opacity: 1; white-space: pre;">5</text></g><g class="ytick"><text text-anchor="end" x="79" y="4.55" style="font-family: 'Vazirmatn FD'; font-size: 13px; fill: rgb(42, 63, 95); fill-opacity: 1; white-space: pre;" transform="translate(0,775.35)">6</text></g><g class="ytick"><text text-anchor="end" x="79" y="4.55" style="font-family: 'Vazirmatn FD'; font-size: 13px; fill: rgb(42, 63, 95); fill-opacity: 1; white-space: pre;" transform="translate(0,750.26)">7</text></g><g class="ytick"><text text-anchor="end" x="79" y="4.55" style="font-family: 'Vazirmatn FD'; font-size: 13px; fill: rgb(42, 63, 95); fill-opacity: 1; white-space: pre;" transform="translate(0,728.53)">8</text></g><g class="ytick"><text text-anchor="end" x="79" y="4.55" style="font-family: 'Vazirmatn FD'; font-size: 13px; fill: rgb(42, 63, 95); fill-opacity: 1; white-space: pre;" transform="translate(0,709.36)">9</text></g><g class="ytick"><text text-anchor="end" x="79" y="4.55" style="font-family: 'Vazirmatn FD'; font-size: 13px; fill: rgb(42, 63, 95); fill-opacity: 1; white-space: pre;" transform="translate(0,692.22)">10</text></g><g class="ytick"><text text-anchor="end" x="79" y="4.55" style="font-family: 'Vazirmatn FD'; font-size: 13px; fill: rgb(42, 63, 95); fill-opacity: 1; white-space: pre;" transform="translate(0,579.4200000000001)">20</text></g><g class="ytick"><text text-anchor="end" x="79" y="4.55" style="font-family: 'Vazirmatn FD'; font-size: 13px; fill: rgb(42, 63, 95); fill-opacity: 1; white-space: pre;" transform="translate(0,513.4300000000001)">30</text></g><g class="ytick"><text text-anchor="end" x="79" y="4.55" style="font-family: 'Vazirmatn FD'; font-size: 13px; fill: rgb(42, 63, 95); fill-opacity: 1; white-space: pre;" transform="translate(0,466.62)">40</text></g><g class="ytick"><text text-anchor="end" x="79" y="4.55" style="font-family: 'Vazirmatn FD'; font-size: 13px; fill: rgb(42, 63, 95); fill-opacity: 1; white-space: pre;" transform="translate(0,430.3)">50</text></g><g class="ytick"><text text-anchor="end" x="79" y="4.55" style="font-family: 'Vazirmatn FD'; font-size: 13px; fill: rgb(42, 63, 95); fill-opacity: 1; white-space: pre;" transform="translate(0,400.63)">60</text></g><g class="ytick"><text text-anchor="end" x="79" y="4.55" style="font-family: 'Vazirmatn FD'; font-size: 13px; fill: rgb(42, 63, 95); fill-opacity: 1; white-space: pre;" transform="translate(0,375.55)">70</text></g><g class="ytick"><text text-anchor="end" x="79" y="4.55" style="font-family: 'Vazirmatn FD'; font-size: 13px; fill: rgb(42, 63, 95); fill-opacity: 1; white-space: pre;" transform="translate(0,353.82)">80</text></g><g class="ytick"><text text-anchor="end" x="79" y="4.55" style="font-family: 'Vazirmatn FD'; font-size: 13px; fill: rgb(42, 63, 95); fill-opacity: 1; white-space: pre;" transform="translate(0,334.65)">90</text></g><g class="ytick"><text text-anchor="end" x="79" y="4.55" style="font-family: 'Vazirmatn FD'; font-size: 13px; fill: rgb(42, 63, 95); fill-opacity: 1; white-space: pre;" transform="translate(0,317.5)">100</text></g></g><g class="overaxes-above"/></g></g><g class="polarlayer"/><g class="smithlayer"/><g class="ternarylayer"/><g class="geolayer"/><g class="funnelarealayer"/><g class="pielayer"/><g class="iciclelayer"/><g class="treemaplayer"/><g class="sunburstlayer"/><g class="glimages"/><defs id="topdefs-00b896"><g class="clips"/></defs><g class="layer-above"><g class="imagelayer"/><g class="shapelayer"/></g><g class="infolayer"><g class="cb858eaa colorbar" transform="translate(80,100)"><rect class="cbbg" x="1416.5" y="0" width="91.6875" height="721" style="fill: rgb(0, 0, 0); fill-opacity: 0; stroke: rgb(68, 68, 68); stroke-opacity: 1; stroke-width: 0;"/><g class="cbfills" transform="translate(0,55)"><rect class="cbfill gradient_filled" style="fill: url('#g00b896-cb858eaa');" x="1427" y="0" width="30" height="655"/></g><g class="cblines" transform="translate(0,55)"/><g class="cbaxis crisp" transform="translate(0,-100)"><g class="ycb858eaatick"><text text-anchor="start" x="1460.4" y="4.199999999999999" transform="translate(0,770.2401953125)" style="font-family: 'Vazirmatn FD'; font-size: 12px; fill: rgb(42, 63, 95); fill-opacity: 1; white-space: pre;">10</text></g><g class="ycb858eaatick"><text text-anchor="start" x="1460.4" y="4.199999999999999" style="font-family: 'Vazirmatn FD'; font-size: 12px; fill: rgb(42, 63, 95); fill-opacity: 1; white-space: pre;" transform="translate(0,686.3701953124998)">20</text></g><g class="ycb858eaatick"><text text-anchor="start" x="1460.4" y="4.199999999999999" style="font-family: 'Vazirmatn FD'; font-size: 12px; fill: rgb(42, 63, 95); fill-opacity: 1; white-space: pre;" transform="translate(0,602.5001953125)">30</text></g><g class="ycb858eaatick"><text text-anchor="start" x="1460.4" y="4.199999999999999" style="font-family: 'Vazirmatn FD'; font-size: 12px; fill: rgb(42, 63, 95); fill-opacity: 1; white-space: pre;" transform="translate(0,518.6201953125)">40</text></g><g class="ycb858eaatick"><text text-anchor="start" x="1460.4" y="4.199999999999999" style="font-family: 'Vazirmatn FD'; font-size: 12px; fill: rgb(42, 63, 95); fill-opacity: 1; white-space: pre;" transform="translate(0,434.75019531249995)">50</text></g><g class="ycb858eaatick"><text text-anchor="start" x="1460.4" y="4.199999999999999" style="font-family: 'Vazirmatn FD'; font-size: 12px; fill: rgb(42, 63, 95); fill-opacity: 1; white-space: pre;" transform="translate(0,350.88019531249995)">60</text></g><g class="ycb858eaatick"><text text-anchor="start" x="1460.4" y="4.199999999999999" style="font-family: 'Vazirmatn FD'; font-size: 12px; fill: rgb(42, 63, 95); fill-opacity: 1; white-space: pre;" transform="translate(0,267.00019531249995)">70</text></g><g class="ycb858eaatick"><text text-anchor="start" x="1460.4" y="4.199999999999999" style="font-family: 'Vazirmatn FD'; font-size: 12px; fill: rgb(42, 63, 95); fill-opacity: 1; white-space: pre;" transform="translate(0,183.13019531249995)">80</text></g></g><g class="cbtitleunshift" transform="translate(-80,-100)"><g class="cbtitle" transform="translate(-0.5,-0.5)"><text class="ycb858eaatitle" x="1506.78" y="123.5" text-anchor="start" style="opacity: 1; font-family: 'Vazirmatn FD'; font-size: 14px; fill: rgb(42, 63, 95); fill-opacity: 1; white-space: pre;"><tspan class="line" dy="0em" x="1506.78" y="123.5">درصد مقالات</tspan><tspan class="line" dy="1.3em" x="1506.78" y="123.5">در دهک اول</tspan></text></g></g><rect class="cboutline" x="1427" y="55.2001953125" width="30" height="654.7998046875" style="stroke: rgb(68, 68, 68); stroke-opacity: 1; fill: none; stroke-width: 1;"/></g><g class="g-gtitle"><text class="gtitle" x="800" y="50" text-anchor="middle" dy="0em" style="opacity: 1; font-family: 'Vazirmatn FD Black'; font-size: 17px; fill: rgb(42, 63, 95); fill-opacity: 1; white-space: pre;">پژوهشگران برتر حوزه فیزیک بر اساس سال‌های ۲۰۲۰ تا ۲۰۲۵</text></g><g class="g-xtitle"><text class="xtitle" x="774.5" y="865.3" text-anchor="middle" style="opacity: 1; font-family: 'Vazirmatn FD'; font-size: 14px; fill: rgb(42, 63, 95); fill-opacity: 1; white-space: pre;">تأثیر استنادی نرمال شده</text></g><g class="g-ytitle"><text class="ytitle" transform="rotate(-90,44.865625,460)" x="44.865625" y="460" text-anchor="middle" style="opacity: 1; font-family: 'Vazirmatn FD'; font-size: 14px; fill: rgb(42, 63, 95); fill-opacity: 1; white-space: pre;">فراوانی</text></g><g class="annotation" data-index="0" style="opacity: 1;"><g class="annotation-text-g" transform="rotate(0,774.5,69.90000000000008)"><g class="cursor-pointer" transform="translate(394,60)"><rect class="bg" x="0.5" y="0.5" width="761" height="18" style="stroke-width: 1px; stroke: rgb(0, 0, 0); stroke-opacity: 0; fill: rgb(0, 0, 0); fill-opacity: 0;"/><text class="annotation-text" text-anchor="middle" x="380.84375" y="12" style="font-family: 'Vazirmatn FD'; font-size: 10px; fill: rgb(128, 128, 128); fill-opacity: 1; white-space: pre;">از نظر تعداد مقالات (محور عمودی)، تاثیر استنادی نرمال (محور افقی)، شاخص اچ در بازه مورد بررسی (اندازه دایره) و درصد مقالات در دهک اول استنادی. مقالات با بیش از ۲۰ نویسنده استثنا شده‌اند</text></g></g></g></g></svg>