<svg class="main-svg" xmlns="http://www.w3.org/2000/svg" xmlns:xlink="http://www.w3.org/1999/xlink" width="1600" height="900" style="" viewBox="0 0 1600 900"><rect x="0" y="0" width="1600" height="900" style="fill: rgb(255, 255, 255); fill-opacity: 1;"/><defs id="defs-916005"><g class="clips"><clipPath id="clip916005polar-for-traces"><path d="M360,0A360,360 0,1,0 -360,-4.4087284769304716e-14A360,360 0,1,0 360,8.817456953860943e-14Z" transform="translate(360,360)"/></clipPath></g><g class="gradients"/><g class="patterns"/></defs><g class="bglayer"/><g class="layer-below"><g class="imagelayer"/><g class="shapelayer"/></g><g class="cartesianlayer"/><g class="polarlayer"><g class="polar"><g class="polarsublayer draglayer"/><g class="polarsublayer plotbg"><path d="M360,0A360,360 0,1,0 -360,-4.4087284769304716e-14A360,360 0,1,0 360,8.817456953860943e-14Z" transform="translate(769,460)" style="fill: rgb(229, 236, 246); fill-opacity: 1;"/></g><g class="polarsublayer backplot"><g class="maplayer"/></g><g class="polarsublayer angular-grid" style="fill: none;"><path class="angularaxisgrid" d="M769,460L1129,460" style="stroke: rgb(255, 255, 255); stroke-opacity: 1; stroke-width: 1px;"/><path class="angularaxisgrid" d="M769,460L949,148.23085463760208" style="stroke: rgb(255, 255, 255); stroke-opacity: 1; stroke-width: 1px;"/><path class="angularaxisgrid" d="M769,460L589.0000000000001,148.23085463760208" style="stroke: rgb(255, 255, 255); stroke-opacity: 1; stroke-width: 1px;"/><path class="angularaxisgrid" d="M769,460L409,459.99999999999994" style="stroke: rgb(255, 255, 255); stroke-opacity: 1; stroke-width: 1px;"/><path class="angularaxisgrid" d="M769,460L588.9999999999998,771.7691453623978" style="stroke: rgb(255, 255, 255); stroke-opacity: 1; stroke-width: 1px;"/><path class="angularaxisgrid" d="M769,460L949,771.7691453623979" style="stroke: rgb(255, 255, 255); stroke-opacity: 1; stroke-width: 1px;"/></g><g class="polarsublayer radial-grid" transform="translate(769,460)" style="fill: none;"><path class="xgrid" d="M45.62,0A45.62,45.62 0,1,0 -45.62,-5.586838697710225e-15A45.62,45.62 0,1,0 45.62,1.117367739542045e-14Z" style="stroke: rgb(255, 255, 255); stroke-opacity: 1; stroke-width: 1px;"/><path class="xgrid" d="M91.24,0A91.24,91.24 0,1,0 -91.24,-1.117367739542045e-14A91.24,91.24 0,1,0 91.24,2.23473547908409e-14Z" style="stroke: rgb(255, 255, 255); stroke-opacity: 1; stroke-width: 1px;"/><path class="xgrid" d="M136.86,0A136.86,136.86 0,1,0 -136.86,-1.6760516093130676e-14A136.86,136.86 0,1,0 136.86,3.352103218626135e-14Z" style="stroke: rgb(255, 255, 255); stroke-opacity: 1; stroke-width: 1px;"/><path class="xgrid" d="M182.48,0A182.48,182.48 0,1,0 -182.48,-2.23473547908409e-14A182.48,182.48 0,1,0 182.48,4.46947095816818e-14Z" style="stroke: rgb(255, 255, 255); stroke-opacity: 1; stroke-width: 1px;"/><path class="xgrid" d="M228.1,0A228.1,228.1 0,1,0 -228.1,-2.7934193488551126e-14A228.1,228.1 0,1,0 228.1,5.586838697710225e-14Z" style="stroke: rgb(255, 255, 255); stroke-opacity: 1; stroke-width: 1px;"/><path class="xgrid" d="M273.72,0A273.72,273.72 0,1,0 -273.72,-3.352103218626135e-14A273.72,273.72 0,1,0 273.72,6.70420643725227e-14Z" style="stroke: rgb(255, 255, 255); stroke-opacity: 1; stroke-width: 1px;"/><path class="xgrid" d="M319.34,0A319.34,319.34 0,1,0 -319.34,-3.9107870883971575e-14A319.34,319.34 0,1,0 319.34,7.821574176794315e-14Z" style="stroke: rgb(255, 255, 255); stroke-opacity: 1; stroke-width: 1px;"/></g><g class="polarsublayer frontplot" transform="translate(409,100)"><g class="barlayer"/><g class="scatterlayer"><g class="trace scatter tracec80595" style="stroke-miterlimit: 2; opacity: 1;"><g class="fills" clip-path="url(#clip916005polar-for-traces)"><g><path class="js-fill" d="M360,360L419.32,257.25L246.01,162.57L308.93,360L328.82,414L360,360L360,360Z" style="fill: rgb(31, 119, 180); fill-opacity: 0.5; stroke-width: 0;"/></g></g><g class="errorbars"/><g class="lines"><path class="js-line" d="M360,360L419.32,257.25L246.01,162.57L308.93,360L328.82,414L360,360L360,360" clip-path="url(#clip916005polar-for-traces)" style="vector-effect: none; fill: none; stroke: rgb(31, 119, 180); stroke-opacity: 1; stroke-width: 2px; opacity: 1;"/></g><g class="points"><path class="point plotly-customdata" transform="translate(360,360)" d="M3,0A3,3 0 1,1 0,-3A3,3 0 0,1 3,0Z" style="opacity: 1; stroke-width: 0px; fill: rgb(31, 119, 180); fill-opacity: 1;"/><path class="point plotly-customdata" transform="translate(419.32,257.25)" d="M3,0A3,3 0 1,1 0,-3A3,3 0 0,1 3,0Z" style="opacity: 1; stroke-width: 0px; fill: rgb(31, 119, 180); fill-opacity: 1;"/><path class="point plotly-customdata" transform="translate(246.01,162.57)" d="M3,0A3,3 0 1,1 0,-3A3,3 0 0,1 3,0Z" style="opacity: 1; stroke-width: 0px; fill: rgb(31, 119, 180); fill-opacity: 1;"/><path class="point plotly-customdata" transform="translate(308.93,360)" d="M3,0A3,3 0 1,1 0,-3A3,3 0 0,1 3,0Z" style="opacity: 1; stroke-width: 0px; fill: rgb(31, 119, 180); fill-opacity: 1;"/><path class="point plotly-customdata" transform="translate(328.82,414)" d="M3,0A3,3 0 1,1 0,-3A3,3 0 0,1 3,0Z" style="opacity: 1; stroke-width: 0px; fill: rgb(31, 119, 180); fill-opacity: 1;"/><path class="point plotly-customdata" transform="translate(360,360)" d="M3,0A3,3 0 1,1 0,-3A3,3 0 0,1 3,0Z" style="opacity: 1; stroke-width: 0px; fill: rgb(31, 119, 180); fill-opacity: 1;"/><path class="point plotly-customdata" transform="translate(360,360)" d="M3,0A3,3 0 1,1 0,-3A3,3 0 0,1 3,0Z" style="opacity: 1; stroke-width: 0px; fill: rgb(31, 119, 180); fill-opacity: 1;"/></g><g class="text"/></g><g class="trace scatter tracef89309" style="stroke-miterlimit: 2; opacity: 1;"><g class="fills" clip-path="url(#clip916005polar-for-traces)"><g><path class="js-fill" d="M360,360L440.33,220.87L237.03,147L318.05,360L286.9,486.6L398.91,427.39L360,360Z" style="fill: rgb(255, 127, 14); fill-opacity: 0.5; stroke-width: 0;"/></g></g><g class="errorbars"/><g class="lines"><path class="js-line" d="M360,360L440.33,220.87L237.03,147L318.05,360L286.9,486.6L398.91,427.39L360,360" clip-path="url(#clip916005polar-for-traces)" style="vector-effect: none; fill: none; stroke: rgb(255, 127, 14); stroke-opacity: 1; stroke-width: 2px; opacity: 1;"/></g><g class="points"><path class="point plotly-customdata" transform="translate(360,360)" d="M3,0A3,3 0 1,1 0,-3A3,3 0 0,1 3,0Z" style="opacity: 1; stroke-width: 0px; fill: rgb(255, 127, 14); fill-opacity: 1;"/><path class="point plotly-customdata" transform="translate(440.33,220.87)" d="M3,0A3,3 0 1,1 0,-3A3,3 0 0,1 3,0Z" style="opacity: 1; stroke-width: 0px; fill: rgb(255, 127, 14); fill-opacity: 1;"/><path class="point plotly-customdata" transform="translate(237.03,147)" d="M3,0A3,3 0 1,1 0,-3A3,3 0 0,1 3,0Z" style="opacity: 1; stroke-width: 0px; fill: rgb(255, 127, 14); fill-opacity: 1;"/><path class="point plotly-customdata" transform="translate(318.05,360)" d="M3,0A3,3 0 1,1 0,-3A3,3 0 0,1 3,0Z" style="opacity: 1; stroke-width: 0px; fill: rgb(255, 127, 14); fill-opacity: 1;"/><path class="point plotly-customdata" transform="translate(286.9,486.6)" d="M3,0A3,3 0 1,1 0,-3A3,3 0 0,1 3,0Z" style="opacity: 1; stroke-width: 0px; fill: rgb(255, 127, 14); fill-opacity: 1;"/><path class="point plotly-customdata" transform="translate(398.91,427.39)" d="M3,0A3,3 0 1,1 0,-3A3,3 0 0,1 3,0Z" style="opacity: 1; stroke-width: 0px; fill: rgb(255, 127, 14); fill-opacity: 1;"/><path class="point plotly-customdata" transform="translate(360,360)" d="M3,0A3,3 0 1,1 0,-3A3,3 0 0,1 3,0Z" style="opacity: 1; stroke-width: 0px; fill: rgb(255, 127, 14); fill-opacity: 1;"/></g><g class="text"/></g></g></g><g class="polarsublayer angular-line"><path d="M360,0A360,360 0,1,0 -360,-4.4087284769304716e-14A360,360 0,1,0 360,8.817456953860943e-14Z" transform="translate(769,460)" stroke-width="1" style="fill: none; stroke: rgb(255, 255, 255); stroke-opacity: 1;"/></g><g class="polarsublayer radial-line"><line x1="0" y1="0" x2="360" y2="0" transform="translate(769,460)" stroke-width="1" style="fill: none; stroke: rgb(255, 255, 255); stroke-opacity: 1;"/></g><g class="polarsublayer angular-axis"><g class="angularaxistick"><text text-anchor="start" x="2.9000000000000004" y="4.199999999999999" transform="translate(1129,460)translate(0,-7.800000000000001)" style="font-family: 'Vazirmatn FD'; font-size: 12px; fill: rgb(42, 63, 95); fill-opacity: 1; white-space: pre;"><tspan class="line" dy="0em" x="2.9000000000000004" y="4.199999999999999">سامانه‌های پیوسته</tspan><tspan class="line" dy="1.3em" x="2.9000000000000004" y="4.199999999999999">و آماری</tspan></text></g><g class="angularaxistick"><text text-anchor="start" x="1.4500000000000004" y="-2.4899346400575255" transform="translate(949,148.23085463760208)translate(0,-14.554998149518623)" style="font-family: 'Vazirmatn FD'; font-size: 12px; fill: rgb(42, 63, 95); fill-opacity: 1; white-space: pre;"><tspan class="line" dy="0em" x="1.4500000000000004" y="-2.4899346400575255">علم مواد و</tspan><tspan class="line" dy="1.3em" x="1.4500000000000004" y="-2.4899346400575255">انرژی</tspan></text></g><g class="angularaxistick"><text text-anchor="end" x="-1.4499999999999995" y="-2.489934640057527" transform="translate(589.0000000000001,148.23085463760208)translate(0,-14.554998149518624)" style="font-family: 'Vazirmatn FD'; font-size: 12px; fill: rgb(42, 63, 95); fill-opacity: 1; white-space: pre;"><tspan class="line" dy="0em" x="-1.4499999999999995" y="-2.489934640057527">فیزیک ذرات، میدان‌ها</tspan><tspan class="line" dy="1.3em" x="-1.4499999999999995" y="-2.489934640057527">و کیهان‌شناسی</tspan></text></g><g class="angularaxistick"><text text-anchor="end" x="-2.9000000000000004" y="4.199999999999998" transform="translate(409,459.99999999999994)translate(0,-7.8000000000000025)" style="font-family: 'Vazirmatn FD'; font-size: 12px; fill: rgb(42, 63, 95); fill-opacity: 1; white-space: pre;"><tspan class="line" dy="0em" x="-2.9000000000000004" y="4.199999999999998">فیزیک نور و </tspan><tspan class="line" dy="1.3em" x="-2.9000000000000004" y="4.199999999999998">برهم‌کنش نور و ماده</tspan></text></g><g class="angularaxistick"><text text-anchor="end" x="-1.4500000000000015" y="15.003778516388133" transform="translate(588.9999999999998,771.7691453623978)translate(0,-1.0450018504813807)" style="font-family: 'Vazirmatn FD'; font-size: 12px; fill: rgb(42, 63, 95); fill-opacity: 1; white-space: pre;"><tspan class="line" dy="0em" x="-1.4500000000000015" y="15.003778516388133">نجوم و</tspan><tspan class="line" dy="1.3em" x="-1.4500000000000015" y="15.003778516388133">اخترفیزیک</tspan></text></g><g class="angularaxistick"><text text-anchor="start" x="1.4500000000000004" y="15.003778516388135" transform="translate(949,771.7691453623979)translate(0,-1.045001850481379)" style="font-family: 'Vazirmatn FD'; font-size: 12px; fill: rgb(42, 63, 95); fill-opacity: 1; white-space: pre;"><tspan class="line" dy="0em" x="1.4500000000000004" y="15.003778516388135">‬‬علوم داده، اطلاعات کوانتمی</tspan><tspan class="line" dy="1.3em" x="1.4500000000000004" y="15.003778516388135">و یادگیری ماشین‬</tspan></text></g></g><g class="polarsublayer radial-axis" transform="translate(769,460)"><g class="xtick"><text text-anchor="middle" x="0" y="14.9" transform="" style="font-family: 'Vazirmatn FD'; font-size: 12px; fill: rgb(42, 63, 95); fill-opacity: 1; white-space: pre;">0</text></g><g class="xtick"><text text-anchor="middle" x="0" y="14.9" transform="translate(45.62,0)" style="font-family: 'Vazirmatn FD'; font-size: 12px; fill: rgb(42, 63, 95); fill-opacity: 1; white-space: pre;">0.2</text></g><g class="xtick"><text text-anchor="middle" x="0" y="14.9" transform="translate(91.24,0)" style="font-family: 'Vazirmatn FD'; font-size: 12px; fill: rgb(42, 63, 95); fill-opacity: 1; white-space: pre;">0.4</text></g><g class="xtick"><text text-anchor="middle" x="0" y="14.9" transform="translate(136.86,0)" style="font-family: 'Vazirmatn FD'; font-size: 12px; fill: rgb(42, 63, 95); fill-opacity: 1; white-space: pre;">0.6</text></g><g class="xtick"><text text-anchor="middle" x="0" y="14.9" transform="translate(182.48,0)" style="font-family: 'Vazirmatn FD'; font-size: 12px; fill: rgb(42, 63, 95); fill-opacity: 1; white-space: pre;">0.8</text></g><g class="xtick"><text text-anchor="middle" x="0" y="14.9" transform="translate(228.1,0)" style="font-family: 'Vazirmatn FD'; font-size: 12px; fill: rgb(42, 63, 95); fill-opacity: 1; white-space: pre;">1</text></g><g class="xtick"><text text-anchor="middle" x="0" y="14.9" transform="translate(273.72,0)" style="font-family: 'Vazirmatn FD'; font-size: 12px; fill: rgb(42, 63, 95); fill-opacity: 1; white-space: pre;">1.2</text></g><g class="xtick"><text text-anchor="middle" x="0" y="14.9" transform="translate(319.34,0)" style="font-family: 'Vazirmatn FD'; font-size: 12px; fill: rgb(42, 63, 95); fill-opacity: 1; white-space: pre;">1.4</text></g></g></g></g><g class="smithlayer"/><g class="ternarylayer"/><g class="geolayer"/><g class="funnelarealayer"/><g class="pielayer"/><g class="iciclelayer"/><g class="treemaplayer"/><g class="sunburstlayer"/><g class="glimages"/><defs id="topdefs-916005"><g class="clips"/><clipPath id="legend916005"><rect width="102" height="48" x="0" y="0"/></clipPath></defs><g class="layer-above"><g class="imagelayer"/><g class="shapelayer"/></g><g class="infolayer"><g class="legend" pointer-events="all" transform="translate(1485.56,100)"><rect class="bg" shape-rendering="crispEdges" style="stroke: rgb(68, 68, 68); stroke-opacity: 1; fill: rgb(255, 255, 255); fill-opacity: 1; stroke-width: 0px;" width="102" height="48" x="0" y="0"/><g class="scrollbox" transform="" clip-path="url(#legend916005)"><g class="groups"><g class="traces" transform="translate(0,14.5)" style="opacity: 1;"><text class="legendtext" text-anchor="start" x="40" y="4.680000000000001" style="font-family: 'Vazirmatn FD'; font-size: 12px; fill: rgb(42, 63, 95); fill-opacity: 1; white-space: pre;">2015–2018</text><g class="layers" style="opacity: 1;"><g class="legendfill"><path class="js-fill" d="M5,0h30v6h-30z" style="stroke-width: 0; fill: rgb(31, 119, 180); fill-opacity: 0.5;"/></g><g class="legendlines"><path class="js-line" d="M5,0h30" style="fill: none; stroke: rgb(31, 119, 180); stroke-opacity: 1; stroke-width: 2px;"/></g><g class="legendsymbols"><g class="legendpoints"><path class="scatterpts" transform="translate(20,0)" d="M3,0A3,3 0 1,1 0,-3A3,3 0 0,1 3,0Z" style="opacity: 1; stroke-width: 0px; fill: rgb(31, 119, 180); fill-opacity: 1;"/></g></g></g><rect class="legendtoggle" x="0" y="-9.5" width="96.5" height="19" style="fill: rgb(0, 0, 0); fill-opacity: 0;"/></g><g class="traces" transform="translate(0,33.5)" style="opacity: 1;"><text class="legendtext" text-anchor="start" x="40" y="4.680000000000001" style="font-family: 'Vazirmatn FD'; font-size: 12px; fill: rgb(42, 63, 95); fill-opacity: 1; white-space: pre;">2022–2025</text><g class="layers" style="opacity: 1;"><g class="legendfill"><path class="js-fill" d="M5,0h30v6h-30z" style="stroke-width: 0; fill: rgb(255, 127, 14); fill-opacity: 0.5;"/></g><g class="legendlines"><path class="js-line" d="M5,0h30" style="fill: none; stroke: rgb(255, 127, 14); stroke-opacity: 1; stroke-width: 2px;"/></g><g class="legendsymbols"><g class="legendpoints"><path class="scatterpts" transform="translate(20,0)" d="M3,0A3,3 0 1,1 0,-3A3,3 0 0,1 3,0Z" style="opacity: 1; stroke-width: 0px; fill: rgb(255, 127, 14); fill-opacity: 1;"/></g></g></g><rect class="legendtoggle" x="0" y="-9.5" width="96.5" height="19" style="fill: rgb(0, 0, 0); fill-opacity: 0;"/></g></g></g><rect class="scrollbar" rx="20" ry="3" width="0" height="0" style="fill: rgb(128, 139, 164); fill-opacity: 1;" x="0" y="0"/></g><g class="g-gtitle"><text class="gtitle" x="800" y="50" text-anchor="middle" dy="0em" style="opacity: 1; font-family: 'Vazirmatn FD Black'; font-size: 17px; fill: rgb(42, 63, 95); fill-opacity: 1; white-space: pre;">درصد از مقالات فیزیک در صدک اول استنادی</text></g><g class="g-polartitle"/></g></svg>