<svg class="main-svg" xmlns="http://www.w3.org/2000/svg" xmlns:xlink="http://www.w3.org/1999/xlink" width="1600" height="900" style="" viewBox="0 0 1600 900"><rect x="0" y="0" width="1600" height="900" style="fill: rgb(255, 255, 255); fill-opacity: 1;"/><defs id="defs-c0b0f4"><g class="clips"><clipPath id="clipc0b0f4polar-for-traces"><path d="M360,0A360,360 0,1,0 -360,-4.4087284769304716e-14A360,360 0,1,0 360,8.817456953860943e-14Z" transform="translate(360,360)"/></clipPath></g><g class="gradients"/><g class="patterns"/></defs><g class="bglayer"/><g class="layer-below"><g class="imagelayer"/><g class="shapelayer"/></g><g class="cartesianlayer"/><g class="polarlayer"><g class="polar"><g class="polarsublayer draglayer"/><g class="polarsublayer plotbg"><path d="M360,0A360,360 0,1,0 -360,-4.4087284769304716e-14A360,360 0,1,0 360,8.817456953860943e-14Z" transform="translate(732,460)" style="fill: rgb(229, 236, 246); fill-opacity: 1;"/></g><g class="polarsublayer backplot"><g class="maplayer"/></g><g class="polarsublayer angular-grid" style="fill: none;"><path class="angularaxisgrid" d="M732,460L732,100" style="stroke: rgb(255, 255, 255); stroke-opacity: 1; stroke-width: 1px;"/><path class="angularaxisgrid" d="M732,460L1043.769145362398,280" style="stroke: rgb(255, 255, 255); stroke-opacity: 1; stroke-width: 1px;"/><path class="angularaxisgrid" d="M732,460L1043.769145362398,640" style="stroke: rgb(255, 255, 255); stroke-opacity: 1; stroke-width: 1px;"/><path class="angularaxisgrid" d="M732,460L732,820" style="stroke: rgb(255, 255, 255); stroke-opacity: 1; stroke-width: 1px;"/><path class="angularaxisgrid" d="M732,460L420.23085463760214,640.0000000000001" style="stroke: rgb(255, 255, 255); stroke-opacity: 1; stroke-width: 1px;"/><path class="angularaxisgrid" d="M732,460L420.2308546376021,280" style="stroke: rgb(255, 255, 255); stroke-opacity: 1; stroke-width: 1px;"/></g><g class="polarsublayer radial-grid" transform="translate(732,460)" style="fill: none;"><path class="xgrid" d="M49.02,0A49.02,49.02 0,1,0 -49.02,-6.003218609420326e-15A49.02,49.02 0,1,0 49.02,1.2006437218840652e-14Z" style="stroke: rgb(255, 255, 255); stroke-opacity: 1; stroke-width: 1px;"/><path class="xgrid" d="M98.03,0A98.03,98.03 0,1,0 -98.03,-1.2005212572041504e-14A98.03,98.03 0,1,0 98.03,2.4010425144083008e-14Z" style="stroke: rgb(255, 255, 255); stroke-opacity: 1; stroke-width: 1px;"/><path class="xgrid" d="M147.05,0A147.05,147.05 0,1,0 -147.05,-1.800843118146183e-14A147.05,147.05 0,1,0 147.05,3.601686236292366e-14Z" style="stroke: rgb(255, 255, 255); stroke-opacity: 1; stroke-width: 1px;"/><path class="xgrid" d="M196.07,0A196.07,196.07 0,1,0 -196.07,-2.4011649790882153e-14A196.07,196.07 0,1,0 196.07,4.8023299581764306e-14Z" style="stroke: rgb(255, 255, 255); stroke-opacity: 1; stroke-width: 1px;"/><path class="xgrid" d="M245.09,0A245.09,245.09 0,1,0 -245.09,-3.001486840030248e-14A245.09,245.09 0,1,0 245.09,6.002973680060496e-14Z" style="stroke: rgb(255, 255, 255); stroke-opacity: 1; stroke-width: 1px;"/><path class="xgrid" d="M294.1,0A294.1,294.1 0,1,0 -294.1,-3.601686236292366e-14A294.1,294.1 0,1,0 294.1,7.203372472584732e-14Z" style="stroke: rgb(255, 255, 255); stroke-opacity: 1; stroke-width: 1px;"/><path class="xgrid" d="M343.12,0A343.12,343.12 0,1,0 -343.12,-4.2020080972343987e-14A343.12,343.12 0,1,0 343.12,8.404016194468797e-14Z" style="stroke: rgb(255, 255, 255); stroke-opacity: 1; stroke-width: 1px;"/></g><g class="polarsublayer frontplot" transform="translate(372,100)"><g class="barlayer"/><g class="scatterlayer"><g class="trace scatter traceb8c4a1" style="stroke-miterlimit: 2; opacity: 1;"><g class="fills" clip-path="url(#clipc0b0f4polar-for-traces)"/><g class="errorbars"/><g class="lines"><path class="js-line" d="M360,114.91L364.28,114.95L368.55,115.06L372.83,115.25L377.1,115.51L381.36,115.85L385.62,116.26L389.87,116.74L394.11,117.3L398.34,117.93L402.56,118.64L406.76,119.42L410.96,120.27L415.13,121.2L419.29,122.19L423.43,123.26L427.55,124.41L431.66,125.62L435.74,126.91L439.79,128.27L443.82,129.69L447.83,131.19L451.81,132.76L455.76,134.4L459.69,136.1L463.58,137.88L467.44,139.72L471.27,141.63L475.06,143.6L478.82,145.64L482.54,147.75L486.23,149.92L489.88,152.16L493.48,154.45L497.05,156.81L500.58,159.24L504.06,161.72L507.5,164.27L510.89,166.87L514.24,169.53L517.54,172.25L520.79,175.03L523.99,177.87L527.15,180.76L530.25,183.7L533.3,186.7L536.3,189.75L539.24,192.85L542.13,196.01L544.97,199.21L547.75,202.46L550.47,205.76L553.13,209.11L555.73,212.5L558.28,215.94L560.76,219.42L563.19,222.95L565.55,226.52L567.84,230.12L570.08,233.77L572.25,237.46L574.36,241.18L576.4,244.94L578.37,248.73L580.28,252.56L582.12,256.42L583.9,260.31L585.6,264.24L587.24,268.19L588.81,272.17L590.31,276.18L591.73,280.21L593.09,284.26L594.38,288.34L595.59,292.45L596.74,296.57L597.81,300.71L598.8,304.87L599.73,309.04L600.58,313.24L601.36,317.44L602.07,321.66L602.7,325.89L603.26,330.13L603.74,334.38L604.15,338.64L604.49,342.9L604.75,347.17L604.94,351.45L605.05,355.72L605.09,360L605.05,364.28L604.94,368.55L604.75,372.83L604.49,377.1L604.15,381.36L603.74,385.62L603.26,389.87L602.7,394.11L602.07,398.34L601.36,402.56L600.58,406.76L599.73,410.96L598.8,415.13L597.81,419.29L596.74,423.43L595.59,427.55L594.38,431.66L593.09,435.74L591.73,439.79L590.31,443.82L588.81,447.83L587.24,451.81L585.6,455.76L583.9,459.69L582.12,463.58L580.28,467.44L578.37,471.27L576.4,475.06L574.36,478.82L572.25,482.54L570.08,486.23L567.84,489.88L565.55,493.48L563.19,497.05L560.76,500.58L558.28,504.06L555.73,507.5L553.13,510.89L550.47,514.24L547.75,517.54L544.97,520.79L542.13,523.99L539.24,527.15L536.3,530.25L533.3,533.3L530.25,536.3L527.15,539.24L523.99,542.13L520.79,544.97L517.54,547.75L514.24,550.47L510.89,553.13L507.5,555.73L504.06,558.28L500.58,560.76L497.05,563.19L493.48,565.55L489.88,567.84L486.23,570.08L482.54,572.25L478.82,574.36L475.06,576.4L471.27,578.37L467.44,580.28L463.58,582.12L459.69,583.9L455.76,585.6L451.81,587.24L447.83,588.81L443.82,590.31L439.79,591.73L435.74,593.09L431.66,594.38L427.55,595.59L423.43,596.74L419.29,597.81L415.13,598.8L410.96,599.73L406.76,600.58L402.56,601.36L398.34,602.07L394.11,602.7L389.87,603.26L385.62,603.74L381.36,604.15L377.1,604.49L372.83,604.75L368.55,604.94L364.28,605.05L360,605.09L355.72,605.05L351.45,604.94L347.17,604.75L342.9,604.49L338.64,604.15L334.38,603.74L330.13,603.26L325.89,602.7L321.66,602.07L317.44,601.36L313.24,600.58L309.04,599.73L304.87,598.8L300.71,597.81L296.57,596.74L292.45,595.59L288.34,594.38L284.26,593.09L280.21,591.73L276.18,590.31L272.17,588.81L268.19,587.24L264.24,585.6L260.31,583.9L256.42,582.12L252.56,580.28L248.73,578.37L244.94,576.4L241.18,574.36L237.46,572.25L233.77,570.08L230.12,567.84L226.52,565.55L222.95,563.19L219.42,560.76L215.94,558.28L212.5,555.73L209.11,553.13L205.76,550.47L202.46,547.75L199.21,544.97L196.01,542.13L192.85,539.24L189.75,536.3L186.7,533.3L183.7,530.25L180.76,527.15L177.87,523.99L175.03,520.79L172.25,517.54L169.53,514.24L166.87,510.89L164.27,507.5L161.72,504.06L159.24,500.58L156.81,497.05L154.45,493.48L152.16,489.88L149.92,486.23L147.75,482.54L145.64,478.82L143.6,475.06L141.63,471.27L139.72,467.44L137.88,463.58L136.1,459.69L134.4,455.76L132.76,451.81L131.19,447.83L129.69,443.82L128.27,439.79L126.91,435.74L125.62,431.66L124.41,427.55L123.26,423.43L122.19,419.29L121.2,415.13L120.27,410.96L119.42,406.76L118.64,402.56L117.93,398.34L117.3,394.11L116.74,389.87L116.26,385.62L115.85,381.36L115.51,377.1L115.25,372.83L115.06,368.55L114.95,364.28L114.91,360L114.95,355.72L115.06,351.45L115.25,347.17L115.51,342.9L115.85,338.64L116.26,334.38L116.74,330.13L117.3,325.89L117.93,321.66L118.64,317.44L119.42,313.24L120.27,309.04L121.2,304.87L122.19,300.71L123.26,296.57L124.41,292.45L125.62,288.34L126.91,284.26L128.27,280.21L129.69,276.18L131.19,272.17L132.76,268.19L134.4,264.24L136.1,260.31L137.88,256.42L139.72,252.56L141.63,248.73L143.6,244.94L145.64,241.18L147.75,237.46L149.92,233.77L152.16,230.12L154.45,226.52L156.81,222.95L159.24,219.42L161.72,215.94L164.27,212.5L166.87,209.11L169.53,205.76L172.25,202.46L175.03,199.21L177.87,196.01L180.76,192.85L183.7,189.75L186.7,186.7L189.75,183.7L192.85,180.76L196.01,177.87L199.21,175.03L202.46,172.25L205.76,169.53L209.11,166.87L212.5,164.27L215.94,161.72L219.42,159.24L222.95,156.81L226.52,154.45L230.12,152.16L233.77,149.92L237.46,147.75L241.18,145.64L244.94,143.6L248.73,141.63L252.56,139.72L256.42,137.88L260.31,136.1L264.24,134.4L268.19,132.76L272.17,131.19L276.18,129.69L280.21,128.27L284.26,126.91L288.34,125.62L292.45,124.41L296.57,123.26L300.71,122.19L304.87,121.2L309.04,120.27L313.24,119.42L317.44,118.64L321.66,117.93L325.89,117.3L330.13,116.74L334.38,116.26L338.64,115.85L342.9,115.51L347.17,115.25L351.45,115.06L355.72,114.95L360,114.91" clip-path="url(#clipc0b0f4polar-for-traces)" style="vector-effect: none; fill: none; stroke: rgb(128, 128, 128); stroke-opacity: 1; stroke-dasharray: 3px, 3px; stroke-width: 1.5px; opacity: 1;"/></g><g class="points" clip-path="url(#clipc0b0f4polar-for-traces)"/><g class="text" clip-path="url(#clipc0b0f4polar-for-traces)"/></g><g class="trace scatter trace05d970" style="stroke-miterlimit: 2; opacity: 1;"><g class="fills" clip-path="url(#clipc0b0f4polar-for-traces)"><g><path class="js-fill" d="M360,198.87L529.53,262.12L580.9,487.54L360,537.12L244.6,426.63L259.13,301.76L360,198.87Z" style="fill: rgb(255, 127, 14); fill-opacity: 0.5; stroke-width: 0;"/></g></g><g class="errorbars"/><g class="lines"><path class="js-line" d="M360,198.87L529.53,262.12L580.9,487.54L360,537.12L244.6,426.63L259.13,301.76L360,198.87" clip-path="url(#clipc0b0f4polar-for-traces)" style="vector-effect: none; fill: none; stroke: rgb(255, 127, 14); stroke-opacity: 1; stroke-width: 2px; opacity: 1;"/></g><g class="points"><path class="point plotly-customdata" transform="translate(360,198.87)" d="M3,0A3,3 0 1,1 0,-3A3,3 0 0,1 3,0Z" style="opacity: 1; stroke-width: 0px; fill: rgb(255, 127, 14); fill-opacity: 1;"/><path class="point plotly-customdata" transform="translate(529.53,262.12)" d="M3,0A3,3 0 1,1 0,-3A3,3 0 0,1 3,0Z" style="opacity: 1; stroke-width: 0px; fill: rgb(255, 127, 14); fill-opacity: 1;"/><path class="point plotly-customdata" transform="translate(580.9,487.54)" d="M3,0A3,3 0 1,1 0,-3A3,3 0 0,1 3,0Z" style="opacity: 1; stroke-width: 0px; fill: rgb(255, 127, 14); fill-opacity: 1;"/><path class="point plotly-customdata" transform="translate(360,537.12)" d="M3,0A3,3 0 1,1 0,-3A3,3 0 0,1 3,0Z" style="opacity: 1; stroke-width: 0px; fill: rgb(255, 127, 14); fill-opacity: 1;"/><path class="point plotly-customdata" transform="translate(244.6,426.63)" d="M3,0A3,3 0 1,1 0,-3A3,3 0 0,1 3,0Z" style="opacity: 1; stroke-width: 0px; fill: rgb(255, 127, 14); fill-opacity: 1;"/><path class="point plotly-customdata" transform="translate(259.13,301.76)" d="M3,0A3,3 0 1,1 0,-3A3,3 0 0,1 3,0Z" style="opacity: 1; stroke-width: 0px; fill: rgb(255, 127, 14); fill-opacity: 1;"/><path class="point plotly-customdata" transform="translate(360,198.87)" d="M3,0A3,3 0 1,1 0,-3A3,3 0 0,1 3,0Z" style="opacity: 1; stroke-width: 0px; fill: rgb(255, 127, 14); fill-opacity: 1;"/></g><g class="text"/></g><g class="trace scatter trace40694e" style="stroke-miterlimit: 2; opacity: 1;"><g class="fills" clip-path="url(#clipc0b0f4polar-for-traces)"><g><path class="js-fill" d="M360,145.43L549.44,250.63L597.48,497.11L360,543.88L221.67,439.86L206.45,271.35L360,145.43Z" style="fill: rgb(44, 160, 44); fill-opacity: 0.5; stroke-width: 0;"/></g></g><g class="errorbars"/><g class="lines"><path class="js-line" d="M360,145.43L549.44,250.63L597.48,497.11L360,543.88L221.67,439.86L206.45,271.35L360,145.43" clip-path="url(#clipc0b0f4polar-for-traces)" style="vector-effect: none; fill: none; stroke: rgb(44, 160, 44); stroke-opacity: 1; stroke-width: 2px; opacity: 1;"/></g><g class="points"><path class="point plotly-customdata" transform="translate(360,145.43)" d="M3,0A3,3 0 1,1 0,-3A3,3 0 0,1 3,0Z" style="opacity: 1; stroke-width: 0px; fill: rgb(44, 160, 44); fill-opacity: 1;"/><path class="point plotly-customdata" transform="translate(549.44,250.63)" d="M3,0A3,3 0 1,1 0,-3A3,3 0 0,1 3,0Z" style="opacity: 1; stroke-width: 0px; fill: rgb(44, 160, 44); fill-opacity: 1;"/><path class="point plotly-customdata" transform="translate(597.48,497.11)" d="M3,0A3,3 0 1,1 0,-3A3,3 0 0,1 3,0Z" style="opacity: 1; stroke-width: 0px; fill: rgb(44, 160, 44); fill-opacity: 1;"/><path class="point plotly-customdata" transform="translate(360,543.88)" d="M3,0A3,3 0 1,1 0,-3A3,3 0 0,1 3,0Z" style="opacity: 1; stroke-width: 0px; fill: rgb(44, 160, 44); fill-opacity: 1;"/><path class="point plotly-customdata" transform="translate(221.67,439.86)" d="M3,0A3,3 0 1,1 0,-3A3,3 0 0,1 3,0Z" style="opacity: 1; stroke-width: 0px; fill: rgb(44, 160, 44); fill-opacity: 1;"/><path class="point plotly-customdata" transform="translate(206.45,271.35)" d="M3,0A3,3 0 1,1 0,-3A3,3 0 0,1 3,0Z" style="opacity: 1; stroke-width: 0px; fill: rgb(44, 160, 44); fill-opacity: 1;"/><path class="point plotly-customdata" transform="translate(360,145.43)" d="M3,0A3,3 0 1,1 0,-3A3,3 0 0,1 3,0Z" style="opacity: 1; stroke-width: 0px; fill: rgb(44, 160, 44); fill-opacity: 1;"/></g><g class="text"/></g></g></g><g class="polarsublayer angular-line"><path d="M360,0A360,360 0,1,0 -360,-4.4087284769304716e-14A360,360 0,1,0 360,8.817456953860943e-14Z" transform="translate(732,460)" stroke-width="1" style="fill: none; stroke: rgb(255, 255, 255); stroke-opacity: 1;"/></g><g class="polarsublayer radial-line"><line x1="0" y1="0" x2="360" y2="0" transform="translate(732,460)" stroke-width="1" style="fill: none; stroke: rgb(255, 255, 255); stroke-opacity: 1;"/></g><g class="polarsublayer angular-axis"><g class="angularaxistick"><text text-anchor="middle" x="1.7757378587636624e-16" y="-5.300000000000001" transform="translate(732,100)translate(0,-15.600000000000001)" style="font-family: 'Vazirmatn FD'; font-size: 12px; fill: rgb(42, 63, 95); fill-opacity: 1; white-space: pre;"><tspan class="line" dy="0em" x="1.7757378587636624e-16" y="-5.300000000000001">سامانه‌های پیوسته</tspan><tspan class="line" dy="1.3em" x="1.7757378587636624e-16" y="-5.300000000000001">و آماری</tspan></text></g><g class="angularaxistick"><text text-anchor="start" x="2.511473670974872" y="0.9873066958946413" transform="translate(1043.769145362398,280)translate(0,-11.700000000000001)" style="font-family: 'Vazirmatn FD'; font-size: 12px; fill: rgb(42, 63, 95); fill-opacity: 1; white-space: pre;"><tspan class="line" dy="0em" x="2.511473670974872" y="0.9873066958946413">علم مواد و</tspan><tspan class="line" dy="1.3em" x="2.511473670974872" y="0.9873066958946413">انرژی</tspan></text></g><g class="angularaxistick"><text text-anchor="start" x="2.5114736709748726" y="11.08730669589464" transform="translate(1043.769145362398,640)translate(0,-3.900000000000002)" style="font-family: 'Vazirmatn FD'; font-size: 12px; fill: rgb(42, 63, 95); fill-opacity: 1; white-space: pre;"><tspan class="line" dy="0em" x="2.5114736709748726" y="11.08730669589464">فیزیک ذرات، میدان‌ها</tspan><tspan class="line" dy="1.3em" x="2.5114736709748726" y="11.08730669589464">و کیهان‌شناسی</tspan></text></g><g class="angularaxistick"><text text-anchor="middle" x="1.7757378587636624e-16" y="14.9" transform="translate(732,820)" style="font-family: 'Vazirmatn FD'; font-size: 12px; fill: rgb(42, 63, 95); fill-opacity: 1; white-space: pre;"><tspan class="line" dy="0em" x="1.7757378587636624e-16" y="14.9">فیزیک نور و </tspan><tspan class="line" dy="1.3em" x="1.7757378587636624e-16" y="14.9">برهم‌کنش نور و ماده</tspan></text></g><g class="angularaxistick"><text text-anchor="end" x="-2.5114736709748717" y="11.087306695894647" transform="translate(420.23085463760214,640.0000000000001)translate(0,-3.8999999999999977)" style="font-family: 'Vazirmatn FD'; font-size: 12px; fill: rgb(42, 63, 95); fill-opacity: 1; white-space: pre;"><tspan class="line" dy="0em" x="-2.5114736709748717" y="11.087306695894647">نجوم و</tspan><tspan class="line" dy="1.3em" x="-2.5114736709748717" y="11.087306695894647">اخترفیزیک</tspan></text></g><g class="angularaxistick"><text text-anchor="end" x="-2.511473670974872" y="0.9873066958946408" transform="translate(420.2308546376021,280)translate(0,-11.700000000000001)" style="font-family: 'Vazirmatn FD'; font-size: 12px; fill: rgb(42, 63, 95); fill-opacity: 1; white-space: pre;"><tspan class="line" dy="0em" x="-2.511473670974872" y="0.9873066958946408">‬‬علوم داده، اطلاعات کوانتمی</tspan><tspan class="line" dy="1.3em" x="-2.511473670974872" y="0.9873066958946408">و یادگیری ماشین‬</tspan></text></g></g><g class="polarsublayer radial-axis" transform="translate(732,460)"><path class="xtick ticks" d="M0,0.5v5" transform="" style="stroke: rgb(68, 68, 68); stroke-opacity: 1; stroke-width: 1px;"/><path class="xtick ticks" d="M0,0.5v5" transform="translate(49.02,0)" style="stroke: rgb(68, 68, 68); stroke-opacity: 1; stroke-width: 1px;"/><path class="xtick ticks" d="M0,0.5v5" transform="translate(98.03,0)" style="stroke: rgb(68, 68, 68); stroke-opacity: 1; stroke-width: 1px;"/><path class="xtick ticks" d="M0,0.5v5" transform="translate(147.05,0)" style="stroke: rgb(68, 68, 68); stroke-opacity: 1; stroke-width: 1px;"/><path class="xtick ticks" d="M0,0.5v5" transform="translate(196.07,0)" style="stroke: rgb(68, 68, 68); stroke-opacity: 1; stroke-width: 1px;"/><path class="xtick ticks" d="M0,0.5v5" transform="translate(245.09,0)" style="stroke: rgb(68, 68, 68); stroke-opacity: 1; stroke-width: 1px;"/><path class="xtick ticks" d="M0,0.5v5" transform="translate(294.1,0)" style="stroke: rgb(68, 68, 68); stroke-opacity: 1; stroke-width: 1px;"/><path class="xtick ticks" d="M0,0.5v5" transform="translate(343.12,0)" style="stroke: rgb(68, 68, 68); stroke-opacity: 1; stroke-width: 1px;"/><g class="xtick"><text text-anchor="middle" x="0" y="19.9" transform="" style="font-family: 'Vazirmatn FD'; font-size: 12px; fill: rgb(42, 63, 95); fill-opacity: 1; white-space: pre;">0</text></g><g class="xtick"><text text-anchor="middle" x="0" y="19.9" transform="translate(49.02,0)" style="font-family: 'Vazirmatn FD'; font-size: 12px; fill: rgb(42, 63, 95); fill-opacity: 1; white-space: pre;">0.2</text></g><g class="xtick"><text text-anchor="middle" x="0" y="19.9" transform="translate(98.03,0)" style="font-family: 'Vazirmatn FD'; font-size: 12px; fill: rgb(42, 63, 95); fill-opacity: 1; white-space: pre;">0.4</text></g><g class="xtick"><text text-anchor="middle" x="0" y="19.9" transform="translate(147.05,0)" style="font-family: 'Vazirmatn FD'; font-size: 12px; fill: rgb(42, 63, 95); fill-opacity: 1; white-space: pre;">0.6</text></g><g class="xtick"><text text-anchor="middle" x="0" y="19.9" transform="translate(196.07,0)" style="font-family: 'Vazirmatn FD'; font-size: 12px; fill: rgb(42, 63, 95); fill-opacity: 1; white-space: pre;">0.8</text></g><g class="xtick"><text text-anchor="middle" x="0" y="19.9" transform="translate(245.09,0)" style="font-family: 'Vazirmatn FD'; font-size: 12px; fill: rgb(42, 63, 95); fill-opacity: 1; white-space: pre;">1</text></g><g class="xtick"><text text-anchor="middle" x="0" y="19.9" transform="translate(294.1,0)" style="font-family: 'Vazirmatn FD'; font-size: 12px; fill: rgb(42, 63, 95); fill-opacity: 1; white-space: pre;">1.2</text></g><g class="xtick"><text text-anchor="middle" x="0" y="19.9" transform="translate(343.12,0)" style="font-family: 'Vazirmatn FD'; font-size: 12px; fill: rgb(42, 63, 95); fill-opacity: 1; white-space: pre;">1.4</text></g></g></g></g><g class="smithlayer"/><g class="ternarylayer"/><g class="geolayer"/><g class="funnelarealayer"/><g class="pielayer"/><g class="iciclelayer"/><g class="treemaplayer"/><g class="sunburstlayer"/><g class="glimages"/><defs id="topdefs-c0b0f4"><g class="clips"/><clipPath id="legendc0b0f4"><rect width="178" height="67" x="0" y="0"/></clipPath></defs><g class="layer-above"><g class="imagelayer"/><g class="shapelayer"/></g><g class="infolayer"><g class="legend" pointer-events="all" transform="translate(1410.08,100)"><rect class="bg" shape-rendering="crispEdges" style="stroke: rgb(68, 68, 68); stroke-opacity: 1; fill: rgb(255, 255, 255); fill-opacity: 1; stroke-width: 0px;" width="178" height="67" x="0" y="0"/><g class="scrollbox" transform="" clip-path="url(#legendc0b0f4)"><g class="groups"><g class="traces" transform="translate(0,14.5)" style="opacity: 1;"><text class="legendtext" text-anchor="start" x="40" y="4.680000000000001" style="font-family: 'Vazirmatn FD'; font-size: 12px; fill: rgb(42, 63, 95); fill-opacity: 1; white-space: pre;">CNCI = 1 (world baseline)</text><g class="layers" style="opacity: 1;"><g class="legendfill"/><g class="legendlines"><path class="js-line" d="M5,0h30" style="fill: none; stroke: rgb(128, 128, 128); stroke-opacity: 1; stroke-dasharray: 3px, 3px; stroke-width: 1.5px;"/></g><g class="legendsymbols"><g class="legendpoints"/></g></g><rect class="legendtoggle" x="0" y="-9.5" width="172.859375" height="19" style="fill: rgb(0, 0, 0); fill-opacity: 0;"/></g><g class="traces" transform="translate(0,33.5)" style="opacity: 1;"><text class="legendtext" text-anchor="start" x="40" y="4.680000000000001" style="font-family: 'Vazirmatn FD'; font-size: 12px; fill: rgb(42, 63, 95); fill-opacity: 1; white-space: pre;">2015–2018</text><g class="layers" style="opacity: 1;"><g class="legendfill"><path class="js-fill" d="M5,0h30v6h-30z" style="stroke-width: 0; fill: rgb(255, 127, 14); fill-opacity: 0.5;"/></g><g class="legendlines"><path class="js-line" d="M5,0h30" style="fill: none; stroke: rgb(255, 127, 14); stroke-opacity: 1; stroke-width: 2px;"/></g><g class="legendsymbols"><g class="legendpoints"><path class="scatterpts" transform="translate(20,0)" d="M3,0A3,3 0 1,1 0,-3A3,3 0 0,1 3,0Z" style="opacity: 1; stroke-width: 0px; fill: rgb(255, 127, 14); fill-opacity: 1;"/></g></g></g><rect class="legendtoggle" x="0" y="-9.5" width="172.859375" height="19" style="fill: rgb(0, 0, 0); fill-opacity: 0;"/></g><g class="traces" transform="translate(0,52.5)" style="opacity: 1;"><text class="legendtext" text-anchor="start" x="40" y="4.680000000000001" style="font-family: 'Vazirmatn FD'; font-size: 12px; fill: rgb(42, 63, 95); fill-opacity: 1; white-space: pre;">2022–2025</text><g class="layers" style="opacity: 1;"><g class="legendfill"><path class="js-fill" d="M5,0h30v6h-30z" style="stroke-width: 0; fill: rgb(44, 160, 44); fill-opacity: 0.5;"/></g><g class="legendlines"><path class="js-line" d="M5,0h30" style="fill: none; stroke: rgb(44, 160, 44); stroke-opacity: 1; stroke-width: 2px;"/></g><g class="legendsymbols"><g class="legendpoints"><path class="scatterpts" transform="translate(20,0)" d="M3,0A3,3 0 1,1 0,-3A3,3 0 0,1 3,0Z" style="opacity: 1; stroke-width: 0px; fill: rgb(44, 160, 44); fill-opacity: 1;"/></g></g></g><rect class="legendtoggle" x="0" y="-9.5" width="172.859375" height="19" style="fill: rgb(0, 0, 0); fill-opacity: 0;"/></g></g></g><rect class="scrollbar" rx="20" ry="3" width="0" height="0" style="fill: rgb(128, 139, 164); fill-opacity: 1;" x="0" y="0"/></g><g class="g-gtitle"><text class="gtitle" x="732" y="45" text-anchor="middle" dy="0.7em" style="opacity: 1; font-family: 'Vazirmatn FD Black'; font-size: 17px; fill: rgb(42, 63, 95); fill-opacity: 1; white-space: pre;">تأثیر استنادی نرمال‌شده در دسته‌بندی‌های استنادی فیزیک</text></g><g class="g-polartitle"/></g></svg>