<svg class="main-svg" xmlns="http://www.w3.org/2000/svg" xmlns:xlink="http://www.w3.org/1999/xlink" width="700" height="500" style="" viewBox="0 0 700 500"><rect x="0" y="0" width="700" height="500" style="fill: rgb(255, 255, 255); fill-opacity: 1;"/><defs id="defs-47a937"><g class="clips"><clipPath id="clip47a937polar-for-traces"><path d="M160,0A160,160 0,1,0 -160,-1.9594348786357652e-14A160,160 0,1,0 160,3.9188697572715304e-14Z" transform="translate(160,160)"/></clipPath></g><g class="gradients"/><g class="patterns"/></defs><g class="bglayer"/><g class="layer-below"><g class="imagelayer"/><g class="shapelayer"/></g><g class="cartesianlayer"/><g class="polarlayer"><g class="polar"><g class="polarsublayer draglayer"/><g class="polarsublayer plotbg"><path d="M160,0A160,160 0,1,0 -160,-1.9594348786357652e-14A160,160 0,1,0 160,3.9188697572715304e-14Z" transform="translate(291,260)" style="fill: rgb(229, 236, 246); fill-opacity: 1;"/></g><g class="polarsublayer backplot"><g class="maplayer"/></g><g class="polarsublayer angular-grid" style="fill: none;"><path class="angularaxisgrid" d="M291,260L291,100" style="stroke: rgb(255, 255, 255); stroke-opacity: 1; stroke-width: 1px;"/><path class="angularaxisgrid" d="M291,260L429.56406460551017,180" style="stroke: rgb(255, 255, 255); stroke-opacity: 1; stroke-width: 1px;"/><path class="angularaxisgrid" d="M291,260L429.5640646055102,340" style="stroke: rgb(255, 255, 255); stroke-opacity: 1; stroke-width: 1px;"/><path class="angularaxisgrid" d="M291,260L291,420" style="stroke: rgb(255, 255, 255); stroke-opacity: 1; stroke-width: 1px;"/><path class="angularaxisgrid" d="M291,260L152.43593539448983,340.00000000000006" style="stroke: rgb(255, 255, 255); stroke-opacity: 1; stroke-width: 1px;"/><path class="angularaxisgrid" d="M291,260L152.43593539448983,180" style="stroke: rgb(255, 255, 255); stroke-opacity: 1; stroke-width: 1px;"/></g><g class="polarsublayer radial-grid" transform="translate(291,260)" style="fill: none;"><path class="xgrid" d="M21.79,0A21.79,21.79 0,1,0 -21.79,-2.6685053753420825e-15A21.79,21.79 0,1,0 21.79,5.337010750684165e-15Z" style="stroke: rgb(255, 255, 255); stroke-opacity: 1; stroke-width: 1px;"/><path class="xgrid" d="M43.57,0A43.57,43.57 0,1,0 -43.57,-5.335786103885018e-15A43.57,43.57 0,1,0 43.57,1.0671572207770037e-14Z" style="stroke: rgb(255, 255, 255); stroke-opacity: 1; stroke-width: 1px;"/><path class="xgrid" d="M65.36,0A65.36,65.36 0,1,0 -65.36,-8.0042914792271e-15A65.36,65.36 0,1,0 65.36,1.60085829584542e-14Z" style="stroke: rgb(255, 255, 255); stroke-opacity: 1; stroke-width: 1px;"/><path class="xgrid" d="M87.14,0A87.14,87.14 0,1,0 -87.14,-1.0671572207770037e-14A87.14,87.14 0,1,0 87.14,2.1343144415540073e-14Z" style="stroke: rgb(255, 255, 255); stroke-opacity: 1; stroke-width: 1px;"/><path class="xgrid" d="M108.93,0A108.93,108.93 0,1,0 -108.93,-1.334007758311212e-14A108.93,108.93 0,1,0 108.93,2.668015516622424e-14Z" style="stroke: rgb(255, 255, 255); stroke-opacity: 1; stroke-width: 1px;"/><path class="xgrid" d="M130.71,0A130.71,130.71 0,1,0 -130.71,-1.6007358311655056e-14A130.71,130.71 0,1,0 130.71,3.201471662331011e-14Z" style="stroke: rgb(255, 255, 255); stroke-opacity: 1; stroke-width: 1px;"/><path class="xgrid" d="M152.5,0A152.5,152.5 0,1,0 -152.5,-1.8675863686997135e-14A152.5,152.5 0,1,0 152.5,3.735172737399427e-14Z" style="stroke: rgb(255, 255, 255); stroke-opacity: 1; stroke-width: 1px;"/></g><g class="polarsublayer frontplot" transform="translate(131,100)"><g class="barlayer"/><g class="scatterlayer"><g class="trace scatter tracec4ea38" style="stroke-miterlimit: 2; opacity: 0.5;"><g class="fills" clip-path="url(#clip47a937polar-for-traces)"/><g class="errorbars"/><g class="lines"><path class="js-line" d="M160,51.07L161.9,51.09L163.8,51.14L165.7,51.22L167.6,51.34L169.49,51.49L171.39,51.67L173.27,51.88L175.16,52.13L177.04,52.41L178.92,52.73L180.78,53.07L182.65,53.45L184.5,53.86L186.35,54.31L188.19,54.78L190.02,55.29L191.85,55.83L193.66,56.4L195.46,57.01L197.26,57.64L199.04,58.31L200.8,59L202.56,59.73L204.3,60.49L206.03,61.28L207.75,62.1L209.45,62.95L211.14,63.82L212.81,64.73L214.46,65.67L216.1,66.63L217.72,67.62L219.33,68.65L220.91,69.7L222.48,70.77L224.03,71.88L225.55,73.01L227.06,74.16L228.55,75.35L230.02,76.56L231.46,77.79L232.89,79.05L234.29,80.34L235.67,81.64L237.02,82.98L238.36,84.33L239.66,85.71L240.95,87.11L242.21,88.54L243.44,89.98L244.65,91.45L245.84,92.94L246.99,94.45L248.12,95.97L249.23,97.52L250.3,99.09L251.35,100.67L252.38,102.28L253.37,103.9L254.33,105.54L255.27,107.19L256.18,108.86L257.05,110.55L257.9,112.25L258.72,113.97L259.51,115.7L260.27,117.44L261,119.2L261.69,120.96L262.36,122.74L262.99,124.54L263.6,126.34L264.17,128.15L264.71,129.98L265.22,131.81L265.69,133.65L266.14,135.5L266.55,137.35L266.93,139.22L267.27,141.08L267.59,142.96L267.87,144.84L268.12,146.73L268.33,148.61L268.51,150.51L268.66,152.4L268.78,154.3L268.86,156.2L268.91,158.1L268.93,160L268.91,161.9L268.86,163.8L268.78,165.7L268.66,167.6L268.51,169.49L268.33,171.39L268.12,173.27L267.87,175.16L267.59,177.04L267.27,178.92L266.93,180.78L266.55,182.65L266.14,184.5L265.69,186.35L265.22,188.19L264.71,190.02L264.17,191.85L263.6,193.66L262.99,195.46L262.36,197.26L261.69,199.04L261,200.8L260.27,202.56L259.51,204.3L258.72,206.03L257.9,207.75L257.05,209.45L256.18,211.14L255.27,212.81L254.33,214.46L253.37,216.1L252.38,217.72L251.35,219.33L250.3,220.91L249.23,222.48L248.12,224.03L246.99,225.55L245.84,227.06L244.65,228.55L243.44,230.02L242.21,231.46L240.95,232.89L239.66,234.29L238.36,235.67L237.02,237.02L235.67,238.36L234.29,239.66L232.89,240.95L231.46,242.21L230.02,243.44L228.55,244.65L227.06,245.84L225.55,246.99L224.03,248.12L222.48,249.23L220.91,250.3L219.33,251.35L217.72,252.38L216.1,253.37L214.46,254.33L212.81,255.27L211.14,256.18L209.45,257.05L207.75,257.9L206.03,258.72L204.3,259.51L202.56,260.27L200.8,261L199.04,261.69L197.26,262.36L195.46,262.99L193.66,263.6L191.85,264.17L190.02,264.71L188.19,265.22L186.35,265.69L184.5,266.14L182.65,266.55L180.78,266.93L178.92,267.27L177.04,267.59L175.16,267.87L173.27,268.12L171.39,268.33L169.49,268.51L167.6,268.66L165.7,268.78L163.8,268.86L161.9,268.91L160,268.93L158.1,268.91L156.2,268.86L154.3,268.78L152.4,268.66L150.51,268.51L148.61,268.33L146.73,268.12L144.84,267.87L142.96,267.59L141.08,267.27L139.22,266.93L137.35,266.55L135.5,266.14L133.65,265.69L131.81,265.22L129.98,264.71L128.15,264.17L126.34,263.6L124.54,262.99L122.74,262.36L120.96,261.69L119.2,261L117.44,260.27L115.7,259.51L113.97,258.72L112.25,257.9L110.55,257.05L108.86,256.18L107.19,255.27L105.54,254.33L103.9,253.37L102.28,252.38L100.67,251.35L99.09,250.3L97.52,249.23L95.97,248.12L94.45,246.99L92.94,245.84L91.45,244.65L89.98,243.44L88.54,242.21L87.11,240.95L85.71,239.66L84.33,238.36L82.98,237.02L81.64,235.67L80.34,234.29L79.05,232.89L77.79,231.46L76.56,230.02L75.35,228.55L74.16,227.06L73.01,225.55L71.88,224.03L70.77,222.48L69.7,220.91L68.65,219.33L67.62,217.72L66.63,216.1L65.67,214.46L64.73,212.81L63.82,211.14L62.95,209.45L62.1,207.75L61.28,206.03L60.49,204.3L59.73,202.56L59,200.8L58.31,199.04L57.64,197.26L57.01,195.46L56.4,193.66L55.83,191.85L55.29,190.02L54.78,188.19L54.31,186.35L53.86,184.5L53.45,182.65L53.07,180.78L52.73,178.92L52.41,177.04L52.13,175.16L51.88,173.27L51.67,171.39L51.49,169.49L51.34,167.6L51.22,165.7L51.14,163.8L51.09,161.9L51.07,160L51.09,158.1L51.14,156.2L51.22,154.3L51.34,152.4L51.49,150.51L51.67,148.61L51.88,146.73L52.13,144.84L52.41,142.96L52.73,141.08L53.07,139.22L53.45,137.35L53.86,135.5L54.31,133.65L54.78,131.81L55.29,129.98L55.83,128.15L56.4,126.34L57.01,124.54L57.64,122.74L58.31,120.96L59,119.2L59.73,117.44L60.49,115.7L61.28,113.97L62.1,112.25L62.95,110.55L63.82,108.86L64.73,107.19L65.67,105.54L66.63,103.9L67.62,102.28L68.65,100.67L69.7,99.09L70.77,97.52L71.88,95.97L73.01,94.45L74.16,92.94L75.35,91.45L76.56,89.98L77.79,88.54L79.05,87.11L80.34,85.71L81.64,84.33L82.98,82.98L84.33,81.64L85.71,80.34L87.11,79.05L88.54,77.79L89.98,76.56L91.45,75.35L92.94,74.16L94.45,73.01L95.97,71.88L97.52,70.77L99.09,69.7L100.67,68.65L102.28,67.62L103.9,66.63L105.54,65.67L107.19,64.73L108.86,63.82L110.55,62.95L112.25,62.1L113.97,61.28L115.7,60.49L117.44,59.73L119.2,59L120.96,58.31L122.74,57.64L124.54,57.01L126.34,56.4L128.15,55.83L129.98,55.29L131.81,54.78L133.65,54.31L135.5,53.86L137.35,53.45L139.22,53.07L141.08,52.73L142.96,52.41L144.84,52.13L146.73,51.88L148.61,51.67L150.51,51.49L152.4,51.34L154.3,51.22L156.2,51.14L158.1,51.09L160,51.07" clip-path="url(#clip47a937polar-for-traces)" style="vector-effect: none; fill: none; stroke: rgb(128, 128, 128); stroke-opacity: 1; stroke-dasharray: 3px, 3px; stroke-width: 1.5px; opacity: 1;"/></g><g class="points" clip-path="url(#clip47a937polar-for-traces)"/><g class="text" clip-path="url(#clip47a937polar-for-traces)"/></g><g class="trace scatter tracedb6f6b" style="stroke-miterlimit: 2; opacity: 0.5;"><g class="fills" clip-path="url(#clip47a937polar-for-traces)"><g><path class="js-fill" d="M160,88.39L235.35,116.5L258.18,216.68L160,238.72L108.71,189.61L115.17,134.12L160,88.39Z" style="fill: rgb(255, 127, 14); fill-opacity: 0.5; stroke-width: 0;"/></g></g><g class="errorbars"/><g class="lines"><path class="js-line" d="M160,88.39L235.35,116.5L258.18,216.68L160,238.72L108.71,189.61L115.17,134.12L160,88.39" clip-path="url(#clip47a937polar-for-traces)" style="vector-effect: none; fill: none; stroke: rgb(255, 127, 14); stroke-opacity: 1; stroke-width: 2px; opacity: 1;"/></g><g class="points"><path class="point plotly-customdata" transform="translate(160,88.39)" d="M3,0A3,3 0 1,1 0,-3A3,3 0 0,1 3,0Z" style="opacity: 1; stroke-width: 0px; fill: rgb(255, 127, 14); fill-opacity: 1;"/><path class="point plotly-customdata" transform="translate(235.35,116.5)" d="M3,0A3,3 0 1,1 0,-3A3,3 0 0,1 3,0Z" style="opacity: 1; stroke-width: 0px; fill: rgb(255, 127, 14); fill-opacity: 1;"/><path class="point plotly-customdata" transform="translate(258.18,216.68)" d="M3,0A3,3 0 1,1 0,-3A3,3 0 0,1 3,0Z" style="opacity: 1; stroke-width: 0px; fill: rgb(255, 127, 14); fill-opacity: 1;"/><path class="point plotly-customdata" transform="translate(160,238.72)" d="M3,0A3,3 0 1,1 0,-3A3,3 0 0,1 3,0Z" style="opacity: 1; stroke-width: 0px; fill: rgb(255, 127, 14); fill-opacity: 1;"/><path class="point plotly-customdata" transform="translate(108.71,189.61)" d="M3,0A3,3 0 1,1 0,-3A3,3 0 0,1 3,0Z" style="opacity: 1; stroke-width: 0px; fill: rgb(255, 127, 14); fill-opacity: 1;"/><path class="point plotly-customdata" transform="translate(115.17,134.12)" d="M3,0A3,3 0 1,1 0,-3A3,3 0 0,1 3,0Z" style="opacity: 1; stroke-width: 0px; fill: rgb(255, 127, 14); fill-opacity: 1;"/><path class="point plotly-customdata" transform="translate(160,88.39)" d="M3,0A3,3 0 1,1 0,-3A3,3 0 0,1 3,0Z" style="opacity: 1; stroke-width: 0px; fill: rgb(255, 127, 14); fill-opacity: 1;"/></g><g class="text"/></g><g class="trace scatter traceb28eba" style="stroke-miterlimit: 2; opacity: 0.5;"><g class="fills" clip-path="url(#clip47a937polar-for-traces)"><g><path class="js-fill" d="M160,87.66L240.84,113.33L264.7,220.45L160,242.57L100.73,194.22L115.54,134.33L160,87.66Z" style="fill: rgb(44, 160, 44); fill-opacity: 0.5; stroke-width: 0;"/></g></g><g class="errorbars"/><g class="lines"><path class="js-line" d="M160,87.66L240.84,113.33L264.7,220.45L160,242.57L100.73,194.22L115.54,134.33L160,87.66" clip-path="url(#clip47a937polar-for-traces)" style="vector-effect: none; fill: none; stroke: rgb(44, 160, 44); stroke-opacity: 1; stroke-width: 2px; opacity: 1;"/></g><g class="points"><path class="point plotly-customdata" transform="translate(160,87.66)" d="M3,0A3,3 0 1,1 0,-3A3,3 0 0,1 3,0Z" style="opacity: 1; stroke-width: 0px; fill: rgb(44, 160, 44); fill-opacity: 1;"/><path class="point plotly-customdata" transform="translate(240.84,113.33)" d="M3,0A3,3 0 1,1 0,-3A3,3 0 0,1 3,0Z" style="opacity: 1; stroke-width: 0px; fill: rgb(44, 160, 44); fill-opacity: 1;"/><path class="point plotly-customdata" transform="translate(264.7,220.45)" d="M3,0A3,3 0 1,1 0,-3A3,3 0 0,1 3,0Z" style="opacity: 1; stroke-width: 0px; fill: rgb(44, 160, 44); fill-opacity: 1;"/><path class="point plotly-customdata" transform="translate(160,242.57)" d="M3,0A3,3 0 1,1 0,-3A3,3 0 0,1 3,0Z" style="opacity: 1; stroke-width: 0px; fill: rgb(44, 160, 44); fill-opacity: 1;"/><path class="point plotly-customdata" transform="translate(100.73,194.22)" d="M3,0A3,3 0 1,1 0,-3A3,3 0 0,1 3,0Z" style="opacity: 1; stroke-width: 0px; fill: rgb(44, 160, 44); fill-opacity: 1;"/><path class="point plotly-customdata" transform="translate(115.54,134.33)" d="M3,0A3,3 0 1,1 0,-3A3,3 0 0,1 3,0Z" style="opacity: 1; stroke-width: 0px; fill: rgb(44, 160, 44); fill-opacity: 1;"/><path class="point plotly-customdata" transform="translate(160,87.66)" d="M3,0A3,3 0 1,1 0,-3A3,3 0 0,1 3,0Z" style="opacity: 1; stroke-width: 0px; fill: rgb(44, 160, 44); fill-opacity: 1;"/></g><g class="text"/></g><g class="trace scatter trace770ff2" style="stroke-miterlimit: 2; opacity: 0.5;"><g class="fills" clip-path="url(#clip47a937polar-for-traces)"><g><path class="js-fill" d="M160,64.63L244.19,111.39L265.55,220.94L160,241.72L98.52,195.49L91.75,120.6L160,64.63Z" style="fill: rgb(188, 189, 34); fill-opacity: 0.5; stroke-width: 0;"/></g></g><g class="errorbars"/><g class="lines"><path class="js-line" d="M160,64.63L244.19,111.39L265.55,220.94L160,241.72L98.52,195.49L91.75,120.6L160,64.63" clip-path="url(#clip47a937polar-for-traces)" style="vector-effect: none; fill: none; stroke: rgb(188, 189, 34); stroke-opacity: 1; stroke-width: 2px; opacity: 1;"/></g><g class="points"><path class="point plotly-customdata" transform="translate(160,64.63)" d="M3,0A3,3 0 1,1 0,-3A3,3 0 0,1 3,0Z" style="opacity: 1; stroke-width: 0px; fill: rgb(188, 189, 34); fill-opacity: 1;"/><path class="point plotly-customdata" transform="translate(244.19,111.39)" d="M3,0A3,3 0 1,1 0,-3A3,3 0 0,1 3,0Z" style="opacity: 1; stroke-width: 0px; fill: rgb(188, 189, 34); fill-opacity: 1;"/><path class="point plotly-customdata" transform="translate(265.55,220.94)" d="M3,0A3,3 0 1,1 0,-3A3,3 0 0,1 3,0Z" style="opacity: 1; stroke-width: 0px; fill: rgb(188, 189, 34); fill-opacity: 1;"/><path class="point plotly-customdata" transform="translate(160,241.72)" d="M3,0A3,3 0 1,1 0,-3A3,3 0 0,1 3,0Z" style="opacity: 1; stroke-width: 0px; fill: rgb(188, 189, 34); fill-opacity: 1;"/><path class="point plotly-customdata" transform="translate(98.52,195.49)" d="M3,0A3,3 0 1,1 0,-3A3,3 0 0,1 3,0Z" style="opacity: 1; stroke-width: 0px; fill: rgb(188, 189, 34); fill-opacity: 1;"/><path class="point plotly-customdata" transform="translate(91.75,120.6)" d="M3,0A3,3 0 1,1 0,-3A3,3 0 0,1 3,0Z" style="opacity: 1; stroke-width: 0px; fill: rgb(188, 189, 34); fill-opacity: 1;"/><path class="point plotly-customdata" transform="translate(160,64.63)" d="M3,0A3,3 0 1,1 0,-3A3,3 0 0,1 3,0Z" style="opacity: 1; stroke-width: 0px; fill: rgb(188, 189, 34); fill-opacity: 1;"/></g><g class="text"/></g></g></g><g class="polarsublayer angular-line"><path d="M160,0A160,160 0,1,0 -160,-1.9594348786357652e-14A160,160 0,1,0 160,3.9188697572715304e-14Z" transform="translate(291,260)" stroke-width="1" style="fill: none; stroke: rgb(255, 255, 255); stroke-opacity: 1;"/></g><g class="polarsublayer radial-line"><line x1="0" y1="0" x2="160" y2="0" transform="translate(291,260)" stroke-width="1" style="fill: none; stroke: rgb(255, 255, 255); stroke-opacity: 1;"/></g><g class="polarsublayer angular-axis"><g class="angularaxistick"><text text-anchor="middle" x="1.7757378587636624e-16" y="-5.300000000000001" transform="translate(291,100)translate(0,-15.600000000000001)" style="font-family: 'Vazirmatn FD'; font-size: 12px; fill: rgb(42, 63, 95); fill-opacity: 1; white-space: pre;"><tspan class="line" dy="0em" x="1.7757378587636624e-16" y="-5.300000000000001">سامانه‌های پیوسته</tspan><tspan class="line" dy="1.3em" x="1.7757378587636624e-16" y="-5.300000000000001">و آماری</tspan></text></g><g class="angularaxistick"><text text-anchor="start" x="2.511473670974872" y="0.9873066958946413" transform="translate(429.56406460551017,180)translate(0,-11.700000000000001)" style="font-family: 'Vazirmatn FD'; font-size: 12px; fill: rgb(42, 63, 95); fill-opacity: 1; white-space: pre;"><tspan class="line" dy="0em" x="2.511473670974872" y="0.9873066958946413">علم مواد و</tspan><tspan class="line" dy="1.3em" x="2.511473670974872" y="0.9873066958946413">انرژی</tspan></text></g><g class="angularaxistick"><text text-anchor="start" x="2.5114736709748726" y="11.08730669589464" transform="translate(429.5640646055102,340)translate(0,-3.900000000000002)" style="font-family: 'Vazirmatn FD'; font-size: 12px; fill: rgb(42, 63, 95); fill-opacity: 1; white-space: pre;"><tspan class="line" dy="0em" x="2.5114736709748726" y="11.08730669589464">فیزیک ذرات، میدان‌ها</tspan><tspan class="line" dy="1.3em" x="2.5114736709748726" y="11.08730669589464">و کیهان‌شناسی</tspan></text></g><g class="angularaxistick"><text text-anchor="middle" x="1.7757378587636624e-16" y="14.9" transform="translate(291,420)" style="font-family: 'Vazirmatn FD'; font-size: 12px; fill: rgb(42, 63, 95); fill-opacity: 1; white-space: pre;"><tspan class="line" dy="0em" x="1.7757378587636624e-16" y="14.9">فیزیک نور و </tspan><tspan class="line" dy="1.3em" x="1.7757378587636624e-16" y="14.9">برهم‌کنش نور و ماده</tspan></text></g><g class="angularaxistick"><text text-anchor="end" x="-2.5114736709748717" y="11.087306695894647" transform="translate(152.43593539448983,340.00000000000006)translate(0,-3.8999999999999977)" style="font-family: 'Vazirmatn FD'; font-size: 12px; fill: rgb(42, 63, 95); fill-opacity: 1; white-space: pre;"><tspan class="line" dy="0em" x="-2.5114736709748717" y="11.087306695894647">نجوم و</tspan><tspan class="line" dy="1.3em" x="-2.5114736709748717" y="11.087306695894647">اخترفیزیک</tspan></text></g><g class="angularaxistick"><text text-anchor="end" x="-2.511473670974872" y="0.9873066958946408" transform="translate(152.43593539448983,180)translate(0,-11.700000000000001)" style="font-family: 'Vazirmatn FD'; font-size: 12px; fill: rgb(42, 63, 95); fill-opacity: 1; white-space: pre;"><tspan class="line" dy="0em" x="-2.511473670974872" y="0.9873066958946408">‬‬علوم داده، اطلاعات کوانتمی</tspan><tspan class="line" dy="1.3em" x="-2.511473670974872" y="0.9873066958946408">و یادگیری ماشین‬</tspan></text></g></g><g class="polarsublayer radial-axis" transform="translate(291,260)"><path class="xtick ticks" d="M0,0.5v5" transform="" style="stroke: rgb(68, 68, 68); stroke-opacity: 1; stroke-width: 1px;"/><path class="xtick ticks" d="M0,0.5v5" transform="translate(21.79,0)" style="stroke: rgb(68, 68, 68); stroke-opacity: 1; stroke-width: 1px;"/><path class="xtick ticks" d="M0,0.5v5" transform="translate(43.57,0)" style="stroke: rgb(68, 68, 68); stroke-opacity: 1; stroke-width: 1px;"/><path class="xtick ticks" d="M0,0.5v5" transform="translate(65.36,0)" style="stroke: rgb(68, 68, 68); stroke-opacity: 1; stroke-width: 1px;"/><path class="xtick ticks" d="M0,0.5v5" transform="translate(87.14,0)" style="stroke: rgb(68, 68, 68); stroke-opacity: 1; stroke-width: 1px;"/><path class="xtick ticks" d="M0,0.5v5" transform="translate(108.93,0)" style="stroke: rgb(68, 68, 68); stroke-opacity: 1; stroke-width: 1px;"/><path class="xtick ticks" d="M0,0.5v5" transform="translate(130.71,0)" style="stroke: rgb(68, 68, 68); stroke-opacity: 1; stroke-width: 1px;"/><path class="xtick ticks" d="M0,0.5v5" transform="translate(152.5,0)" style="stroke: rgb(68, 68, 68); stroke-opacity: 1; stroke-width: 1px;"/><g class="xtick"><text text-anchor="middle" x="0" y="19.9" transform="" style="font-family: 'Vazirmatn FD'; font-size: 12px; fill: rgb(42, 63, 95); fill-opacity: 1; white-space: pre;">0</text></g><g class="xtick"><text text-anchor="middle" x="0" y="19.9" transform="translate(21.79,0)" style="font-family: 'Vazirmatn FD'; font-size: 12px; fill: rgb(42, 63, 95); fill-opacity: 1; white-space: pre;">0.2</text></g><g class="xtick"><text text-anchor="middle" x="0" y="19.9" transform="translate(43.57,0)" style="font-family: 'Vazirmatn FD'; font-size: 12px; fill: rgb(42, 63, 95); fill-opacity: 1; white-space: pre;">0.4</text></g><g class="xtick"><text text-anchor="middle" x="0" y="19.9" transform="translate(65.36,0)" style="font-family: 'Vazirmatn FD'; font-size: 12px; fill: rgb(42, 63, 95); fill-opacity: 1; white-space: pre;">0.6</text></g><g class="xtick"><text text-anchor="middle" x="0" y="19.9" transform="translate(87.14,0)" style="font-family: 'Vazirmatn FD'; font-size: 12px; fill: rgb(42, 63, 95); fill-opacity: 1; white-space: pre;">0.8</text></g><g class="xtick"><text text-anchor="middle" x="0" y="19.9" transform="translate(108.93,0)" style="font-family: 'Vazirmatn FD'; font-size: 12px; fill: rgb(42, 63, 95); fill-opacity: 1; white-space: pre;">1</text></g><g class="xtick"><text text-anchor="middle" x="0" y="19.9" transform="translate(130.71,0)" style="font-family: 'Vazirmatn FD'; font-size: 12px; fill: rgb(42, 63, 95); fill-opacity: 1; white-space: pre;">1.2</text></g><g class="xtick"><text text-anchor="middle" x="0" y="19.9" transform="translate(152.5,0)" style="font-family: 'Vazirmatn FD'; font-size: 12px; fill: rgb(42, 63, 95); fill-opacity: 1; white-space: pre;">1.4</text></g></g></g></g><g class="smithlayer"/><g class="ternarylayer"/><g class="geolayer"/><g class="funnelarealayer"/><g class="pielayer"/><g class="iciclelayer"/><g class="treemaplayer"/><g class="sunburstlayer"/><g class="glimages"/><defs id="topdefs-47a937"><g class="clips"/><clipPath id="legend47a937"><rect width="178" height="86" x="0" y="0"/></clipPath></defs><g class="layer-above"><g class="imagelayer"/><g class="shapelayer"/></g><g class="infolayer"><g class="legend" pointer-events="all" transform="translate(510.44,100)"><rect class="bg" shape-rendering="crispEdges" style="stroke: rgb(68, 68, 68); stroke-opacity: 1; fill: rgb(255, 255, 255); fill-opacity: 1; stroke-width: 0px;" width="178" height="86" x="0" y="0"/><g class="scrollbox" transform="" clip-path="url(#legend47a937)"><g class="groups"><g class="traces" transform="translate(0,14.5)" style="opacity: 1;"><text class="legendtext" text-anchor="start" x="40" y="4.680000000000001" style="font-family: 'Vazirmatn FD'; font-size: 12px; fill: rgb(42, 63, 95); fill-opacity: 1; white-space: pre;">CNCI = 1 (world baseline)</text><g class="layers" style="opacity: 0.5;"><g class="legendfill"/><g class="legendlines"><path class="js-line" d="M5,0h30" style="fill: none; stroke: rgb(128, 128, 128); stroke-opacity: 1; stroke-dasharray: 3px, 3px; stroke-width: 1.5px;"/></g><g class="legendsymbols"><g class="legendpoints"/></g></g><rect class="legendtoggle" x="0" y="-9.5" width="172.859375" height="19" style="fill: rgb(0, 0, 0); fill-opacity: 0;"/></g><g class="traces" transform="translate(0,33.5)" style="opacity: 1;"><text class="legendtext" text-anchor="start" x="40" y="4.680000000000001" style="font-family: 'Vazirmatn FD'; font-size: 12px; fill: rgb(42, 63, 95); fill-opacity: 1; white-space: pre;">2015–2018</text><g class="layers" style="opacity: 0.5;"><g class="legendfill"><path class="js-fill" d="M5,0h30v6h-30z" style="stroke-width: 0; fill: rgb(255, 127, 14); fill-opacity: 0.5;"/></g><g class="legendlines"><path class="js-line" d="M5,0h30" style="fill: none; stroke: rgb(255, 127, 14); stroke-opacity: 1; stroke-width: 2px;"/></g><g class="legendsymbols"><g class="legendpoints"><path class="scatterpts" transform="translate(20,0)" d="M3,0A3,3 0 1,1 0,-3A3,3 0 0,1 3,0Z" style="opacity: 1; stroke-width: 0px; fill: rgb(255, 127, 14); fill-opacity: 1;"/></g></g></g><rect class="legendtoggle" x="0" y="-9.5" width="172.859375" height="19" style="fill: rgb(0, 0, 0); fill-opacity: 0;"/></g><g class="traces" transform="translate(0,52.5)" style="opacity: 1;"><text class="legendtext" text-anchor="start" x="40" y="4.680000000000001" style="font-family: 'Vazirmatn FD'; font-size: 12px; fill: rgb(42, 63, 95); fill-opacity: 1; white-space: pre;">2019–2021</text><g class="layers" style="opacity: 0.5;"><g class="legendfill"><path class="js-fill" d="M5,0h30v6h-30z" style="stroke-width: 0; fill: rgb(44, 160, 44); fill-opacity: 0.5;"/></g><g class="legendlines"><path class="js-line" d="M5,0h30" style="fill: none; stroke: rgb(44, 160, 44); stroke-opacity: 1; stroke-width: 2px;"/></g><g class="legendsymbols"><g class="legendpoints"><path class="scatterpts" transform="translate(20,0)" d="M3,0A3,3 0 1,1 0,-3A3,3 0 0,1 3,0Z" style="opacity: 1; stroke-width: 0px; fill: rgb(44, 160, 44); fill-opacity: 1;"/></g></g></g><rect class="legendtoggle" x="0" y="-9.5" width="172.859375" height="19" style="fill: rgb(0, 0, 0); fill-opacity: 0;"/></g><g class="traces" transform="translate(0,71.5)" style="opacity: 1;"><text class="legendtext" text-anchor="start" x="40" y="4.680000000000001" style="font-family: 'Vazirmatn FD'; font-size: 12px; fill: rgb(42, 63, 95); fill-opacity: 1; white-space: pre;">2022–2025</text><g class="layers" style="opacity: 0.5;"><g class="legendfill"><path class="js-fill" d="M5,0h30v6h-30z" style="stroke-width: 0; fill: rgb(188, 189, 34); fill-opacity: 0.5;"/></g><g class="legendlines"><path class="js-line" d="M5,0h30" style="fill: none; stroke: rgb(188, 189, 34); stroke-opacity: 1; stroke-width: 2px;"/></g><g class="legendsymbols"><g class="legendpoints"><path class="scatterpts" transform="translate(20,0)" d="M3,0A3,3 0 1,1 0,-3A3,3 0 0,1 3,0Z" style="opacity: 1; stroke-width: 0px; fill: rgb(188, 189, 34); fill-opacity: 1;"/></g></g></g><rect class="legendtoggle" x="0" y="-9.5" width="172.859375" height="19" style="fill: rgb(0, 0, 0); fill-opacity: 0;"/></g></g></g><rect class="scrollbar" rx="20" ry="3" width="0" height="0" style="fill: rgb(128, 139, 164); fill-opacity: 1;" x="0" y="0"/></g><g class="g-gtitle"><text class="gtitle" x="291" y="25" text-anchor="middle" dy="0.7em" style="opacity: 1; font-family: 'Vazirmatn FD Black'; font-size: 17px; fill: rgb(42, 63, 95); fill-opacity: 1; white-space: pre;">تأثیر استنادی نرمال‌شده در دسته‌بندی‌های استنادی فیزیک</text></g><g class="g-polartitle"/></g></svg>