<svg class="main-svg" xmlns="http://www.w3.org/2000/svg" xmlns:xlink="http://www.w3.org/1999/xlink" width="1600" height="900" style="" viewBox="0 0 1600 900"><rect x="0" y="0" width="1600" height="900" style="fill: rgb(255, 255, 255); fill-opacity: 1;"/><defs id="defs-7df4ab"><g class="clips"><clipPath id="clip7df4abxyplot" class="plotclip"><rect width="1340" height="772"/></clipPath><clipPath id="clip7df4abxy2plot" class="plotclip"><rect width="1340" height="772"/></clipPath><clipPath id="clip7df4abxyz2plot" class="plotclip"><rect width="1340" height="772"/></clipPath><clipPath id="clip7df4abxy2z2plot" class="plotclip"><rect width="1340" height="772"/></clipPath><clipPath class="axesclip" id="clip7df4abx"><rect x="60" y="0" width="1340" height="900"/></clipPath><clipPath class="axesclip" id="clip7df4aby"><rect x="0" y="70" width="1600" height="772"/></clipPath><clipPath class="axesclip" id="clip7df4abxy"><rect x="60" y="70" width="1340" height="772"/></clipPath><clipPath class="axesclip" id="clip7df4aby2"><rect x="0" y="70" width="1600" height="772"/></clipPath><clipPath class="axesclip" id="clip7df4abxy2"><rect x="60" y="70" width="1340" height="772"/></clipPath></g><g class="gradients"/><g class="patterns"/></defs><g class="bglayer"><rect class="bg" x="60" y="70" width="1340" height="772" style="fill: rgb(229, 236, 246); fill-opacity: 1; stroke-width: 0;"/><rect class="bg" x="60" y="70" width="1340" height="772" style="fill: rgb(229, 236, 246); fill-opacity: 1; stroke-width: 0;"/></g><g class="layer-below"><g class="imagelayer"/><g class="shapelayer"/></g><g class="cartesianlayer"><g class="subplot xy"><g class="layer-subplot"><g class="shapelayer"/><g class="imagelayer"/></g><g class="minor-gridlayer"><g class="x"/><g class="y"/><g class="y2"/></g><g class="gridlayer"><g class="x"/><g class="y"><path class="ygrid crisp" transform="translate(0,713.49)" d="M60,0h1340" style="stroke: rgb(255, 255, 255); stroke-opacity: 1; stroke-width: 1px;"/><path class="ygrid crisp" transform="translate(0,584.98)" d="M60,0h1340" style="stroke: rgb(255, 255, 255); stroke-opacity: 1; stroke-width: 1px;"/><path class="ygrid crisp" transform="translate(0,456.47)" d="M60,0h1340" style="stroke: rgb(255, 255, 255); stroke-opacity: 1; stroke-width: 1px;"/><path class="ygrid crisp" transform="translate(0,327.96)" d="M60,0h1340" style="stroke: rgb(255, 255, 255); stroke-opacity: 1; stroke-width: 1px;"/><path class="ygrid crisp" transform="translate(0,199.44)" d="M60,0h1340" style="stroke: rgb(255, 255, 255); stroke-opacity: 1; stroke-width: 1px;"/></g><g class="y2"/></g><g class="zerolinelayer"><path class="yzl zl crisp" transform="translate(0,842)" d="M60,0h1340" style="stroke: rgb(255, 255, 255); stroke-opacity: 1; stroke-width: 2px;"/></g><g class="layer-between"><g class="shapelayer"/><g class="imagelayer"/></g><path class="xlines-below"/><path class="ylines-below"/><g class="overlines-below"/><g class="xaxislayer-below"/><g class="yaxislayer-below"/><g class="overaxes-below"/><g class="overplot"><g class="xy" transform="translate(60,70)" clip-path="url(#clip7df4abxyplot)"><g class="barlayer mlayer"><g class="trace bars" shape-rendering="crispEdges" style="opacity: 0.9;"><g class="points"><g class="point"><path d="M22.17,772V677.71H121.83V772Z" style="vector-effect: none; opacity: 1; stroke-width: 0.5px; fill: rgb(26, 152, 80); fill-opacity: 1; stroke: rgb(229, 236, 246); stroke-opacity: 1;"/></g><g class="point"><path d="M155.06,772V652.92H254.72V772Z" style="vector-effect: none; opacity: 1; stroke-width: 0.5px; fill: rgb(26, 152, 80); fill-opacity: 1; stroke: rgb(229, 236, 246); stroke-opacity: 1;"/></g><g class="point"><path d="M287.94,772V630.51H387.61V772Z" style="vector-effect: none; opacity: 1; stroke-width: 0.5px; fill: rgb(26, 152, 80); fill-opacity: 1; stroke: rgb(229, 236, 246); stroke-opacity: 1;"/></g><g class="point"><path d="M420.83,772V604.43H520.5V772Z" style="vector-effect: none; opacity: 1; stroke-width: 0.5px; fill: rgb(26, 152, 80); fill-opacity: 1; stroke: rgb(229, 236, 246); stroke-opacity: 1;"/></g><g class="point"><path d="M553.72,772V577.85H653.39V772Z" style="vector-effect: none; opacity: 1; stroke-width: 0.5px; fill: rgb(26, 152, 80); fill-opacity: 1; stroke: rgb(229, 236, 246); stroke-opacity: 1;"/></g><g class="point"><path d="M686.61,772V540.14H786.28V772Z" style="vector-effect: none; opacity: 1; stroke-width: 0.5px; fill: rgb(26, 152, 80); fill-opacity: 1; stroke: rgb(229, 236, 246); stroke-opacity: 1;"/></g><g class="point"><path d="M819.5,772V531.56H919.17V772Z" style="vector-effect: none; opacity: 1; stroke-width: 0.5px; fill: rgb(26, 152, 80); fill-opacity: 1; stroke: rgb(229, 236, 246); stroke-opacity: 1;"/></g><g class="point"><path d="M952.39,772V545.87H1052.06V772Z" style="vector-effect: none; opacity: 1; stroke-width: 0.5px; fill: rgb(26, 152, 80); fill-opacity: 1; stroke: rgb(229, 236, 246); stroke-opacity: 1;"/></g><g class="point"><path d="M1085.28,772V518.61H1184.94V772Z" style="vector-effect: none; opacity: 1; stroke-width: 0.5px; fill: rgb(26, 152, 80); fill-opacity: 1; stroke: rgb(229, 236, 246); stroke-opacity: 1;"/></g><g class="point"><path d="M1218.17,772V508.87H1317.83V772Z" style="vector-effect: none; opacity: 1; stroke-width: 0.5px; fill: rgb(26, 152, 80); fill-opacity: 1; stroke: rgb(229, 236, 246); stroke-opacity: 1;"/></g></g></g><g class="trace bars" shape-rendering="crispEdges" style="opacity: 0.9;"><g class="points"><g class="point"><path d="M22.17,677.71V564.98H121.83V677.71Z" style="vector-effect: none; opacity: 1; stroke-width: 0.5px; fill: rgb(145, 207, 96); fill-opacity: 1; stroke: rgb(229, 236, 246); stroke-opacity: 1;"/></g><g class="point"><path d="M155.06,652.92V527.57H254.72V652.92Z" style="vector-effect: none; opacity: 1; stroke-width: 0.5px; fill: rgb(145, 207, 96); fill-opacity: 1; stroke: rgb(229, 236, 246); stroke-opacity: 1;"/></g><g class="point"><path d="M287.94,630.51V505.47H387.61V630.51Z" style="vector-effect: none; opacity: 1; stroke-width: 0.5px; fill: rgb(145, 207, 96); fill-opacity: 1; stroke: rgb(229, 236, 246); stroke-opacity: 1;"/></g><g class="point"><path d="M420.83,604.43V468.8H520.5V604.43Z" style="vector-effect: none; opacity: 1; stroke-width: 0.5px; fill: rgb(145, 207, 96); fill-opacity: 1; stroke: rgb(229, 236, 246); stroke-opacity: 1;"/></g><g class="point"><path d="M553.72,577.85V406.73H653.39V577.85Z" style="vector-effect: none; opacity: 1; stroke-width: 0.5px; fill: rgb(145, 207, 96); fill-opacity: 1; stroke: rgb(229, 236, 246); stroke-opacity: 1;"/></g><g class="point"><path d="M686.61,540.14V340.23H786.28V540.14Z" style="vector-effect: none; opacity: 1; stroke-width: 0.5px; fill: rgb(145, 207, 96); fill-opacity: 1; stroke: rgb(229, 236, 246); stroke-opacity: 1;"/></g><g class="point"><path d="M819.5,531.56V304.36H919.17V531.56Z" style="vector-effect: none; opacity: 1; stroke-width: 0.5px; fill: rgb(145, 207, 96); fill-opacity: 1; stroke: rgb(229, 236, 246); stroke-opacity: 1;"/></g><g class="point"><path d="M952.39,545.87V324.88H1052.06V545.87Z" style="vector-effect: none; opacity: 1; stroke-width: 0.5px; fill: rgb(145, 207, 96); fill-opacity: 1; stroke: rgb(229, 236, 246); stroke-opacity: 1;"/></g><g class="point"><path d="M1085.28,518.61V318.27H1184.94V518.61Z" style="vector-effect: none; opacity: 1; stroke-width: 0.5px; fill: rgb(145, 207, 96); fill-opacity: 1; stroke: rgb(229, 236, 246); stroke-opacity: 1;"/></g><g class="point"><path d="M1218.17,508.87V321.68H1317.83V508.87Z" style="vector-effect: none; opacity: 1; stroke-width: 0.5px; fill: rgb(145, 207, 96); fill-opacity: 1; stroke: rgb(229, 236, 246); stroke-opacity: 1;"/></g></g></g><g class="trace bars" shape-rendering="crispEdges" style="opacity: 0.9;"><g class="points"><g class="point"><path d="M22.17,564.98V466.22H121.83V564.98Z" style="vector-effect: none; opacity: 1; stroke-width: 0.5px; fill: rgb(217, 239, 139); fill-opacity: 1; stroke: rgb(229, 236, 246); stroke-opacity: 1;"/></g><g class="point"><path d="M155.06,527.57V419.52H254.72V527.57Z" style="vector-effect: none; opacity: 1; stroke-width: 0.5px; fill: rgb(217, 239, 139); fill-opacity: 1; stroke: rgb(229, 236, 246); stroke-opacity: 1;"/></g><g class="point"><path d="M287.94,505.47V383.05H387.61V505.47Z" style="vector-effect: none; opacity: 1; stroke-width: 0.5px; fill: rgb(217, 239, 139); fill-opacity: 1; stroke: rgb(229, 236, 246); stroke-opacity: 1;"/></g><g class="point"><path d="M420.83,468.8V337.94H520.5V468.8Z" style="vector-effect: none; opacity: 1; stroke-width: 0.5px; fill: rgb(217, 239, 139); fill-opacity: 1; stroke: rgb(229, 236, 246); stroke-opacity: 1;"/></g><g class="point"><path d="M553.72,406.73V252.24H653.39V406.73Z" style="vector-effect: none; opacity: 1; stroke-width: 0.5px; fill: rgb(217, 239, 139); fill-opacity: 1; stroke: rgb(229, 236, 246); stroke-opacity: 1;"/></g><g class="point"><path d="M686.61,340.23V181.58H786.28V340.23Z" style="vector-effect: none; opacity: 1; stroke-width: 0.5px; fill: rgb(217, 239, 139); fill-opacity: 1; stroke: rgb(229, 236, 246); stroke-opacity: 1;"/></g><g class="point"><path d="M819.5,304.36V147.64H919.17V304.36Z" style="vector-effect: none; opacity: 1; stroke-width: 0.5px; fill: rgb(217, 239, 139); fill-opacity: 1; stroke: rgb(229, 236, 246); stroke-opacity: 1;"/></g><g class="point"><path d="M952.39,324.88V186.54H1052.06V324.88Z" style="vector-effect: none; opacity: 1; stroke-width: 0.5px; fill: rgb(217, 239, 139); fill-opacity: 1; stroke: rgb(229, 236, 246); stroke-opacity: 1;"/></g><g class="point"><path d="M1085.28,318.27V218.41H1184.94V318.27Z" style="vector-effect: none; opacity: 1; stroke-width: 0.5px; fill: rgb(217, 239, 139); fill-opacity: 1; stroke: rgb(229, 236, 246); stroke-opacity: 1;"/></g><g class="point"><path d="M1218.17,321.68V227.81H1317.83V321.68Z" style="vector-effect: none; opacity: 1; stroke-width: 0.5px; fill: rgb(217, 239, 139); fill-opacity: 1; stroke: rgb(229, 236, 246); stroke-opacity: 1;"/></g></g></g><g class="trace bars" shape-rendering="crispEdges" style="opacity: 0.9;"><g class="points"><g class="point"><path d="M22.17,466.22V384.89H121.83V466.22Z" style="vector-effect: none; opacity: 1; stroke-width: 0.5px; fill: rgb(255, 255, 191); fill-opacity: 1; stroke: rgb(229, 236, 246); stroke-opacity: 1;"/></g><g class="point"><path d="M155.06,419.52V331.37H254.72V419.52Z" style="vector-effect: none; opacity: 1; stroke-width: 0.5px; fill: rgb(255, 255, 191); fill-opacity: 1; stroke: rgb(229, 236, 246); stroke-opacity: 1;"/></g><g class="point"><path d="M287.94,383.05V286.32H387.61V383.05Z" style="vector-effect: none; opacity: 1; stroke-width: 0.5px; fill: rgb(255, 255, 191); fill-opacity: 1; stroke: rgb(229, 236, 246); stroke-opacity: 1;"/></g><g class="point"><path d="M420.83,337.94V249.9H520.5V337.94Z" style="vector-effect: none; opacity: 1; stroke-width: 0.5px; fill: rgb(255, 255, 191); fill-opacity: 1; stroke: rgb(229, 236, 246); stroke-opacity: 1;"/></g><g class="point"><path d="M553.72,252.24V161.46H653.39V252.24Z" style="vector-effect: none; opacity: 1; stroke-width: 0.5px; fill: rgb(255, 255, 191); fill-opacity: 1; stroke: rgb(229, 236, 246); stroke-opacity: 1;"/></g><g class="point"><path d="M686.61,181.58V88.28H786.28V181.58Z" style="vector-effect: none; opacity: 1; stroke-width: 0.5px; fill: rgb(255, 255, 191); fill-opacity: 1; stroke: rgb(229, 236, 246); stroke-opacity: 1;"/></g><g class="point"><path d="M819.5,147.64V61.04H919.17V147.64Z" style="vector-effect: none; opacity: 1; stroke-width: 0.5px; fill: rgb(255, 255, 191); fill-opacity: 1; stroke: rgb(229, 236, 246); stroke-opacity: 1;"/></g><g class="point"><path d="M952.39,186.54V124.07H1052.06V186.54Z" style="vector-effect: none; opacity: 1; stroke-width: 0.5px; fill: rgb(255, 255, 191); fill-opacity: 1; stroke: rgb(229, 236, 246); stroke-opacity: 1;"/></g><g class="point"><path d="M1085.28,218.41V184.52H1184.94V218.41Z" style="vector-effect: none; opacity: 1; stroke-width: 0.5px; fill: rgb(255, 255, 191); fill-opacity: 1; stroke: rgb(229, 236, 246); stroke-opacity: 1;"/></g><g class="point"><path d="M1218.17,227.81V197.66H1317.83V227.81Z" style="vector-effect: none; opacity: 1; stroke-width: 0.5px; fill: rgb(255, 255, 191); fill-opacity: 1; stroke: rgb(229, 236, 246); stroke-opacity: 1;"/></g></g></g><g class="trace bars" shape-rendering="crispEdges" style="opacity: 0.9;"><g class="points"><g class="point"><path d="M22.17,384.89V327.08H121.83V384.89Z" style="vector-effect: none; opacity: 1; stroke-width: 0.5px; fill: rgb(128, 128, 128); fill-opacity: 1; stroke: rgb(229, 236, 246); stroke-opacity: 1;"/></g><g class="point"><path d="M155.06,331.37V281.87H254.72V331.37Z" style="vector-effect: none; opacity: 1; stroke-width: 0.5px; fill: rgb(128, 128, 128); fill-opacity: 1; stroke: rgb(229, 236, 246); stroke-opacity: 1;"/></g><g class="point"><path d="M287.94,286.32V228.87H387.61V286.32Z" style="vector-effect: none; opacity: 1; stroke-width: 0.5px; fill: rgb(128, 128, 128); fill-opacity: 1; stroke: rgb(229, 236, 246); stroke-opacity: 1;"/></g><g class="point"><path d="M420.83,249.9V202.04H520.5V249.9Z" style="vector-effect: none; opacity: 1; stroke-width: 0.5px; fill: rgb(128, 128, 128); fill-opacity: 1; stroke: rgb(229, 236, 246); stroke-opacity: 1;"/></g><g class="point"><path d="M553.72,161.46V112.97H653.39V161.46Z" style="vector-effect: none; opacity: 1; stroke-width: 0.5px; fill: rgb(128, 128, 128); fill-opacity: 1; stroke: rgb(229, 236, 246); stroke-opacity: 1;"/></g><g class="point"><path d="M686.61,88.28V51.67H786.28V88.28Z" style="vector-effect: none; opacity: 1; stroke-width: 0.5px; fill: rgb(128, 128, 128); fill-opacity: 1; stroke: rgb(229, 236, 246); stroke-opacity: 1;"/></g><g class="point"><path d="M819.5,61.04V38.6H919.17V61.04Z" style="vector-effect: none; opacity: 1; stroke-width: 0.5px; fill: rgb(128, 128, 128); fill-opacity: 1; stroke: rgb(229, 236, 246); stroke-opacity: 1;"/></g><g class="point"><path d="M952.39,124.07V98.23H1052.06V124.07Z" style="vector-effect: none; opacity: 1; stroke-width: 0.5px; fill: rgb(128, 128, 128); fill-opacity: 1; stroke: rgb(229, 236, 246); stroke-opacity: 1;"/></g><g class="point"><path d="M1085.28,184.52V166.11H1184.94V184.52Z" style="vector-effect: none; opacity: 1; stroke-width: 0.5px; fill: rgb(128, 128, 128); fill-opacity: 1; stroke: rgb(229, 236, 246); stroke-opacity: 1;"/></g><g class="point"><path d="M1218.17,197.66V177.66H1317.83V197.66Z" style="vector-effect: none; opacity: 1; stroke-width: 0.5px; fill: rgb(128, 128, 128); fill-opacity: 1; stroke: rgb(229, 236, 246); stroke-opacity: 1;"/></g></g></g></g></g></g><g class="zerolinelayer-above"/><path class="xlines-above crisp" d="M0,0" style="fill: none;"/><path class="ylines-above crisp" d="M0,0" style="fill: none;"/><g class="overlines-above"/><g class="xaxislayer-above"><g class="xtick"><text text-anchor="middle" x="0" y="856" transform="translate(132,0)" style="font-family: 'Vazirmatn FD'; font-size: 13px; fill: rgb(42, 63, 95); fill-opacity: 1; white-space: pre;">2015</text></g><g class="xtick"><text text-anchor="middle" x="0" y="856" style="font-family: 'Vazirmatn FD'; font-size: 13px; fill: rgb(42, 63, 95); fill-opacity: 1; white-space: pre;" transform="translate(264.89,0)">2016</text></g><g class="xtick"><text text-anchor="middle" x="0" y="856" style="font-family: 'Vazirmatn FD'; font-size: 13px; fill: rgb(42, 63, 95); fill-opacity: 1; white-space: pre;" transform="translate(397.78,0)">2017</text></g><g class="xtick"><text text-anchor="middle" x="0" y="856" style="font-family: 'Vazirmatn FD'; font-size: 13px; fill: rgb(42, 63, 95); fill-opacity: 1; white-space: pre;" transform="translate(530.6700000000001,0)">2018</text></g><g class="xtick"><text text-anchor="middle" x="0" y="856" style="font-family: 'Vazirmatn FD'; font-size: 13px; fill: rgb(42, 63, 95); fill-opacity: 1; white-space: pre;" transform="translate(663.56,0)">2019</text></g><g class="xtick"><text text-anchor="middle" x="0" y="856" style="font-family: 'Vazirmatn FD'; font-size: 13px; fill: rgb(42, 63, 95); fill-opacity: 1; white-space: pre;" transform="translate(796.44,0)">2020</text></g><g class="xtick"><text text-anchor="middle" x="0" y="856" style="font-family: 'Vazirmatn FD'; font-size: 13px; fill: rgb(42, 63, 95); fill-opacity: 1; white-space: pre;" transform="translate(929.33,0)">2021</text></g><g class="xtick"><text text-anchor="middle" x="0" y="856" style="font-family: 'Vazirmatn FD'; font-size: 13px; fill: rgb(42, 63, 95); fill-opacity: 1; white-space: pre;" transform="translate(1062.22,0)">2022</text></g><g class="xtick"><text text-anchor="middle" x="0" y="856" style="font-family: 'Vazirmatn FD'; font-size: 13px; fill: rgb(42, 63, 95); fill-opacity: 1; white-space: pre;" transform="translate(1195.11,0)">2023</text></g><g class="xtick"><text text-anchor="middle" x="0" y="856" style="font-family: 'Vazirmatn FD'; font-size: 13px; fill: rgb(42, 63, 95); fill-opacity: 1; white-space: pre;" transform="translate(1328,0)">2024</text></g></g><g class="yaxislayer-above"><g class="ytick"><text text-anchor="end" x="59" y="4.55" transform="translate(0,842)" style="font-family: 'Vazirmatn FD'; font-size: 13px; fill: rgb(42, 63, 95); fill-opacity: 1; white-space: pre;">0</text></g><g class="ytick"><text text-anchor="end" x="59" y="4.55" style="font-family: 'Vazirmatn FD'; font-size: 13px; fill: rgb(42, 63, 95); fill-opacity: 1; white-space: pre;" transform="translate(0,713.49)">10k</text></g><g class="ytick"><text text-anchor="end" x="59" y="4.55" style="font-family: 'Vazirmatn FD'; font-size: 13px; fill: rgb(42, 63, 95); fill-opacity: 1; white-space: pre;" transform="translate(0,584.98)">20k</text></g><g class="ytick"><text text-anchor="end" x="59" y="4.55" style="font-family: 'Vazirmatn FD'; font-size: 13px; fill: rgb(42, 63, 95); fill-opacity: 1; white-space: pre;" transform="translate(0,456.47)">30k</text></g><g class="ytick"><text text-anchor="end" x="59" y="4.55" style="font-family: 'Vazirmatn FD'; font-size: 13px; fill: rgb(42, 63, 95); fill-opacity: 1; white-space: pre;" transform="translate(0,327.96)">40k</text></g><g class="ytick"><text text-anchor="end" x="59" y="4.55" style="font-family: 'Vazirmatn FD'; font-size: 13px; fill: rgb(42, 63, 95); fill-opacity: 1; white-space: pre;" transform="translate(0,199.44)">50k</text></g><g class="ytick"><text text-anchor="end" x="59" y="4.55" style="font-family: 'Vazirmatn FD'; font-size: 13px; fill: rgb(42, 63, 95); fill-opacity: 1; white-space: pre;" transform="translate(0,70.93)">60k</text></g></g><g class="overaxes-above"/></g><g class="subplot xy2"><g class="layer-subplot"><g class="shapelayer"/><g class="imagelayer"/></g><g class="layer-between"><g class="shapelayer"/><g class="imagelayer"/></g><path class="xlines-below"/><path class="ylines-below"/><g class="overlines-below"/><g class="xaxislayer-below"/><g class="yaxislayer-below"/><g class="overaxes-below"/><g class="overplot"><g class="xy2" transform="translate(60,70)" clip-path="url(#clip7df4abxy2plot)"/></g><path class="xlines-above crisp" d="M0,0" style="fill: none;"/><path class="ylines-above crisp" d="M0,0" style="fill: none;"/><g class="overlines-above"/><g class="xaxislayer-above"/><g class="yaxislayer-above"/><g class="overaxes-above"/></g><g class="subplot xyz2"><g class="overplot"><g class="xyz2" transform="translate(60,70)" clip-path="url(#clip7df4abxyz2plot)"/></g><g class="zerolinelayer-above"/></g><g class="subplot xy2z2"><g class="overplot"><g class="xy2z2" transform="translate(60,70)" clip-path="url(#clip7df4abxy2z2plot)"><g class="scatterlayer2 mlayer"><g class="trace scatter traceb00e05" style="stroke-miterlimit: 2; opacity: 1;"><g class="fills"/><g class="errorbars"/><g class="lines"><path class="js-line" d="M72,728.4L204.89,645.71L337.78,638.78L470.67,515.99L603.56,468.57L736.44,396.3L869.33,373.3L1002.22,378.83L1135.11,401.31L1268,43.6" style="vector-effect: none; fill: none; stroke: rgb(0, 0, 255); stroke-opacity: 1; stroke-width: 2px; opacity: 1;"/></g><g class="points"><path class="point" transform="translate(72,728.4)" d="M4,0A4,4 0 1,1 0,-4A4,4 0 0,1 4,0Z" style="opacity: 1; stroke-width: 0px; fill: rgb(0, 0, 255); fill-opacity: 1;"/><path class="point" transform="translate(204.89,645.71)" d="M4,0A4,4 0 1,1 0,-4A4,4 0 0,1 4,0Z" style="opacity: 1; stroke-width: 0px; fill: rgb(0, 0, 255); fill-opacity: 1;"/><path class="point" transform="translate(337.78,638.78)" d="M4,0A4,4 0 1,1 0,-4A4,4 0 0,1 4,0Z" style="opacity: 1; stroke-width: 0px; fill: rgb(0, 0, 255); fill-opacity: 1;"/><path class="point" transform="translate(470.67,515.99)" d="M4,0A4,4 0 1,1 0,-4A4,4 0 0,1 4,0Z" style="opacity: 1; stroke-width: 0px; fill: rgb(0, 0, 255); fill-opacity: 1;"/><path class="point" transform="translate(603.56,468.57)" d="M4,0A4,4 0 1,1 0,-4A4,4 0 0,1 4,0Z" style="opacity: 1; stroke-width: 0px; fill: rgb(0, 0, 255); fill-opacity: 1;"/><path class="point" transform="translate(736.44,396.3)" d="M4,0A4,4 0 1,1 0,-4A4,4 0 0,1 4,0Z" style="opacity: 1; stroke-width: 0px; fill: rgb(0, 0, 255); fill-opacity: 1;"/><path class="point" transform="translate(869.33,373.3)" d="M4,0A4,4 0 1,1 0,-4A4,4 0 0,1 4,0Z" style="opacity: 1; stroke-width: 0px; fill: rgb(0, 0, 255); fill-opacity: 1;"/><path class="point" transform="translate(1002.22,378.83)" d="M4,0A4,4 0 1,1 0,-4A4,4 0 0,1 4,0Z" style="opacity: 1; stroke-width: 0px; fill: rgb(0, 0, 255); fill-opacity: 1;"/><path class="point" transform="translate(1135.11,401.31)" d="M4,0A4,4 0 1,1 0,-4A4,4 0 0,1 4,0Z" style="opacity: 1; stroke-width: 0px; fill: rgb(0, 0, 255); fill-opacity: 1;"/><path class="point" transform="translate(1268,43.6)" d="M4,0A4,4 0 1,1 0,-4A4,4 0 0,1 4,0Z" style="opacity: 1; stroke-width: 0px; fill: rgb(0, 0, 255); fill-opacity: 1;"/></g><g class="text"><g class="textpoint" transform="translate(0,-9)"><text x="72" y="728.4" text-anchor="middle" style="font-family: 'Vazirmatn FD'; font-size: 12px; fill: rgb(42, 63, 95); fill-opacity: 1; white-space: pre;">0.80</text></g><g class="textpoint" transform="translate(0,-9)"><text x="204.89" y="645.71" text-anchor="middle" style="font-family: 'Vazirmatn FD'; font-size: 12px; fill: rgb(42, 63, 95); fill-opacity: 1; white-space: pre;">0.85</text></g><g class="textpoint" transform="translate(0,-9)"><text x="337.78" y="638.78" text-anchor="middle" style="font-family: 'Vazirmatn FD'; font-size: 12px; fill: rgb(42, 63, 95); fill-opacity: 1; white-space: pre;">0.85</text></g><g class="textpoint" transform="translate(0,-9)"><text x="470.67" y="515.99" text-anchor="middle" style="font-family: 'Vazirmatn FD'; font-size: 12px; fill: rgb(42, 63, 95); fill-opacity: 1; white-space: pre;">0.93</text></g><g class="textpoint" transform="translate(0,-9)"><text x="603.56" y="468.57" text-anchor="middle" style="font-family: 'Vazirmatn FD'; font-size: 12px; fill: rgb(42, 63, 95); fill-opacity: 1; white-space: pre;">0.96</text></g><g class="textpoint" transform="translate(0,-9)"><text x="736.44" y="396.3" text-anchor="middle" style="font-family: 'Vazirmatn FD'; font-size: 12px; fill: rgb(42, 63, 95); fill-opacity: 1; white-space: pre;">1.00</text></g><g class="textpoint" transform="translate(0,-9)"><text x="869.33" y="373.3" text-anchor="middle" style="font-family: 'Vazirmatn FD'; font-size: 12px; fill: rgb(42, 63, 95); fill-opacity: 1; white-space: pre;">1.01</text></g><g class="textpoint" transform="translate(0,-9)"><text x="1002.22" y="378.83" text-anchor="middle" style="font-family: 'Vazirmatn FD'; font-size: 12px; fill: rgb(42, 63, 95); fill-opacity: 1; white-space: pre;">1.01</text></g><g class="textpoint" transform="translate(0,-9)"><text x="1135.11" y="401.31" text-anchor="middle" style="font-family: 'Vazirmatn FD'; font-size: 12px; fill: rgb(42, 63, 95); fill-opacity: 1; white-space: pre;">1.00</text></g><g class="textpoint" transform="translate(0,-9)"><text x="1268" y="43.6" text-anchor="middle" style="font-family: 'Vazirmatn FD'; font-size: 12px; fill: rgb(42, 63, 95); fill-opacity: 1; white-space: pre;">1.21</text></g></g></g></g></g></g></g></g><g class="polarlayer"/><g class="smithlayer"/><g class="ternarylayer"/><g class="geolayer"/><g class="funnelarealayer"/><g class="pielayer"/><g class="iciclelayer"/><g class="treemaplayer"/><g class="sunburstlayer"/><g class="glimages"/><defs id="topdefs-7df4ab"><g class="clips"/><clipPath id="legend7df4ab"><rect width="156" height="124" x="0" y="0"/></clipPath></defs><g class="layer-above"><g class="imagelayer"/><g class="shapelayer"/></g><g class="infolayer"><g class="legend" pointer-events="all" transform="translate(1426.8,70)"><rect class="bg" shape-rendering="crispEdges" style="stroke: rgb(68, 68, 68); stroke-opacity: 1; fill: rgb(255, 255, 255); fill-opacity: 1; stroke-width: 0px;" width="156" height="124" x="0" y="0"/><g class="scrollbox" transform="" clip-path="url(#legend7df4ab)"><g class="groups"><g class="traces" transform="translate(0,14.5)" style="opacity: 1;"><text class="legendtext" text-anchor="start" x="40" y="4.680000000000001" style="font-family: 'Vazirmatn FD'; font-size: 12px; fill: rgb(42, 63, 95); fill-opacity: 1; white-space: pre;">بدون ضریب تأثیر</text><g class="layers" style="opacity: 0.9;"><g class="legendfill"/><g class="legendlines"/><g class="legendsymbols"><g class="legendpoints"><path class="legendundefined" d="M6,6H-6V-6H6Z" transform="translate(20,0)" style="stroke-width: 0.5px; fill: rgb(128, 128, 128); fill-opacity: 1; stroke: rgb(229, 236, 246); stroke-opacity: 1;"/></g></g></g><rect class="legendtoggle" x="0" y="-9.5" width="150.66796875" height="19" style="fill: rgb(0, 0, 0); fill-opacity: 0;"/></g><g class="traces" transform="translate(0,33.5)" style="opacity: 1;"><text class="legendtext" text-anchor="start" x="40" y="4.680000000000001" style="font-family: 'Vazirmatn FD'; font-size: 12px; fill: rgb(42, 63, 95); fill-opacity: 1; white-space: pre;">چارک چهارم</text><g class="layers" style="opacity: 0.9;"><g class="legendfill"/><g class="legendlines"/><g class="legendsymbols"><g class="legendpoints"><path class="legendundefined" d="M6,6H-6V-6H6Z" transform="translate(20,0)" style="stroke-width: 0.5px; fill: rgb(255, 255, 191); fill-opacity: 1; stroke: rgb(229, 236, 246); stroke-opacity: 1;"/></g></g></g><rect class="legendtoggle" x="0" y="-9.5" width="150.66796875" height="19" style="fill: rgb(0, 0, 0); fill-opacity: 0;"/></g><g class="traces" transform="translate(0,52.5)" style="opacity: 1;"><text class="legendtext" text-anchor="start" x="40" y="4.680000000000001" style="font-family: 'Vazirmatn FD'; font-size: 12px; fill: rgb(42, 63, 95); fill-opacity: 1; white-space: pre;">چارک سوم</text><g class="layers" style="opacity: 0.9;"><g class="legendfill"/><g class="legendlines"/><g class="legendsymbols"><g class="legendpoints"><path class="legendundefined" d="M6,6H-6V-6H6Z" transform="translate(20,0)" style="stroke-width: 0.5px; fill: rgb(217, 239, 139); fill-opacity: 1; stroke: rgb(229, 236, 246); stroke-opacity: 1;"/></g></g></g><rect class="legendtoggle" x="0" y="-9.5" width="150.66796875" height="19" style="fill: rgb(0, 0, 0); fill-opacity: 0;"/></g><g class="traces" transform="translate(0,71.5)" style="opacity: 1;"><text class="legendtext" text-anchor="start" x="40" y="4.680000000000001" style="font-family: 'Vazirmatn FD'; font-size: 12px; fill: rgb(42, 63, 95); fill-opacity: 1; white-space: pre;">چارک دوم</text><g class="layers" style="opacity: 0.9;"><g class="legendfill"/><g class="legendlines"/><g class="legendsymbols"><g class="legendpoints"><path class="legendundefined" d="M6,6H-6V-6H6Z" transform="translate(20,0)" style="stroke-width: 0.5px; fill: rgb(145, 207, 96); fill-opacity: 1; stroke: rgb(229, 236, 246); stroke-opacity: 1;"/></g></g></g><rect class="legendtoggle" x="0" y="-9.5" width="150.66796875" height="19" style="fill: rgb(0, 0, 0); fill-opacity: 0;"/></g><g class="traces" transform="translate(0,90.5)" style="opacity: 1;"><text class="legendtext" text-anchor="start" x="40" y="4.680000000000001" style="font-family: 'Vazirmatn FD'; font-size: 12px; fill: rgb(42, 63, 95); fill-opacity: 1; white-space: pre;">چارک اول</text><g class="layers" style="opacity: 0.9;"><g class="legendfill"/><g class="legendlines"/><g class="legendsymbols"><g class="legendpoints"><path class="legendundefined" d="M6,6H-6V-6H6Z" transform="translate(20,0)" style="stroke-width: 0.5px; fill: rgb(26, 152, 80); fill-opacity: 1; stroke: rgb(229, 236, 246); stroke-opacity: 1;"/></g></g></g><rect class="legendtoggle" x="0" y="-9.5" width="150.66796875" height="19" style="fill: rgb(0, 0, 0); fill-opacity: 0;"/></g><g class="traces" transform="translate(0,109.5)" style="opacity: 1;"><text class="legendtext" text-anchor="start" x="40" y="4.680000000000001" style="font-family: 'Vazirmatn FD'; font-size: 12px; fill: rgb(42, 63, 95); fill-opacity: 1; white-space: pre;">تأثیر استنادی نرمال‌شده</text><g class="layers" style="opacity: 1;"><g class="legendfill"/><g class="legendlines"><path class="js-line" d="M5,0h30" style="fill: none; stroke: rgb(0, 0, 255); stroke-opacity: 1; stroke-width: 2px;"/></g><g class="legendsymbols"><g class="legendpoints"><path class="scatterpts" transform="translate(20,0)" d="M4,0A4,4 0 1,1 0,-4A4,4 0 0,1 4,0Z" style="opacity: 1; stroke-width: 0px; fill: rgb(0, 0, 255); fill-opacity: 1;"/></g></g></g><rect class="legendtoggle" x="0" y="-9.5" width="150.66796875" height="19" style="fill: rgb(0, 0, 0); fill-opacity: 0;"/></g></g></g><rect class="scrollbar" rx="20" ry="3" width="0" height="0" style="fill: rgb(128, 139, 164); fill-opacity: 1;" x="0" y="0"/></g><g class="g-gtitle"><text class="gtitle" x="800" y="35" text-anchor="middle" dy="0em" style="opacity: 1; font-family: 'Vazirmatn FD Black'; font-size: 17px; fill: rgb(42, 63, 95); fill-opacity: 1; white-space: pre;">تغییرات تأثیر استنادی نرمال‌شده و توزیع مقالات ایران در مجلات چارک‌های ضریب تاثیری در تمام حوزه‌ها</text></g><g class="g-xtitle"><text class="xtitle" x="730" y="887.3" text-anchor="middle" style="opacity: 1; font-family: 'Vazirmatn FD'; font-size: 14px; fill: rgb(42, 63, 95); fill-opacity: 1; white-space: pre;">سال</text></g><g class="g-ytitle"><text class="ytitle" transform="rotate(-90,18.959375,456)" x="18.959375" y="456" text-anchor="middle" style="opacity: 1; font-family: 'Vazirmatn FD'; font-size: 14px; fill: rgb(42, 63, 95); fill-opacity: 1; white-space: pre;">تعداد مقالات</text></g><g class="g-y2title"><text class="y2title" transform="rotate(-90,1425.3,456)" x="1425.3" y="456" text-anchor="middle" style="opacity: 1; font-family: 'Vazirmatn FD'; font-size: 14px; fill: rgb(42, 63, 95); fill-opacity: 1; white-space: pre;">تأثیر استنادی نرمال‌شده</text></g></g></svg>