<svg class="main-svg" xmlns="http://www.w3.org/2000/svg" xmlns:xlink="http://www.w3.org/1999/xlink" width="1600" height="900" style="" viewBox="0 0 1600 900"><rect x="0" y="0" width="1600" height="900" style="fill: rgb(255, 255, 255); fill-opacity: 1;"/><defs id="defs-377177"><g class="clips"><clipPath id="clip377177xyplot" class="plotclip"><rect width="1356" height="720"/></clipPath><clipPath id="clip377177xy2plot" class="plotclip"><rect width="1356" height="720"/></clipPath><clipPath class="axesclip" id="clip377177x"><rect x="80" y="0" width="1356" height="900"/></clipPath><clipPath class="axesclip" id="clip377177y"><rect x="0" y="100" width="1600" height="720"/></clipPath><clipPath class="axesclip" id="clip377177xy"><rect x="80" y="100" width="1356" height="720"/></clipPath><clipPath class="axesclip" id="clip377177y2"><rect x="0" y="100" width="1600" height="720"/></clipPath><clipPath class="axesclip" id="clip377177xy2"><rect x="80" y="100" width="1356" height="720"/></clipPath></g><g class="gradients"/><g class="patterns"/></defs><g class="bglayer"><rect class="bg" x="80" y="100" width="1356" height="720" style="fill: rgb(229, 236, 246); fill-opacity: 1; stroke-width: 0;"/></g><g class="layer-below"><g class="imagelayer"/><g class="shapelayer"/></g><g class="cartesianlayer"><g class="subplot xy"><g class="layer-subplot"><g class="shapelayer"/><g class="imagelayer"/></g><g class="minor-gridlayer"><g class="x"/><g class="y"/><g class="y2"/></g><g class="gridlayer"><g class="x"><path class="xgrid crisp" transform="translate(151.55,0)" d="M0,100v720" style="stroke: rgb(255, 255, 255); stroke-opacity: 1; stroke-width: 1px;"/><path class="xgrid crisp" transform="translate(272.84000000000003,0)" d="M0,100v720" style="stroke: rgb(255, 255, 255); stroke-opacity: 1; stroke-width: 1px;"/><path class="xgrid crisp" transform="translate(394.13,0)" d="M0,100v720" style="stroke: rgb(255, 255, 255); stroke-opacity: 1; stroke-width: 1px;"/><path class="xgrid crisp" transform="translate(515.4200000000001,0)" d="M0,100v720" style="stroke: rgb(255, 255, 255); stroke-opacity: 1; stroke-width: 1px;"/><path class="xgrid crisp" transform="translate(636.71,0)" d="M0,100v720" style="stroke: rgb(255, 255, 255); stroke-opacity: 1; stroke-width: 1px;"/><path class="xgrid crisp" transform="translate(758,0)" d="M0,100v720" style="stroke: rgb(255, 255, 255); stroke-opacity: 1; stroke-width: 1px;"/><path class="xgrid crisp" transform="translate(879.29,0)" d="M0,100v720" style="stroke: rgb(255, 255, 255); stroke-opacity: 1; stroke-width: 1px;"/><path class="xgrid crisp" transform="translate(1000.58,0)" d="M0,100v720" style="stroke: rgb(255, 255, 255); stroke-opacity: 1; stroke-width: 1px;"/><path class="xgrid crisp" transform="translate(1121.87,0)" d="M0,100v720" style="stroke: rgb(255, 255, 255); stroke-opacity: 1; stroke-width: 1px;"/><path class="xgrid crisp" transform="translate(1243.16,0)" d="M0,100v720" style="stroke: rgb(255, 255, 255); stroke-opacity: 1; stroke-width: 1px;"/><path class="xgrid crisp" transform="translate(1364.45,0)" d="M0,100v720" style="stroke: rgb(255, 255, 255); stroke-opacity: 1; stroke-width: 1px;"/></g><g class="y"><path class="ygrid crisp" transform="translate(0,700.15)" d="M80,0h1356" style="stroke: rgb(255, 255, 255); stroke-opacity: 1; stroke-width: 1px;"/><path class="ygrid crisp" transform="translate(0,580.29)" d="M80,0h1356" style="stroke: rgb(255, 255, 255); stroke-opacity: 1; stroke-width: 1px;"/><path class="ygrid crisp" transform="translate(0,460.44)" d="M80,0h1356" style="stroke: rgb(255, 255, 255); stroke-opacity: 1; stroke-width: 1px;"/><path class="ygrid crisp" transform="translate(0,340.58000000000004)" d="M80,0h1356" style="stroke: rgb(255, 255, 255); stroke-opacity: 1; stroke-width: 1px;"/><path class="ygrid crisp" transform="translate(0,220.73000000000002)" d="M80,0h1356" style="stroke: rgb(255, 255, 255); stroke-opacity: 1; stroke-width: 1px;"/></g><g class="y2"/></g><g class="zerolinelayer"/><g class="layer-between"><g class="shapelayer"/><g class="imagelayer"/></g><path class="xlines-below"/><path class="ylines-below"/><g class="overlines-below"><path class="xy2-x"/><path class="xy2-y"/></g><g class="xaxislayer-below"/><g class="yaxislayer-below"/><g class="overaxes-below"><g class="xy2-x"/><g class="xy2-y"/></g><g class="overplot"><g class="xy" transform="translate(80,100)" clip-path="url(#clip377177xyplot)"><g class="barlayer mlayer"><g class="trace bars" shape-rendering="crispEdges" style="opacity: 1;"><g class="points"><g class="point"><path d="M23.03,720V370.14H120.07V720Z" style="vector-effect: none; opacity: 1; stroke-width: 0.5px; fill: rgb(99, 110, 250); fill-opacity: 1; stroke: rgb(229, 236, 246); stroke-opacity: 1;"/></g><g class="point"><path d="M144.32,720V326.4H241.36V720Z" style="vector-effect: none; opacity: 1; stroke-width: 0.5px; fill: rgb(99, 110, 250); fill-opacity: 1; stroke: rgb(229, 236, 246); stroke-opacity: 1;"/></g><g class="point"><path d="M265.61,720V286.32H362.65V720Z" style="vector-effect: none; opacity: 1; stroke-width: 0.5px; fill: rgb(99, 110, 250); fill-opacity: 1; stroke: rgb(229, 236, 246); stroke-opacity: 1;"/></g><g class="point"><path d="M386.9,720V258.87H483.94V720Z" style="vector-effect: none; opacity: 1; stroke-width: 0.5px; fill: rgb(99, 110, 250); fill-opacity: 1; stroke: rgb(229, 236, 246); stroke-opacity: 1;"/></g><g class="point"><path d="M508.19,720V188.05H605.23V720Z" style="vector-effect: none; opacity: 1; stroke-width: 0.5px; fill: rgb(99, 110, 250); fill-opacity: 1; stroke: rgb(229, 236, 246); stroke-opacity: 1;"/></g><g class="point"><path d="M629.48,720V141.41H726.52V720Z" style="vector-effect: none; opacity: 1; stroke-width: 0.5px; fill: rgb(99, 110, 250); fill-opacity: 1; stroke: rgb(229, 236, 246); stroke-opacity: 1;"/></g><g class="point"><path d="M750.77,720V134.33H847.81V720Z" style="vector-effect: none; opacity: 1; stroke-width: 0.5px; fill: rgb(99, 110, 250); fill-opacity: 1; stroke: rgb(229, 236, 246); stroke-opacity: 1;"/></g><g class="point"><path d="M872.06,720V182.04H969.1V720Z" style="vector-effect: none; opacity: 1; stroke-width: 0.5px; fill: rgb(99, 110, 250); fill-opacity: 1; stroke: rgb(229, 236, 246); stroke-opacity: 1;"/></g><g class="point"><path d="M993.35,720V234.41H1090.39V720Z" style="vector-effect: none; opacity: 1; stroke-width: 0.5px; fill: rgb(99, 110, 250); fill-opacity: 1; stroke: rgb(229, 236, 246); stroke-opacity: 1;"/></g><g class="point"><path d="M1114.64,720V248.98H1211.68V720Z" style="vector-effect: none; opacity: 1; stroke-width: 0.5px; fill: rgb(99, 110, 250); fill-opacity: 1; stroke: rgb(229, 236, 246); stroke-opacity: 1;"/></g></g></g><g class="trace bars" shape-rendering="crispEdges" style="opacity: 0.6;"><g class="points"><g class="point"><path d="M1235.93,720V370.35H1332.97V720Z" style="vector-effect: none; opacity: 1; stroke-width: 0.5px; fill: rgb(99, 110, 250); fill-opacity: 1; stroke: rgb(229, 236, 246); stroke-opacity: 1;"/></g></g></g><g class="trace bars" shape-rendering="crispEdges" style="opacity: 1;"><g class="points"><g class="point"><path d="M23.03,370.14V360.81H120.07V370.14Z" style="vector-effect: none; opacity: 1; stroke-width: 0.5px; fill: rgb(239, 85, 59); fill-opacity: 1; stroke: rgb(229, 236, 246); stroke-opacity: 1;"/></g><g class="point"><path d="M144.32,326.4V311.99H241.36V326.4Z" style="vector-effect: none; opacity: 1; stroke-width: 0.5px; fill: rgb(239, 85, 59); fill-opacity: 1; stroke: rgb(229, 236, 246); stroke-opacity: 1;"/></g><g class="point"><path d="M265.61,286.32V266.94H362.65V286.32Z" style="vector-effect: none; opacity: 1; stroke-width: 0.5px; fill: rgb(239, 85, 59); fill-opacity: 1; stroke: rgb(229, 236, 246); stroke-opacity: 1;"/></g><g class="point"><path d="M386.9,258.87V234.52H483.94V258.87Z" style="vector-effect: none; opacity: 1; stroke-width: 0.5px; fill: rgb(239, 85, 59); fill-opacity: 1; stroke: rgb(229, 236, 246); stroke-opacity: 1;"/></g><g class="point"><path d="M508.19,188.05V150.81H605.23V188.05Z" style="vector-effect: none; opacity: 1; stroke-width: 0.5px; fill: rgb(239, 85, 59); fill-opacity: 1; stroke: rgb(229, 236, 246); stroke-opacity: 1;"/></g><g class="point"><path d="M629.48,141.41V90.99H726.52V141.41Z" style="vector-effect: none; opacity: 1; stroke-width: 0.5px; fill: rgb(239, 85, 59); fill-opacity: 1; stroke: rgb(229, 236, 246); stroke-opacity: 1;"/></g><g class="point"><path d="M750.77,134.33V72.14H847.81V134.33Z" style="vector-effect: none; opacity: 1; stroke-width: 0.5px; fill: rgb(239, 85, 59); fill-opacity: 1; stroke: rgb(229, 236, 246); stroke-opacity: 1;"/></g><g class="point"><path d="M872.06,182.04V121.71H969.1V182.04Z" style="vector-effect: none; opacity: 1; stroke-width: 0.5px; fill: rgb(239, 85, 59); fill-opacity: 1; stroke: rgb(229, 236, 246); stroke-opacity: 1;"/></g><g class="point"><path d="M993.35,234.41V177.21H1090.39V234.41Z" style="vector-effect: none; opacity: 1; stroke-width: 0.5px; fill: rgb(239, 85, 59); fill-opacity: 1; stroke: rgb(229, 236, 246); stroke-opacity: 1;"/></g><g class="point"><path d="M1114.64,248.98V193.23H1211.68V248.98Z" style="vector-effect: none; opacity: 1; stroke-width: 0.5px; fill: rgb(239, 85, 59); fill-opacity: 1; stroke: rgb(229, 236, 246); stroke-opacity: 1;"/></g></g></g><g class="trace bars" shape-rendering="crispEdges" style="opacity: 0.6;"><g class="points"><g class="point"><path d="M1235.93,370.35V322.82H1332.97V370.35Z" style="vector-effect: none; opacity: 1; stroke-width: 0.5px; fill: rgb(239, 85, 59); fill-opacity: 1; stroke: rgb(229, 236, 246); stroke-opacity: 1;"/></g></g></g><g class="trace bars" shape-rendering="crispEdges" style="opacity: 1;"><g class="points"><g class="point"><path d="M23.03,360.81V317.06H120.07V360.81Z" style="vector-effect: none; opacity: 1; stroke-width: 0.5px; fill: rgb(0, 204, 150); fill-opacity: 1; stroke: rgb(229, 236, 246); stroke-opacity: 1;"/></g><g class="point"><path d="M144.32,311.99V277H241.36V311.99Z" style="vector-effect: none; opacity: 1; stroke-width: 0.5px; fill: rgb(0, 204, 150); fill-opacity: 1; stroke: rgb(229, 236, 246); stroke-opacity: 1;"/></g><g class="point"><path d="M265.61,266.94V229.75H362.65V266.94Z" style="vector-effect: none; opacity: 1; stroke-width: 0.5px; fill: rgb(0, 204, 150); fill-opacity: 1; stroke: rgb(229, 236, 246); stroke-opacity: 1;"/></g><g class="point"><path d="M386.9,234.52V204.5H483.94V234.52Z" style="vector-effect: none; opacity: 1; stroke-width: 0.5px; fill: rgb(0, 204, 150); fill-opacity: 1; stroke: rgb(229, 236, 246); stroke-opacity: 1;"/></g><g class="point"><path d="M508.19,150.81V121.06H605.23V150.81Z" style="vector-effect: none; opacity: 1; stroke-width: 0.5px; fill: rgb(0, 204, 150); fill-opacity: 1; stroke: rgb(229, 236, 246); stroke-opacity: 1;"/></g><g class="point"><path d="M629.48,90.99V71.08H726.52V90.99Z" style="vector-effect: none; opacity: 1; stroke-width: 0.5px; fill: rgb(0, 204, 150); fill-opacity: 1; stroke: rgb(229, 236, 246); stroke-opacity: 1;"/></g><g class="point"><path d="M750.77,72.14V55.92H847.81V72.14Z" style="vector-effect: none; opacity: 1; stroke-width: 0.5px; fill: rgb(0, 204, 150); fill-opacity: 1; stroke: rgb(229, 236, 246); stroke-opacity: 1;"/></g><g class="point"><path d="M872.06,121.71V109.24H969.1V121.71Z" style="vector-effect: none; opacity: 1; stroke-width: 0.5px; fill: rgb(0, 204, 150); fill-opacity: 1; stroke: rgb(229, 236, 246); stroke-opacity: 1;"/></g><g class="point"><path d="M993.35,177.21V168.85H1090.39V177.21Z" style="vector-effect: none; opacity: 1; stroke-width: 0.5px; fill: rgb(0, 204, 150); fill-opacity: 1; stroke: rgb(229, 236, 246); stroke-opacity: 1;"/></g><g class="point"><path d="M1114.64,193.23V181.46H1211.68V193.23Z" style="vector-effect: none; opacity: 1; stroke-width: 0.5px; fill: rgb(0, 204, 150); fill-opacity: 1; stroke: rgb(229, 236, 246); stroke-opacity: 1;"/></g></g></g><g class="trace bars" shape-rendering="crispEdges" style="opacity: 0.6;"><g class="points"><g class="point"><path d="M1235.93,322.82V319.42H1332.97V322.82Z" style="vector-effect: none; opacity: 1; stroke-width: 0.5px; fill: rgb(0, 204, 150); fill-opacity: 1; stroke: rgb(229, 236, 246); stroke-opacity: 1;"/></g></g></g><g class="trace bars" shape-rendering="crispEdges" style="opacity: 1;"><g class="points"><g class="point"><path d="M23.03,317.06V305.05H120.07V317.06Z" style="vector-effect: none; opacity: 1; stroke-width: 0.5px; fill: rgb(171, 99, 250); fill-opacity: 1; stroke: rgb(229, 236, 246); stroke-opacity: 1;"/></g><g class="point"><path d="M144.32,277V262.89H241.36V277Z" style="vector-effect: none; opacity: 1; stroke-width: 0.5px; fill: rgb(171, 99, 250); fill-opacity: 1; stroke: rgb(229, 236, 246); stroke-opacity: 1;"/></g><g class="point"><path d="M265.61,229.75V213.46H362.65V229.75Z" style="vector-effect: none; opacity: 1; stroke-width: 0.5px; fill: rgb(171, 99, 250); fill-opacity: 1; stroke: rgb(229, 236, 246); stroke-opacity: 1;"/></g><g class="point"><path d="M386.9,204.5V188.43H483.94V204.5Z" style="vector-effect: none; opacity: 1; stroke-width: 0.5px; fill: rgb(171, 99, 250); fill-opacity: 1; stroke: rgb(229, 236, 246); stroke-opacity: 1;"/></g><g class="point"><path d="M508.19,121.06V105.36H605.23V121.06Z" style="vector-effect: none; opacity: 1; stroke-width: 0.5px; fill: rgb(171, 99, 250); fill-opacity: 1; stroke: rgb(229, 236, 246); stroke-opacity: 1;"/></g><g class="point"><path d="M629.48,71.08V48.19H726.52V71.08Z" style="vector-effect: none; opacity: 1; stroke-width: 0.5px; fill: rgb(171, 99, 250); fill-opacity: 1; stroke: rgb(229, 236, 246); stroke-opacity: 1;"/></g><g class="point"><path d="M750.77,55.92V36H847.81V55.92Z" style="vector-effect: none; opacity: 1; stroke-width: 0.5px; fill: rgb(171, 99, 250); fill-opacity: 1; stroke: rgb(229, 236, 246); stroke-opacity: 1;"/></g><g class="point"><path d="M872.06,109.24V91.61H969.1V109.24Z" style="vector-effect: none; opacity: 1; stroke-width: 0.5px; fill: rgb(171, 99, 250); fill-opacity: 1; stroke: rgb(229, 236, 246); stroke-opacity: 1;"/></g><g class="point"><path d="M993.35,168.85V154.92H1090.39V168.85Z" style="vector-effect: none; opacity: 1; stroke-width: 0.5px; fill: rgb(171, 99, 250); fill-opacity: 1; stroke: rgb(229, 236, 246); stroke-opacity: 1;"/></g><g class="point"><path d="M1114.64,181.46V165.7H1211.68V181.46Z" style="vector-effect: none; opacity: 1; stroke-width: 0.5px; fill: rgb(171, 99, 250); fill-opacity: 1; stroke: rgb(229, 236, 246); stroke-opacity: 1;"/></g></g></g><g class="trace bars" shape-rendering="crispEdges" style="opacity: 0.6;"><g class="points"><g class="point"><path d="M1235.93,319.42V308.37H1332.97V319.42Z" style="vector-effect: none; opacity: 1; stroke-width: 0.5px; fill: rgb(171, 99, 250); fill-opacity: 1; stroke: rgb(229, 236, 246); stroke-opacity: 1;"/></g></g></g></g></g><g class="xy2" transform="translate(80,100)" clip-path="url(#clip377177xy2plot)"><g class="scatterlayer mlayer"><g class="trace scatter trace623856" style="stroke-miterlimit: 2; opacity: 1;"><g class="fills"/><g class="errorbars"/><g class="lines"><path class="js-line" d="M71.55,598.6L192.84,551.71L314.13,485.49L435.42,467.38L556.71,397.08L678,330.58L799.29,364.68L920.58,426.37L1041.87,458.58L1163.16,559.26L1284.45,576.95" style="vector-effect: none; fill: none; stroke: rgb(0, 0, 0); stroke-opacity: 1; stroke-width: 2px; opacity: 1;"/></g><g class="points"><path class="point plotly-customdata" transform="translate(71.55,598.6)" d="M3,0A3,3 0 1,1 0,-3A3,3 0 0,1 3,0Z" style="opacity: 1; stroke-width: 0px; fill: rgb(0, 0, 0); fill-opacity: 1;"/><path class="point plotly-customdata" transform="translate(192.84,551.71)" d="M3,0A3,3 0 1,1 0,-3A3,3 0 0,1 3,0Z" style="opacity: 1; stroke-width: 0px; fill: rgb(0, 0, 0); fill-opacity: 1;"/><path class="point plotly-customdata" transform="translate(314.13,485.49)" d="M3,0A3,3 0 1,1 0,-3A3,3 0 0,1 3,0Z" style="opacity: 1; stroke-width: 0px; fill: rgb(0, 0, 0); fill-opacity: 1;"/><path class="point plotly-customdata" transform="translate(435.42,467.38)" d="M3,0A3,3 0 1,1 0,-3A3,3 0 0,1 3,0Z" style="opacity: 1; stroke-width: 0px; fill: rgb(0, 0, 0); fill-opacity: 1;"/><path class="point plotly-customdata" transform="translate(556.71,397.08)" d="M3,0A3,3 0 1,1 0,-3A3,3 0 0,1 3,0Z" style="opacity: 1; stroke-width: 0px; fill: rgb(0, 0, 0); fill-opacity: 1;"/><path class="point plotly-customdata" transform="translate(678,330.58)" d="M3,0A3,3 0 1,1 0,-3A3,3 0 0,1 3,0Z" style="opacity: 1; stroke-width: 0px; fill: rgb(0, 0, 0); fill-opacity: 1;"/><path class="point plotly-customdata" transform="translate(799.29,364.68)" d="M3,0A3,3 0 1,1 0,-3A3,3 0 0,1 3,0Z" style="opacity: 1; stroke-width: 0px; fill: rgb(0, 0, 0); fill-opacity: 1;"/><path class="point plotly-customdata" transform="translate(920.58,426.37)" d="M3,0A3,3 0 1,1 0,-3A3,3 0 0,1 3,0Z" style="opacity: 1; stroke-width: 0px; fill: rgb(0, 0, 0); fill-opacity: 1;"/><path class="point plotly-customdata" transform="translate(1041.87,458.58)" d="M3,0A3,3 0 1,1 0,-3A3,3 0 0,1 3,0Z" style="opacity: 1; stroke-width: 0px; fill: rgb(0, 0, 0); fill-opacity: 1;"/><path class="point plotly-customdata" transform="translate(1163.16,559.26)" d="M3,0A3,3 0 1,1 0,-3A3,3 0 0,1 3,0Z" style="opacity: 1; stroke-width: 0px; fill: rgb(0, 0, 0); fill-opacity: 1;"/><path class="point plotly-customdata" transform="translate(1284.45,576.95)" d="M3,0A3,3 0 1,1 0,-3A3,3 0 0,1 3,0Z" style="opacity: 1; stroke-width: 0px; fill: rgb(0, 0, 0); fill-opacity: 1;"/></g><g class="text"><g class="textpoint" transform="translate(0,-7.75)"><text x="71.55" y="598.6" text-anchor="middle" style="font-family: 'Vazirmatn FD'; font-size: 12px; fill: rgb(42, 63, 95); fill-opacity: 1; white-space: pre;">1.60٪</text></g><g class="textpoint" transform="translate(0,-7.75)"><text x="192.84" y="551.71" text-anchor="middle" style="font-family: 'Vazirmatn FD'; font-size: 12px; fill: rgb(42, 63, 95); fill-opacity: 1; white-space: pre;">1.68٪</text></g><g class="textpoint" transform="translate(0,-7.75)"><text x="314.13" y="485.49" text-anchor="middle" style="font-family: 'Vazirmatn FD'; font-size: 12px; fill: rgb(42, 63, 95); fill-opacity: 1; white-space: pre;">1.79٪</text></g><g class="textpoint" transform="translate(0,-7.75)"><text x="435.42" y="467.38" text-anchor="middle" style="font-family: 'Vazirmatn FD'; font-size: 12px; fill: rgb(42, 63, 95); fill-opacity: 1; white-space: pre;">1.82٪</text></g><g class="textpoint" transform="translate(0,-7.75)"><text x="556.71" y="397.08" text-anchor="middle" style="font-family: 'Vazirmatn FD'; font-size: 12px; fill: rgb(42, 63, 95); fill-opacity: 1; white-space: pre;">1.94٪</text></g><g class="textpoint" transform="translate(0,-7.75)"><text x="678" y="330.58" text-anchor="middle" style="font-family: 'Vazirmatn FD'; font-size: 12px; fill: rgb(42, 63, 95); fill-opacity: 1; white-space: pre;">2.05٪</text></g><g class="textpoint" transform="translate(0,-7.75)"><text x="799.29" y="364.68" text-anchor="middle" style="font-family: 'Vazirmatn FD'; font-size: 12px; fill: rgb(42, 63, 95); fill-opacity: 1; white-space: pre;">1.99٪</text></g><g class="textpoint" transform="translate(0,-7.75)"><text x="920.58" y="426.37" text-anchor="middle" style="font-family: 'Vazirmatn FD'; font-size: 12px; fill: rgb(42, 63, 95); fill-opacity: 1; white-space: pre;">1.89٪</text></g><g class="textpoint" transform="translate(0,-7.75)"><text x="1041.87" y="458.58" text-anchor="middle" style="font-family: 'Vazirmatn FD'; font-size: 12px; fill: rgb(42, 63, 95); fill-opacity: 1; white-space: pre;">1.84٪</text></g><g class="textpoint" transform="translate(0,-7.75)"><text x="1163.16" y="559.26" text-anchor="middle" style="font-family: 'Vazirmatn FD'; font-size: 12px; fill: rgb(42, 63, 95); fill-opacity: 1; white-space: pre;">1.67٪</text></g><g class="textpoint" transform="translate(0,-7.75)"><text x="1284.45" y="576.95" text-anchor="middle" style="font-family: 'Vazirmatn FD'; font-size: 12px; fill: rgb(42, 63, 95); fill-opacity: 1; white-space: pre;">1.64٪</text></g></g></g></g></g></g><g class="zerolinelayer-above"/><path class="xlines-above crisp" d="M0,0" style="fill: none;"/><path class="ylines-above crisp" d="M0,0" style="fill: none;"/><g class="overlines-above"><path class="xy2-x crisp" d="M0,0" style="fill: none;"/><path class="xy2-y crisp" d="M0,0" style="fill: none;"/></g><g class="xaxislayer-above"><g class="xtick"><text text-anchor="middle" x="0" y="834" transform="translate(151.55,0)" style="font-family: 'Vazirmatn FD'; font-size: 13px; fill: rgb(42, 63, 95); fill-opacity: 1; white-space: pre;">2015</text></g><g class="xtick"><text text-anchor="middle" x="0" y="834" style="font-family: 'Vazirmatn FD'; font-size: 13px; fill: rgb(42, 63, 95); fill-opacity: 1; white-space: pre;" transform="translate(272.84000000000003,0)">2016</text></g><g class="xtick"><text text-anchor="middle" x="0" y="834" style="font-family: 'Vazirmatn FD'; font-size: 13px; fill: rgb(42, 63, 95); fill-opacity: 1; white-space: pre;" transform="translate(394.13,0)">2017</text></g><g class="xtick"><text text-anchor="middle" x="0" y="834" style="font-family: 'Vazirmatn FD'; font-size: 13px; fill: rgb(42, 63, 95); fill-opacity: 1; white-space: pre;" transform="translate(515.4200000000001,0)">2018</text></g><g class="xtick"><text text-anchor="middle" x="0" y="834" style="font-family: 'Vazirmatn FD'; font-size: 13px; fill: rgb(42, 63, 95); fill-opacity: 1; white-space: pre;" transform="translate(636.71,0)">2019</text></g><g class="xtick"><text text-anchor="middle" x="0" y="834" style="font-family: 'Vazirmatn FD'; font-size: 13px; fill: rgb(42, 63, 95); fill-opacity: 1; white-space: pre;" transform="translate(758,0)">2020</text></g><g class="xtick"><text text-anchor="middle" x="0" y="834" style="font-family: 'Vazirmatn FD'; font-size: 13px; fill: rgb(42, 63, 95); fill-opacity: 1; white-space: pre;" transform="translate(879.29,0)">2021</text></g><g class="xtick"><text text-anchor="middle" x="0" y="834" style="font-family: 'Vazirmatn FD'; font-size: 13px; fill: rgb(42, 63, 95); fill-opacity: 1; white-space: pre;" transform="translate(1000.58,0)">2022</text></g><g class="xtick"><text text-anchor="middle" x="0" y="834" style="font-family: 'Vazirmatn FD'; font-size: 13px; fill: rgb(42, 63, 95); fill-opacity: 1; white-space: pre;" transform="translate(1121.87,0)">2023</text></g><g class="xtick"><text text-anchor="middle" x="0" y="834" style="font-family: 'Vazirmatn FD'; font-size: 13px; fill: rgb(42, 63, 95); fill-opacity: 1; white-space: pre;" transform="translate(1243.16,0)">2024</text></g><g class="xtick"><text text-anchor="middle" x="0" y="834" style="font-family: 'Vazirmatn FD'; font-size: 13px; fill: rgb(42, 63, 95); fill-opacity: 1; white-space: pre;" transform="translate(1364.45,0)">2025</text></g></g><g class="yaxislayer-above"><g class="ytick"><text text-anchor="end" x="79" y="4.55" transform="translate(0,820)" style="font-family: 'Vazirmatn FD'; font-size: 13px; fill: rgb(42, 63, 95); fill-opacity: 1; white-space: pre;">0</text></g><g class="ytick"><text text-anchor="end" x="79" y="4.55" style="font-family: 'Vazirmatn FD'; font-size: 13px; fill: rgb(42, 63, 95); fill-opacity: 1; white-space: pre;" transform="translate(0,700.15)">10k</text></g><g class="ytick"><text text-anchor="end" x="79" y="4.55" style="font-family: 'Vazirmatn FD'; font-size: 13px; fill: rgb(42, 63, 95); fill-opacity: 1; white-space: pre;" transform="translate(0,580.29)">20k</text></g><g class="ytick"><text text-anchor="end" x="79" y="4.55" style="font-family: 'Vazirmatn FD'; font-size: 13px; fill: rgb(42, 63, 95); fill-opacity: 1; white-space: pre;" transform="translate(0,460.44)">30k</text></g><g class="ytick"><text text-anchor="end" x="79" y="4.55" style="font-family: 'Vazirmatn FD'; font-size: 13px; fill: rgb(42, 63, 95); fill-opacity: 1; white-space: pre;" transform="translate(0,340.58000000000004)">40k</text></g><g class="ytick"><text text-anchor="end" x="79" y="4.55" style="font-family: 'Vazirmatn FD'; font-size: 13px; fill: rgb(42, 63, 95); fill-opacity: 1; white-space: pre;" transform="translate(0,220.73000000000002)">50k</text></g><g class="ytick"><text text-anchor="end" x="79" y="4.55" style="font-family: 'Vazirmatn FD'; font-size: 13px; fill: rgb(42, 63, 95); fill-opacity: 1; white-space: pre;" transform="translate(0,100.87)">60k</text></g></g><g class="overaxes-above"><g class="xy2-x"/><g class="xy2-y"/></g></g><g class="subplot xy2"/></g><g class="polarlayer"/><g class="smithlayer"/><g class="ternarylayer"/><g class="geolayer"/><g class="funnelarealayer"/><g class="pielayer"/><g class="iciclelayer"/><g class="treemaplayer"/><g class="sunburstlayer"/><g class="glimages"/><defs id="topdefs-377177"><g class="clips"/><clipPath id="legend377177"><rect width="125" height="124" x="0" y="0"/></clipPath></defs><g class="layer-above"><g class="imagelayer"/><g class="shapelayer"/></g><g class="infolayer"><g class="legend" pointer-events="all" transform="translate(1463.1200000000001,100)"><rect class="bg" shape-rendering="crispEdges" style="stroke: rgb(68, 68, 68); stroke-opacity: 1; fill: rgb(255, 255, 255); fill-opacity: 1; stroke-width: 0px;" width="125" height="124" x="0" y="0"/><g class="scrollbox" transform="" clip-path="url(#legend377177)"><text class="legendtitletext" text-anchor="start" x="2" y="18.2" style="font-family: 'Vazirmatn FD'; font-size: 14px; fill: rgb(42, 63, 95); fill-opacity: 1; white-space: pre;">نوع مقاله</text><g class="groups"><g class="traces" transform="translate(0,32.7)" style="opacity: 1;"><text class="legendtext" text-anchor="start" x="40" y="4.680000000000001" style="font-family: 'Vazirmatn FD'; font-size: 12px; fill: rgb(42, 63, 95); fill-opacity: 1; white-space: pre;">سهم از جهان</text><g class="layers" style="opacity: 1;"><g class="legendfill"/><g class="legendlines"><path class="js-line" d="M5,0h30" style="fill: none; stroke: rgb(0, 0, 0); stroke-opacity: 1; stroke-width: 2px;"/></g><g class="legendsymbols"><g class="legendpoints"><path class="scatterpts" transform="translate(20,0)" d="M3,0A3,3 0 1,1 0,-3A3,3 0 0,1 3,0Z" style="opacity: 1; stroke-width: 0px; fill: rgb(0, 0, 0); fill-opacity: 1;"/></g></g></g><rect class="legendtoggle" x="0" y="-9.5" width="119.328125" height="19" style="fill: rgb(0, 0, 0); fill-opacity: 0;"/></g><g class="traces" transform="translate(0,51.7)" style="opacity: 1;"><text class="legendtext" text-anchor="start" x="40" y="4.680000000000001" style="font-family: 'Vazirmatn FD'; font-size: 12px; fill: rgb(42, 63, 95); fill-opacity: 1; white-space: pre;">سایر بروندادها</text><g class="layers" style="opacity: 1;"><g class="legendfill"/><g class="legendlines"/><g class="legendsymbols"><g class="legendpoints"><path class="legendundefined" d="M6,6H-6V-6H6Z" transform="translate(20,0)" style="stroke-width: 0.5px; fill: rgb(171, 99, 250); fill-opacity: 1; stroke: rgb(229, 236, 246); stroke-opacity: 1;"/></g></g></g><rect class="legendtoggle" x="0" y="-9.5" width="119.328125" height="19" style="fill: rgb(0, 0, 0); fill-opacity: 0;"/></g><g class="traces" transform="translate(0,70.7)" style="opacity: 1;"><text class="legendtext" text-anchor="start" x="40" y="4.680000000000001" style="font-family: 'Vazirmatn FD'; font-size: 12px; fill: rgb(42, 63, 95); fill-opacity: 1; white-space: pre;">مقالات کنفرانسی</text><g class="layers" style="opacity: 1;"><g class="legendfill"/><g class="legendlines"/><g class="legendsymbols"><g class="legendpoints"><path class="legendundefined" d="M6,6H-6V-6H6Z" transform="translate(20,0)" style="stroke-width: 0.5px; fill: rgb(0, 204, 150); fill-opacity: 1; stroke: rgb(229, 236, 246); stroke-opacity: 1;"/></g></g></g><rect class="legendtoggle" x="0" y="-9.5" width="119.328125" height="19" style="fill: rgb(0, 0, 0); fill-opacity: 0;"/></g><g class="traces" transform="translate(0,89.7)" style="opacity: 1;"><text class="legendtext" text-anchor="start" x="40" y="4.680000000000001" style="font-family: 'Vazirmatn FD'; font-size: 12px; fill: rgb(42, 63, 95); fill-opacity: 1; white-space: pre;">مقالات مروری</text><g class="layers" style="opacity: 1;"><g class="legendfill"/><g class="legendlines"/><g class="legendsymbols"><g class="legendpoints"><path class="legendundefined" d="M6,6H-6V-6H6Z" transform="translate(20,0)" style="stroke-width: 0.5px; fill: rgb(239, 85, 59); fill-opacity: 1; stroke: rgb(229, 236, 246); stroke-opacity: 1;"/></g></g></g><rect class="legendtoggle" x="0" y="-9.5" width="119.328125" height="19" style="fill: rgb(0, 0, 0); fill-opacity: 0;"/></g><g class="traces" transform="translate(0,108.7)" style="opacity: 1;"><text class="legendtext" text-anchor="start" x="40" y="4.680000000000001" style="font-family: 'Vazirmatn FD'; font-size: 12px; fill: rgb(42, 63, 95); fill-opacity: 1; white-space: pre;">مقالات پژوهشی</text><g class="layers" style="opacity: 1;"><g class="legendfill"/><g class="legendlines"/><g class="legendsymbols"><g class="legendpoints"><path class="legendundefined" d="M6,6H-6V-6H6Z" transform="translate(20,0)" style="stroke-width: 0.5px; fill: rgb(99, 110, 250); fill-opacity: 1; stroke: rgb(229, 236, 246); stroke-opacity: 1;"/></g></g></g><rect class="legendtoggle" x="0" y="-9.5" width="119.328125" height="19" style="fill: rgb(0, 0, 0); fill-opacity: 0;"/></g></g></g><rect class="scrollbar" rx="20" ry="3" width="0" height="0" style="fill: rgb(128, 139, 164); fill-opacity: 1;" x="0" y="0"/></g><g class="g-gtitle"><text class="gtitle" x="800" y="50" text-anchor="middle" dy="0.7em" style="opacity: 1; font-family: 'Vazirmatn FD Black'; font-size: 17px; fill: rgb(42, 63, 95); fill-opacity: 1; white-space: pre;">فراوانی و سهم کل بروندادهای ایران در ۱۰ سال اخیر</text></g><g class="g-xtitle"><text class="xtitle" x="758" y="865.3" text-anchor="middle" style="opacity: 1; font-family: 'Vazirmatn FD'; font-size: 14px; fill: rgb(42, 63, 95); fill-opacity: 1; white-space: pre;">سال</text></g><g class="g-ytitle"><text class="ytitle" transform="rotate(-90,38.959375,460)" x="38.959375" y="460" text-anchor="middle" style="opacity: 1; font-family: 'Vazirmatn FD'; font-size: 14px; fill: rgb(42, 63, 95); fill-opacity: 1; white-space: pre;">فراوانی مقالات</text></g><g class="g-y2title"><text class="y2title" transform="rotate(-90,1461.3,460)" x="1461.3" y="460" text-anchor="middle" style="opacity: 1; font-family: 'Vazirmatn FD'; font-size: 14px; fill: rgb(42, 63, 95); fill-opacity: 1; white-space: pre;">سهم از کل مقالات جهان (٪)</text></g></g></svg>