<svg class="main-svg" xmlns="http://www.w3.org/2000/svg" xmlns:xlink="http://www.w3.org/1999/xlink" width="1600" height="900" style="" viewBox="0 0 1600 900"><rect x="0" y="0" width="1600" height="900" style="fill: rgb(255, 255, 255); fill-opacity: 1;"/><defs id="defs-a9e1ed"><g class="clips"><clipPath id="clipa9e1edxyplot" class="plotclip"><rect width="1367" height="720"/></clipPath><clipPath class="axesclip" id="clipa9e1edx"><rect x="80" y="0" width="1367" height="900"/></clipPath><clipPath class="axesclip" id="clipa9e1edy"><rect x="0" y="100" width="1600" height="720"/></clipPath><clipPath class="axesclip" id="clipa9e1edxy"><rect x="80" y="100" width="1367" height="720"/></clipPath></g><g class="gradients"/><g class="patterns"/></defs><g class="bglayer"><rect class="bg" x="80" y="100" width="1367" height="720" style="fill: rgb(229, 236, 246); fill-opacity: 1; stroke-width: 0;"/></g><g class="layer-below"><g class="imagelayer"/><g class="shapelayer"/></g><g class="cartesianlayer"><g class="subplot xy"><g class="layer-subplot"><g class="shapelayer"/><g class="imagelayer"/></g><g class="minor-gridlayer"><g class="x"/><g class="y"/></g><g class="gridlayer"><g class="x"><path class="xgrid crisp" transform="translate(260.5,0)" d="M0,100v720" style="stroke: rgb(255, 255, 255); stroke-opacity: 1; stroke-width: 1px;"/><path class="xgrid crisp" transform="translate(463.54,0)" d="M0,100v720" style="stroke: rgb(255, 255, 255); stroke-opacity: 1; stroke-width: 1px;"/><path class="xgrid crisp" transform="translate(666.59,0)" d="M0,100v720" style="stroke: rgb(255, 255, 255); stroke-opacity: 1; stroke-width: 1px;"/><path class="xgrid crisp" transform="translate(869.63,0)" d="M0,100v720" style="stroke: rgb(255, 255, 255); stroke-opacity: 1; stroke-width: 1px;"/><path class="xgrid crisp" transform="translate(1072.6799999999998,0)" d="M0,100v720" style="stroke: rgb(255, 255, 255); stroke-opacity: 1; stroke-width: 1px;"/><path class="xgrid crisp" transform="translate(1275.72,0)" d="M0,100v720" style="stroke: rgb(255, 255, 255); stroke-opacity: 1; stroke-width: 1px;"/></g><g class="y"><path class="ygrid crisp" transform="translate(0,770.58)" d="M80,0h1367" style="stroke: rgb(255, 255, 255); stroke-opacity: 1; stroke-width: 1px;"/><path class="ygrid crisp" transform="translate(0,687.29)" d="M80,0h1367" style="stroke: rgb(255, 255, 255); stroke-opacity: 1; stroke-width: 1px;"/><path class="ygrid crisp" transform="translate(0,604)" d="M80,0h1367" style="stroke: rgb(255, 255, 255); stroke-opacity: 1; stroke-width: 1px;"/><path class="ygrid crisp" transform="translate(0,520.71)" d="M80,0h1367" style="stroke: rgb(255, 255, 255); stroke-opacity: 1; stroke-width: 1px;"/><path class="ygrid crisp" transform="translate(0,437.42)" d="M80,0h1367" style="stroke: rgb(255, 255, 255); stroke-opacity: 1; stroke-width: 1px;"/><path class="ygrid crisp" transform="translate(0,354.13)" d="M80,0h1367" style="stroke: rgb(255, 255, 255); stroke-opacity: 1; stroke-width: 1px;"/><path class="ygrid crisp" transform="translate(0,270.83000000000004)" d="M80,0h1367" style="stroke: rgb(255, 255, 255); stroke-opacity: 1; stroke-width: 1px;"/><path class="ygrid crisp" transform="translate(0,187.54000000000002)" d="M80,0h1367" style="stroke: rgb(255, 255, 255); stroke-opacity: 1; stroke-width: 1px;"/><path class="ygrid crisp" transform="translate(0,104.25)" d="M80,0h1367" style="stroke: rgb(255, 255, 255); stroke-opacity: 1; stroke-width: 1px;"/></g></g><g class="zerolinelayer"/><g class="layer-between"><g class="shapelayer"/><g class="imagelayer"/></g><path class="xlines-below"/><path class="ylines-below"/><g class="overlines-below"/><g class="xaxislayer-below"/><g class="yaxislayer-below"/><g class="overaxes-below"/><g class="overplot"><g class="xy" transform="translate(80,100)" clip-path="url(#clipa9e1edxyplot)"><g class="scatterlayer mlayer"><g class="trace scatter tracece9e8f" style="stroke-miterlimit: 2; opacity: 1;"><g class="fills"/><g class="errorbars"/><g class="lines"/><g class="points"><path class="point" transform="translate(141.46,319.92)" d="M11.45,0A11.45,11.45 0 1,1 0,-11.45A11.45,11.45 0 0,1 11.45,0Z" style="opacity: 0.5; stroke-width: 0.3px; fill: rgb(102, 140, 200); fill-opacity: 1; stroke: rgb(0, 0, 0); stroke-opacity: 1;"/><path class="point" transform="translate(135.63,448.2)" d="M11.3,0A11.3,11.3 0 1,1 0,-11.3A11.3,11.3 0 0,1 11.3,0Z" style="opacity: 0.9; stroke-width: 0.3px; fill: rgb(102, 140, 200); fill-opacity: 1; stroke: rgb(0, 0, 0); stroke-opacity: 1;"/></g><g class="text"><g class="textpoint"/><g class="textpoint" transform="translate(0,2.5)"><text x="135.63" y="448.2" text-anchor="middle" style="font-family: 'Vazirmatn FD'; font-size: 10px; fill: rgb(0, 0, 0); fill-opacity: 1; white-space: pre;">برزیل</text></g></g></g><g class="trace scatter traced5c034" style="stroke-miterlimit: 2; opacity: 0.6;"><g class="fills"/><g class="errorbars"/><g class="lines"><path class="js-line" d="M141.46,319.92L135.63,448.2" style="vector-effect: none; fill: none; stroke: rgb(0, 0, 0); stroke-opacity: 1; stroke-width: 1px; opacity: 1;"/></g><g class="points"><path class="point" transform="translate(141.46,319.92)" d="M0,0Z" style="opacity: 0.7; stroke-width: 1px; fill: rgb(0, 0, 0); fill-opacity: 1; stroke: rgb(255, 255, 255); stroke-opacity: 1;"/><path class="point" transform="translate(138.54,384.06)" d="M0,0L9.600931305240804,-8.764822763299158A13,13,182.60661423781931,0,1,-8.76482276329916,-9.600931305240803Z" style="opacity: 0.7; stroke-width: 1px; fill: rgb(0, 0, 0); fill-opacity: 1; stroke: rgb(255, 255, 255); stroke-opacity: 1;"/><path class="point" transform="translate(135.63,448.2)" d="M0,0L0,0A0,0,182.5976997257319,0,1,0,0Z" style="opacity: 0.7; stroke-width: 1px; fill: rgb(0, 0, 0); fill-opacity: 1; stroke: rgb(255, 255, 255); stroke-opacity: 1;"/></g><g class="text"/></g><g class="trace scatter trace5da8ec" style="stroke-miterlimit: 2; opacity: 1;"><g class="fills"/><g class="errorbars"/><g class="lines"/><g class="points"><path class="point" transform="translate(264.81,515.82)" d="M33.61,0A33.61,33.61 0 1,1 0,-33.61A33.61,33.61 0 0,1 33.61,0Z" style="opacity: 0.5; stroke-width: 0.3px; fill: rgb(255, 180, 102); fill-opacity: 1; stroke: rgb(0, 0, 0); stroke-opacity: 1;"/><path class="point" transform="translate(197.21,460.41)" d="M44.41,0A44.41,44.41 0 1,1 0,-44.41A44.41,44.41 0 0,1 44.41,0Z" style="opacity: 0.9; stroke-width: 0.3px; fill: rgb(255, 180, 102); fill-opacity: 1; stroke: rgb(0, 0, 0); stroke-opacity: 1;"/></g><g class="text"><g class="textpoint"/><g class="textpoint" transform="translate(0,2.5)"><text x="197.21" y="460.41" text-anchor="middle" style="font-family: 'Vazirmatn FD'; font-size: 10px; fill: rgb(0, 0, 0); fill-opacity: 1; white-space: pre;">چین</text></g></g></g><g class="trace scatter traced03cfe" style="stroke-miterlimit: 2; opacity: 0.6;"><g class="fills"/><g class="errorbars"/><g class="lines"><path class="js-line" d="M264.81,515.82L197.21,460.41" style="vector-effect: none; fill: none; stroke: rgb(0, 0, 0); stroke-opacity: 1; stroke-width: 1px; opacity: 1;"/></g><g class="points"><path class="point" transform="translate(264.81,515.82)" d="M0,0Z" style="opacity: 0.7; stroke-width: 1px; fill: rgb(0, 0, 0); fill-opacity: 1; stroke: rgb(255, 255, 255); stroke-opacity: 1;"/><path class="point" transform="translate(231.01,488.11)" d="M0,0L1.2808452636128376,12.936747481909066A13,13,-50.65432949148342,0,1,12.936747481909066,-1.2808452636128402Z" style="opacity: 0.7; stroke-width: 1px; fill: rgb(0, 0, 0); fill-opacity: 1; stroke: rgb(255, 255, 255); stroke-opacity: 1;"/><path class="point" transform="translate(197.21,460.41)" d="M0,0L0,0A0,0,-50.664468707346686,0,1,0,0Z" style="opacity: 0.7; stroke-width: 1px; fill: rgb(0, 0, 0); fill-opacity: 1; stroke: rgb(255, 255, 255); stroke-opacity: 1;"/></g><g class="text"/></g><g class="trace scatter trace2fa3fc" style="stroke-miterlimit: 2; opacity: 1;"><g class="fills"/><g class="errorbars"/><g class="lines"/><g class="points"><path class="point" transform="translate(472.24,249.31)" d="M24.77,0A24.77,24.77 0 1,1 0,-24.77A24.77,24.77 0 0,1 24.77,0Z" style="opacity: 0.5; stroke-width: 0.3px; fill: rgb(179, 179, 179); fill-opacity: 1; stroke: rgb(0, 0, 0); stroke-opacity: 1;"/><path class="point" transform="translate(492.2,304.99)" d="M24.26,0A24.26,24.26 0 1,1 0,-24.26A24.26,24.26 0 0,1 24.26,0Z" style="opacity: 0.9; stroke-width: 0.3px; fill: rgb(179, 179, 179); fill-opacity: 1; stroke: rgb(0, 0, 0); stroke-opacity: 1;"/></g><g class="text"><g class="textpoint"/><g class="textpoint" transform="translate(0,2.5)"><text x="492.2" y="304.99" text-anchor="middle" style="font-family: 'Vazirmatn FD'; font-size: 10px; fill: rgb(0, 0, 0); fill-opacity: 1; white-space: pre;">آلمان</text></g></g></g><g class="trace scatter tracefba3bd" style="stroke-miterlimit: 2; opacity: 0.6;"><g class="fills"/><g class="errorbars"/><g class="lines"><path class="js-line" d="M472.24,249.31L492.2,304.99" style="vector-effect: none; fill: none; stroke: rgb(0, 0, 0); stroke-opacity: 1; stroke-width: 1px; opacity: 1;"/></g><g class="points"><path class="point" transform="translate(472.24,249.31)" d="M0,0Z" style="opacity: 0.7; stroke-width: 1px; fill: rgb(0, 0, 0); fill-opacity: 1; stroke: rgb(255, 255, 255); stroke-opacity: 1;"/><path class="point" transform="translate(482.22,277.15)" d="M0,0L5.551223162022227,-11.755165732792879A13,13,160.27841041527967,0,1,-11.75516573279288,-5.551223162022224Z" style="opacity: 0.7; stroke-width: 1px; fill: rgb(0, 0, 0); fill-opacity: 1; stroke: rgb(255, 255, 255); stroke-opacity: 1;"/><path class="point" transform="translate(492.2,304.99)" d="M0,0L0,0A0,0,160.27841041527978,0,1,0,0Z" style="opacity: 0.7; stroke-width: 1px; fill: rgb(0, 0, 0); fill-opacity: 1; stroke: rgb(255, 255, 255); stroke-opacity: 1;"/></g><g class="text"/></g><g class="trace scatter trace1075c1" style="stroke-miterlimit: 2; opacity: 1;"><g class="fills"/><g class="errorbars"/><g class="lines"/><g class="points"><path class="point" transform="translate(357.98,507.56)" d="M17.19,0A17.19,17.19 0 1,1 0,-17.19A17.19,17.19 0 0,1 17.19,0Z" style="opacity: 0.5; stroke-width: 0.3px; fill: rgb(180, 151, 231); fill-opacity: 1; stroke: rgb(0, 0, 0); stroke-opacity: 1;"/><path class="point" transform="translate(349.27,512.32)" d="M21.27,0A21.27,21.27 0 1,1 0,-21.27A21.27,21.27 0 0,1 21.27,0Z" style="opacity: 0.9; stroke-width: 0.3px; fill: rgb(180, 151, 231); fill-opacity: 1; stroke: rgb(0, 0, 0); stroke-opacity: 1;"/></g><g class="text"><g class="textpoint"/><g class="textpoint" transform="translate(0,2.5)"><text x="349.27" y="512.32" text-anchor="middle" style="font-family: 'Vazirmatn FD'; font-size: 10px; fill: rgb(0, 0, 0); fill-opacity: 1; white-space: pre;">هند</text></g></g></g><g class="trace scatter tracee23bbe" style="stroke-miterlimit: 2; opacity: 0.6;"><g class="fills"/><g class="errorbars"/><g class="lines"><path class="js-line" d="M357.98,507.56L349.27,512.32" style="vector-effect: none; fill: none; stroke: rgb(0, 0, 0); stroke-opacity: 1; stroke-width: 1px; opacity: 1;"/></g><g class="points"><path class="point" transform="translate(357.98,507.56)" d="M0,0Z" style="opacity: 0.7; stroke-width: 1px; fill: rgb(0, 0, 0); fill-opacity: 1; stroke: rgb(255, 255, 255); stroke-opacity: 1;"/><path class="point" transform="translate(353.63,509.94)" d="M0,0L12.476464386643372,3.652100273653451A13,13,241.3157650269715,0,1,3.6521002736534482,-12.476464386643373Z" style="opacity: 0.7; stroke-width: 1px; fill: rgb(0, 0, 0); fill-opacity: 1; stroke: rgb(255, 255, 255); stroke-opacity: 1;"/><path class="point" transform="translate(349.27,512.32)" d="M0,0L0,0A0,0,241.3711290944646,0,1,0,0Z" style="opacity: 0.7; stroke-width: 1px; fill: rgb(0, 0, 0); fill-opacity: 1; stroke: rgb(255, 255, 255); stroke-opacity: 1;"/></g><g class="text"/></g><g class="trace scatter trace9033c5" style="stroke-miterlimit: 2; opacity: 1;"><g class="fills"/><g class="errorbars"/><g class="lines"/><g class="points"><path class="point" transform="translate(157.84,593.6)" d="M9.8,0A9.8,9.8 0 1,1 0,-9.8A9.8,9.8 0 0,1 9.8,0Z" style="opacity: 0.5; stroke-width: 1px; fill: rgb(139, 224, 164); fill-opacity: 1; stroke: rgb(255, 0, 0); stroke-opacity: 1;"/><path class="point" transform="translate(79.52,526.38)" d="M9.26,0A9.26,9.26 0 1,1 0,-9.26A9.26,9.26 0 0,1 9.26,0Z" style="opacity: 0.9; stroke-width: 1px; fill: rgb(139, 224, 164); fill-opacity: 1; stroke: rgb(255, 0, 0); stroke-opacity: 1;"/></g><g class="text"><g class="textpoint"/><g class="textpoint" transform="translate(0,2.5)"><text x="79.52" y="526.38" text-anchor="middle" style="font-family: 'Vazirmatn FD'; font-size: 10px; fill: rgb(0, 0, 0); fill-opacity: 1; white-space: pre;">ایران</text></g></g></g><g class="trace scatter trace89c1a7" style="stroke-miterlimit: 2; opacity: 0.6;"><g class="fills"/><g class="errorbars"/><g class="lines"><path class="js-line" d="M157.84,593.6L79.52,526.38" style="vector-effect: none; fill: none; stroke: rgb(0, 0, 0); stroke-opacity: 1; stroke-width: 1px; opacity: 1;"/></g><g class="points"><path class="point" transform="translate(157.84,593.6)" d="M0,0Z" style="opacity: 0.7; stroke-width: 1px; fill: rgb(0, 0, 0); fill-opacity: 1; stroke: rgb(255, 255, 255); stroke-opacity: 1;"/><path class="point" transform="translate(118.68,559.99)" d="M0,0L0.9886089236490276,12.962355202511677A13,13,-49.36137362786201,0,1,12.962355202511677,-0.9886089236490294Z" style="opacity: 0.7; stroke-width: 1px; fill: rgb(0, 0, 0); fill-opacity: 1; stroke: rgb(255, 255, 255); stroke-opacity: 1;"/><path class="point" transform="translate(79.52,526.38)" d="M0,0L0,0A0,0,-49.36137362786201,0,1,0,0Z" style="opacity: 0.7; stroke-width: 1px; fill: rgb(0, 0, 0); fill-opacity: 1; stroke: rgb(255, 255, 255); stroke-opacity: 1;"/></g><g class="text"/></g><g class="trace scatter trace2dc528" style="stroke-miterlimit: 2; opacity: 1;"><g class="fills"/><g class="errorbars"/><g class="lines"/><g class="points"><path class="point" transform="translate(355.26,192.81)" d="M8.19,0A8.19,8.19 0 1,1 0,-8.19A8.19,8.19 0 0,1 8.19,0Z" style="opacity: 0.5; stroke-width: 0.3px; fill: rgb(201, 219, 116); fill-opacity: 1; stroke: rgb(0, 0, 0); stroke-opacity: 1;"/><path class="point" transform="translate(414.89,148.48)" d="M8.56,0A8.56,8.56 0 1,1 0,-8.56A8.56,8.56 0 0,1 8.56,0Z" style="opacity: 0.9; stroke-width: 0.3px; fill: rgb(201, 219, 116); fill-opacity: 1; stroke: rgb(0, 0, 0); stroke-opacity: 1;"/></g><g class="text"><g class="textpoint"/><g class="textpoint" transform="translate(0,2.5)"><text x="414.89" y="148.48" text-anchor="middle" style="font-family: 'Vazirmatn FD'; font-size: 10px; fill: rgb(0, 0, 0); fill-opacity: 1; white-space: pre;">اسرائیل</text></g></g></g><g class="trace scatter trace4f988d" style="stroke-miterlimit: 2; opacity: 0.6;"><g class="fills"/><g class="errorbars"/><g class="lines"><path class="js-line" d="M355.26,192.81L414.89,148.48" style="vector-effect: none; fill: none; stroke: rgb(0, 0, 0); stroke-opacity: 1; stroke-width: 1px; opacity: 1;"/></g><g class="points"><path class="point" transform="translate(355.26,192.81)" d="M0,0Z" style="opacity: 0.7; stroke-width: 1px; fill: rgb(0, 0, 0); fill-opacity: 1; stroke: rgb(255, 255, 255); stroke-opacity: 1;"/><path class="point" transform="translate(385.08,170.64)" d="M0,0L-12.861511612707613,-1.8924901680556463A13,13,53.37064514685607,0,1,-1.8924901680556436,12.861511612707613Z" style="opacity: 0.7; stroke-width: 1px; fill: rgb(0, 0, 0); fill-opacity: 1; stroke: rgb(255, 255, 255); stroke-opacity: 1;"/><path class="point" transform="translate(414.89,148.48)" d="M0,0L0,0A0,0,53.37382081644668,0,1,0,0Z" style="opacity: 0.7; stroke-width: 1px; fill: rgb(0, 0, 0); fill-opacity: 1; stroke: rgb(255, 255, 255); stroke-opacity: 1;"/></g><g class="text"/></g><g class="trace scatter tracee11acc" style="stroke-miterlimit: 2; opacity: 1;"><g class="fills"/><g class="errorbars"/><g class="lines"/><g class="points"><path class="point" transform="translate(1276.09,579.76)" d="M20.17,0A20.17,20.17 0 1,1 0,-20.17A20.17,20.17 0 0,1 20.17,0Z" style="opacity: 0.5; stroke-width: 0.3px; fill: rgb(254, 136, 177); fill-opacity: 1; stroke: rgb(0, 0, 0); stroke-opacity: 1;"/><path class="point" transform="translate(1145.86,663.02)" d="M18.76,0A18.76,18.76 0 1,1 0,-18.76A18.76,18.76 0 0,1 18.76,0Z" style="opacity: 0.9; stroke-width: 0.3px; fill: rgb(254, 136, 177); fill-opacity: 1; stroke: rgb(0, 0, 0); stroke-opacity: 1;"/></g><g class="text"><g class="textpoint"/><g class="textpoint" transform="translate(0,2.5)"><text x="1145.86" y="663.02" text-anchor="middle" style="font-family: 'Vazirmatn FD'; font-size: 10px; fill: rgb(0, 0, 0); fill-opacity: 1; white-space: pre;">روسیه</text></g></g></g><g class="trace scatter tracea18667" style="stroke-miterlimit: 2; opacity: 0.6;"><g class="fills"/><g class="errorbars"/><g class="lines"><path class="js-line" d="M1276.09,579.76L1145.86,663.02" style="vector-effect: none; fill: none; stroke: rgb(0, 0, 0); stroke-opacity: 1; stroke-width: 1px; opacity: 1;"/></g><g class="points"><path class="point" transform="translate(1276.09,579.76)" d="M0,0Z" style="opacity: 0.7; stroke-width: 1px; fill: rgb(0, 0, 0); fill-opacity: 1; stroke: rgb(255, 255, 255); stroke-opacity: 1;"/><path class="point" transform="translate(1210.98,621.39)" d="M0,0L12.696447952177635,2.7928854966941117A13,13,237.40598492459083,0,1,2.792885496694109,-12.696447952177637Z" style="opacity: 0.7; stroke-width: 1px; fill: rgb(0, 0, 0); fill-opacity: 1; stroke: rgb(255, 255, 255); stroke-opacity: 1;"/><path class="point" transform="translate(1145.86,663.02)" d="M0,0L0,0A0,0,237.4099782533548,0,1,0,0Z" style="opacity: 0.7; stroke-width: 1px; fill: rgb(0, 0, 0); fill-opacity: 1; stroke: rgb(255, 255, 255); stroke-opacity: 1;"/></g><g class="text"/></g><g class="trace scatter trace6c3483" style="stroke-miterlimit: 2; opacity: 1;"><g class="fills"/><g class="errorbars"/><g class="lines"/><g class="points"><path class="point" transform="translate(180.43,400.39)" d="M6.65,0A6.65,6.65 0 1,1 0,-6.65A6.65,6.65 0 0,1 6.65,0Z" style="opacity: 0.5; stroke-width: 0.3px; fill: rgb(158, 185, 243); fill-opacity: 1; stroke: rgb(0, 0, 0); stroke-opacity: 1;"/><path class="point" transform="translate(194.92,312.77)" d="M10.93,0A10.93,10.93 0 1,1 0,-10.93A10.93,10.93 0 0,1 10.93,0Z" style="opacity: 0.9; stroke-width: 0.3px; fill: rgb(158, 185, 243); fill-opacity: 1; stroke: rgb(0, 0, 0); stroke-opacity: 1;"/></g><g class="text"><g class="textpoint"/><g class="textpoint" transform="translate(0,2.5)"><text x="194.92" y="312.77" text-anchor="middle" style="font-family: 'Vazirmatn FD'; font-size: 10px; fill: rgb(0, 0, 0); fill-opacity: 1; white-space: pre;">عربستان</text></g></g></g><g class="trace scatter trace545e73" style="stroke-miterlimit: 2; opacity: 0.6;"><g class="fills"/><g class="errorbars"/><g class="lines"><path class="js-line" d="M180.43,400.39L194.92,312.77" style="vector-effect: none; fill: none; stroke: rgb(0, 0, 0); stroke-opacity: 1; stroke-width: 1px; opacity: 1;"/></g><g class="points"><path class="point" transform="translate(180.43,400.39)" d="M0,0Z" style="opacity: 0.7; stroke-width: 1px; fill: rgb(0, 0, 0); fill-opacity: 1; stroke: rgb(255, 255, 255); stroke-opacity: 1;"/><path class="point" transform="translate(187.68,356.58)" d="M0,0L-10.569856179343644,7.568232313294234A13,13,9.396564983744142,0,1,7.568232313294237,10.569856179343642Z" style="opacity: 0.7; stroke-width: 1px; fill: rgb(0, 0, 0); fill-opacity: 1; stroke: rgb(255, 255, 255); stroke-opacity: 1;"/><path class="point" transform="translate(194.92,312.77)" d="M0,0L0,0A0,0,9.383834887924024,0,1,0,0Z" style="opacity: 0.7; stroke-width: 1px; fill: rgb(0, 0, 0); fill-opacity: 1; stroke: rgb(255, 255, 255); stroke-opacity: 1;"/></g><g class="text"/></g><g class="trace scatter trace807e5c" style="stroke-miterlimit: 2; opacity: 1;"><g class="fills"/><g class="errorbars"/><g class="lines"/><g class="points"><path class="point" transform="translate(210.16,43.62)" d="M6.81,0A6.81,6.81 0 1,1 0,-6.81A6.81,6.81 0 0,1 6.81,0Z" style="opacity: 0.5; stroke-width: 0.3px; fill: rgb(135, 197, 95); fill-opacity: 1; stroke: rgb(0, 0, 0); stroke-opacity: 1;"/><path class="point" transform="translate(252.24,175.46)" d="M7.52,0A7.52,7.52 0 1,1 0,-7.52A7.52,7.52 0 0,1 7.52,0Z" style="opacity: 0.9; stroke-width: 0.3px; fill: rgb(135, 197, 95); fill-opacity: 1; stroke: rgb(0, 0, 0); stroke-opacity: 1;"/></g><g class="text"><g class="textpoint"/><g class="textpoint" transform="translate(0,2.5)"><text x="252.24" y="175.46" text-anchor="middle" style="font-family: 'Vazirmatn FD'; font-size: 10px; fill: rgb(0, 0, 0); fill-opacity: 1; white-space: pre;">آفریقای جنوبی</text></g></g></g><g class="trace scatter traceadaac9" style="stroke-miterlimit: 2; opacity: 0.6;"><g class="fills"/><g class="errorbars"/><g class="lines"><path class="js-line" d="M210.16,43.62L252.24,175.46" style="vector-effect: none; fill: none; stroke: rgb(0, 0, 0); stroke-opacity: 1; stroke-width: 1px; opacity: 1;"/></g><g class="points"><path class="point" transform="translate(210.16,43.62)" d="M0,0Z" style="opacity: 0.7; stroke-width: 1px; fill: rgb(0, 0, 0); fill-opacity: 1; stroke: rgb(255, 255, 255); stroke-opacity: 1;"/><path class="point" transform="translate(231.2,109.54)" d="M0,0L5.962087243953512,-11.552208260565893A13,13,162.2982295408034,0,1,-11.552208260565894,-5.96208724395351Z" style="opacity: 0.7; stroke-width: 1px; fill: rgb(0, 0, 0); fill-opacity: 1; stroke: rgb(255, 255, 255); stroke-opacity: 1;"/><path class="point" transform="translate(252.24,175.46)" d="M0,0L0,0A0,0,162.29822954080333,0,1,0,0Z" style="opacity: 0.7; stroke-width: 1px; fill: rgb(0, 0, 0); fill-opacity: 1; stroke: rgb(255, 255, 255); stroke-opacity: 1;"/></g><g class="text"/></g><g class="trace scatter tracebdb580" style="stroke-miterlimit: 2; opacity: 1;"><g class="fills"/><g class="errorbars"/><g class="lines"/><g class="points"><path class="point" transform="translate(291.49,460.04)" d="M15.24,0A15.24,15.24 0 1,1 0,-15.24A15.24,15.24 0 0,1 15.24,0Z" style="opacity: 0.5; stroke-width: 0.3px; fill: rgb(0, 112, 122); fill-opacity: 1; stroke: rgb(0, 0, 0); stroke-opacity: 1;"/><path class="point" transform="translate(275.2,392.96)" d="M15.42,0A15.42,15.42 0 1,1 0,-15.42A15.42,15.42 0 0,1 15.42,0Z" style="opacity: 0.9; stroke-width: 0.3px; fill: rgb(0, 112, 122); fill-opacity: 1; stroke: rgb(0, 0, 0); stroke-opacity: 1;"/></g><g class="text"><g class="textpoint"/><g class="textpoint" transform="translate(0,2.5)"><text x="275.2" y="392.96" text-anchor="middle" style="font-family: 'Vazirmatn FD'; font-size: 10px; fill: rgb(0, 0, 0); fill-opacity: 1; white-space: pre;">کره جنوبی</text></g></g></g><g class="trace scatter trace2c3e2c" style="stroke-miterlimit: 2; opacity: 0.6;"><g class="fills"/><g class="errorbars"/><g class="lines"><path class="js-line" d="M291.49,460.04L275.2,392.96" style="vector-effect: none; fill: none; stroke: rgb(0, 0, 0); stroke-opacity: 1; stroke-width: 1px; opacity: 1;"/></g><g class="points"><path class="point" transform="translate(291.49,460.04)" d="M0,0Z" style="opacity: 0.7; stroke-width: 1px; fill: rgb(0, 0, 0); fill-opacity: 1; stroke: rgb(255, 255, 255); stroke-opacity: 1;"/><path class="point" transform="translate(283.35,426.5)" d="M0,0L-6.765055017710876,11.101082407015314A13,13,-13.641661765602109,0,1,11.101082407015316,6.765055017710873Z" style="opacity: 0.7; stroke-width: 1px; fill: rgb(0, 0, 0); fill-opacity: 1; stroke: rgb(255, 255, 255); stroke-opacity: 1;"/><path class="point" transform="translate(275.2,392.96)" d="M0,0L0,0A0,0,-13.657793257202783,0,1,0,0Z" style="opacity: 0.7; stroke-width: 1px; fill: rgb(0, 0, 0); fill-opacity: 1; stroke: rgb(255, 255, 255); stroke-opacity: 1;"/></g><g class="text"/></g><g class="trace scatter traceb52d38" style="stroke-miterlimit: 2; opacity: 1;"><g class="fills"/><g class="errorbars"/><g class="lines"/><g class="points"><path class="point" transform="translate(77.81,445.15)" d="M8.46,0A8.46,8.46 0 1,1 0,-8.46A8.46,8.46 0 0,1 8.46,0Z" style="opacity: 0.5; stroke-width: 0.3px; fill: rgb(220, 176, 242); fill-opacity: 1; stroke: rgb(0, 0, 0); stroke-opacity: 1;"/><path class="point" transform="translate(114.68,390.67)" d="M10.2,0A10.2,10.2 0 1,1 0,-10.2A10.2,10.2 0 0,1 10.2,0Z" style="opacity: 0.9; stroke-width: 0.3px; fill: rgb(220, 176, 242); fill-opacity: 1; stroke: rgb(0, 0, 0); stroke-opacity: 1;"/></g><g class="text"><g class="textpoint"/><g class="textpoint" transform="translate(0,2.5)"><text x="114.68" y="390.67" text-anchor="middle" style="font-family: 'Vazirmatn FD'; font-size: 10px; fill: rgb(0, 0, 0); fill-opacity: 1; white-space: pre;">ترکیه</text></g></g></g><g class="trace scatter trace761e54" style="stroke-miterlimit: 2; opacity: 0.6;"><g class="fills"/><g class="errorbars"/><g class="lines"><path class="js-line" d="M77.81,445.15L114.68,390.67" style="vector-effect: none; fill: none; stroke: rgb(0, 0, 0); stroke-opacity: 1; stroke-width: 1px; opacity: 1;"/></g><g class="points"><path class="point" transform="translate(77.81,445.15)" d="M0,0Z" style="opacity: 0.7; stroke-width: 1px; fill: rgb(0, 0, 0); fill-opacity: 1; stroke: rgb(255, 255, 255); stroke-opacity: 1;"/><path class="point" transform="translate(96.24,417.91)" d="M0,0L-12.764666257710498,2.462375952056692A13,13,34.08143925475455,0,1,2.4623759520566937,12.764666257710498Z" style="opacity: 0.7; stroke-width: 1px; fill: rgb(0, 0, 0); fill-opacity: 1; stroke: rgb(255, 255, 255); stroke-opacity: 1;"/><path class="point" transform="translate(114.68,390.67)" d="M0,0L0,0A0,0,34.09586558709927,0,1,0,0Z" style="opacity: 0.7; stroke-width: 1px; fill: rgb(0, 0, 0); fill-opacity: 1; stroke: rgb(255, 255, 255); stroke-opacity: 1;"/></g><g class="text"/></g><g class="trace scatter trace878a4b" style="stroke-miterlimit: 2; opacity: 1;"><g class="fills"/><g class="errorbars"/><g class="lines"/><g class="points"><path class="point" transform="translate(113.59,285)" d="M2.61,0A2.61,2.61 0 1,1 0,-2.61A2.61,2.61 0 0,1 2.61,0Z" style="opacity: 0.5; stroke-width: 0.3px; fill: rgb(248, 156, 116); fill-opacity: 1; stroke: rgb(0, 0, 0); stroke-opacity: 1;"/><path class="point" transform="translate(225.01,302.73)" d="M5.34,0A5.34,5.34 0 1,1 0,-5.34A5.34,5.34 0 0,1 5.34,0Z" style="opacity: 0.9; stroke-width: 0.3px; fill: rgb(248, 156, 116); fill-opacity: 1; stroke: rgb(0, 0, 0); stroke-opacity: 1;"/></g><g class="text"><g class="textpoint"/><g class="textpoint" transform="translate(0,2.5)"><text x="225.01" y="302.73" text-anchor="middle" style="font-family: 'Vazirmatn FD'; font-size: 10px; fill: rgb(0, 0, 0); fill-opacity: 1; white-space: pre;">امارات</text></g></g></g><g class="trace scatter tracee1b42c" style="stroke-miterlimit: 2; opacity: 0.6;"><g class="fills"/><g class="errorbars"/><g class="lines"><path class="js-line" d="M113.59,285L225.01,302.73" style="vector-effect: none; fill: none; stroke: rgb(0, 0, 0); stroke-opacity: 1; stroke-width: 1px; opacity: 1;"/></g><g class="points"><path class="point" transform="translate(113.59,285)" d="M0,0Z" style="opacity: 0.7; stroke-width: 1px; fill: rgb(0, 0, 0); fill-opacity: 1; stroke: rgb(255, 255, 255); stroke-opacity: 1;"/><path class="point" transform="translate(169.3,293.86)" d="M0,0L-7.6345032695368475,-10.522089137972134A13,13,99.0365191420825,0,1,-10.522089137972134,7.634503269536849Z" style="opacity: 0.7; stroke-width: 1px; fill: rgb(0, 0, 0); fill-opacity: 1; stroke: rgb(255, 255, 255); stroke-opacity: 1;"/><path class="point" transform="translate(225.01,302.73)" d="M0,0L0,0A0,0,99.04654979875923,0,1,0,0Z" style="opacity: 0.7; stroke-width: 1px; fill: rgb(0, 0, 0); fill-opacity: 1; stroke: rgb(255, 255, 255); stroke-opacity: 1;"/></g><g class="text"/></g><g class="trace scatter trace80cbac" style="stroke-miterlimit: 2; opacity: 1;"><g class="fills"/><g class="errorbars"/><g class="lines"/><g class="points"><path class="point" transform="translate(208.49,166.39)" d="M21.01,0A21.01,21.01 0 1,1 0,-21.01A21.01,21.01 0 0,1 21.01,0Z" style="opacity: 0.5; stroke-width: 0.3px; fill: rgb(246, 207, 113); fill-opacity: 1; stroke: rgb(0, 0, 0); stroke-opacity: 1;"/><path class="point" transform="translate(238.29,230.5)" d="M21.17,0A21.17,21.17 0 1,1 0,-21.17A21.17,21.17 0 0,1 21.17,0Z" style="opacity: 0.9; stroke-width: 0.3px; fill: rgb(246, 207, 113); fill-opacity: 1; stroke: rgb(0, 0, 0); stroke-opacity: 1;"/></g><g class="text"><g class="textpoint"/><g class="textpoint" transform="translate(0,2.5)"><text x="238.29" y="230.5" text-anchor="middle" style="font-family: 'Vazirmatn FD'; font-size: 10px; fill: rgb(0, 0, 0); fill-opacity: 1; white-space: pre;">بریتانیا</text></g></g></g><g class="trace scatter trace8073c6" style="stroke-miterlimit: 2; opacity: 0.6;"><g class="fills"/><g class="errorbars"/><g class="lines"><path class="js-line" d="M208.49,166.39L238.29,230.5" style="vector-effect: none; fill: none; stroke: rgb(0, 0, 0); stroke-opacity: 1; stroke-width: 1px; opacity: 1;"/></g><g class="points"><path class="point" transform="translate(208.49,166.39)" d="M0,0Z" style="opacity: 0.7; stroke-width: 1px; fill: rgb(0, 0, 0); fill-opacity: 1; stroke: rgb(255, 255, 255); stroke-opacity: 1;"/><path class="point" transform="translate(223.39,198.44)" d="M0,0L4.460405249015036,-12.210847022813738A13,13,155.06634962645427,0,1,-12.210847022813738,-4.460405249015036Z" style="opacity: 0.7; stroke-width: 1px; fill: rgb(0, 0, 0); fill-opacity: 1; stroke: rgb(255, 255, 255); stroke-opacity: 1;"/><path class="point" transform="translate(238.29,230.5)" d="M0,0L0,0A0,0,155.07318183585326,0,1,0,0Z" style="opacity: 0.7; stroke-width: 1px; fill: rgb(0, 0, 0); fill-opacity: 1; stroke: rgb(255, 255, 255); stroke-opacity: 1;"/></g><g class="text"/></g><g class="trace scatter trace18961a" style="stroke-miterlimit: 2; opacity: 1;"><g class="fills"/><g class="errorbars"/><g class="lines"/><g class="points"><path class="point" transform="translate(142.44,253.37)" d="M35.38,0A35.38,35.38 0 1,1 0,-35.38A35.38,35.38 0 0,1 35.38,0Z" style="opacity: 0.5; stroke-width: 0.3px; fill: rgb(102, 197, 204); fill-opacity: 1; stroke: rgb(0, 0, 0); stroke-opacity: 1;"/><path class="point" transform="translate(180.71,324.02)" d="M34.43,0A34.43,34.43 0 1,1 0,-34.43A34.43,34.43 0 0,1 34.43,0Z" style="opacity: 0.9; stroke-width: 0.3px; fill: rgb(102, 197, 204); fill-opacity: 1; stroke: rgb(0, 0, 0); stroke-opacity: 1;"/></g><g class="text"><g class="textpoint"/><g class="textpoint" transform="translate(0,2.5)"><text x="180.71" y="324.02" text-anchor="middle" style="font-family: 'Vazirmatn FD'; font-size: 10px; fill: rgb(0, 0, 0); fill-opacity: 1; white-space: pre;">آمریکا</text></g></g></g><g class="trace scatter trace8960e1" style="stroke-miterlimit: 2; opacity: 0.6;"><g class="fills"/><g class="errorbars"/><g class="lines"><path class="js-line" d="M142.44,253.37L180.71,324.02" style="vector-effect: none; fill: none; stroke: rgb(0, 0, 0); stroke-opacity: 1; stroke-width: 1px; opacity: 1;"/></g><g class="points"><path class="point" transform="translate(142.44,253.37)" d="M0,0Z" style="opacity: 0.7; stroke-width: 1px; fill: rgb(0, 0, 0); fill-opacity: 1; stroke: rgb(255, 255, 255); stroke-opacity: 1;"/><path class="point" transform="translate(161.58,288.7)" d="M0,0L3.7038181494856053,-12.461209055125472A13,13,151.5534144427624,0,1,-12.461209055125472,-3.7038181494856026Z" style="opacity: 0.7; stroke-width: 1px; fill: rgb(0, 0, 0); fill-opacity: 1; stroke: rgb(255, 255, 255); stroke-opacity: 1;"/><path class="point" transform="translate(180.71,324.02)" d="M0,0L0,0A0,0,151.5591617567849,0,1,0,0Z" style="opacity: 0.7; stroke-width: 1px; fill: rgb(0, 0, 0); fill-opacity: 1; stroke: rgb(255, 255, 255); stroke-opacity: 1;"/></g><g class="text"/></g></g></g></g><g class="zerolinelayer-above"/><path class="xlines-above crisp" d="M0,0" style="fill: none;"/><path class="ylines-above crisp" d="M0,0" style="fill: none;"/><g class="overlines-above"/><g class="xaxislayer-above"><g class="xtick"><text text-anchor="middle" x="0" y="834" transform="translate(260.5,0)" style="font-family: 'Vazirmatn FD'; font-size: 13px; fill: rgb(42, 63, 95); fill-opacity: 1; white-space: pre;">1</text></g><g class="xtick"><text text-anchor="middle" x="0" y="834" style="font-family: 'Vazirmatn FD'; font-size: 13px; fill: rgb(42, 63, 95); fill-opacity: 1; white-space: pre;" transform="translate(463.54,0)">1.5</text></g><g class="xtick"><text text-anchor="middle" x="0" y="834" style="font-family: 'Vazirmatn FD'; font-size: 13px; fill: rgb(42, 63, 95); fill-opacity: 1; white-space: pre;" transform="translate(666.59,0)">2</text></g><g class="xtick"><text text-anchor="middle" x="0" y="834" style="font-family: 'Vazirmatn FD'; font-size: 13px; fill: rgb(42, 63, 95); fill-opacity: 1; white-space: pre;" transform="translate(869.63,0)">2.5</text></g><g class="xtick"><text text-anchor="middle" x="0" y="834" style="font-family: 'Vazirmatn FD'; font-size: 13px; fill: rgb(42, 63, 95); fill-opacity: 1; white-space: pre;" transform="translate(1072.6799999999998,0)">3</text></g><g class="xtick"><text text-anchor="middle" x="0" y="834" style="font-family: 'Vazirmatn FD'; font-size: 13px; fill: rgb(42, 63, 95); fill-opacity: 1; white-space: pre;" transform="translate(1275.72,0)">3.5</text></g></g><g class="yaxislayer-above"><g class="ytick"><text text-anchor="end" x="79" y="4.55" transform="translate(0,770.58)" style="font-family: 'Vazirmatn FD'; font-size: 13px; fill: rgb(42, 63, 95); fill-opacity: 1; white-space: pre;">0.6</text></g><g class="ytick"><text text-anchor="end" x="79" y="4.55" style="font-family: 'Vazirmatn FD'; font-size: 13px; fill: rgb(42, 63, 95); fill-opacity: 1; white-space: pre;" transform="translate(0,687.29)">0.8</text></g><g class="ytick"><text text-anchor="end" x="79" y="4.55" style="font-family: 'Vazirmatn FD'; font-size: 13px; fill: rgb(42, 63, 95); fill-opacity: 1; white-space: pre;" transform="translate(0,604)">1</text></g><g class="ytick"><text text-anchor="end" x="79" y="4.55" style="font-family: 'Vazirmatn FD'; font-size: 13px; fill: rgb(42, 63, 95); fill-opacity: 1; white-space: pre;" transform="translate(0,520.71)">1.2</text></g><g class="ytick"><text text-anchor="end" x="79" y="4.55" style="font-family: 'Vazirmatn FD'; font-size: 13px; fill: rgb(42, 63, 95); fill-opacity: 1; white-space: pre;" transform="translate(0,437.42)">1.4</text></g><g class="ytick"><text text-anchor="end" x="79" y="4.55" style="font-family: 'Vazirmatn FD'; font-size: 13px; fill: rgb(42, 63, 95); fill-opacity: 1; white-space: pre;" transform="translate(0,354.13)">1.6</text></g><g class="ytick"><text text-anchor="end" x="79" y="4.55" style="font-family: 'Vazirmatn FD'; font-size: 13px; fill: rgb(42, 63, 95); fill-opacity: 1; white-space: pre;" transform="translate(0,270.83000000000004)">1.8</text></g><g class="ytick"><text text-anchor="end" x="79" y="4.55" style="font-family: 'Vazirmatn FD'; font-size: 13px; fill: rgb(42, 63, 95); fill-opacity: 1; white-space: pre;" transform="translate(0,187.54000000000002)">2</text></g><g class="ytick"><text text-anchor="end" x="79" y="4.55" style="font-family: 'Vazirmatn FD'; font-size: 13px; fill: rgb(42, 63, 95); fill-opacity: 1; white-space: pre;" transform="translate(0,104.25)">2.2</text></g></g><g class="overaxes-above"/></g></g><g class="polarlayer"/><g class="smithlayer"/><g class="ternarylayer"/><g class="geolayer"/><g class="funnelarealayer"/><g class="pielayer"/><g class="iciclelayer"/><g class="treemaplayer"/><g class="sunburstlayer"/><g class="glimages"/><defs id="topdefs-a9e1ed"><g class="clips"/><clipPath id="legenda9e1ed"><rect width="114" height="425" x="0" y="0"/></clipPath></defs><g class="layer-above"><g class="imagelayer"/><g class="shapelayer"><g class="shape-group" data-index="0" clip-path="url(#clipa9e1edy)"><path data-index="0" fill-rule="evenodd" d="M80,604L1447,604" style="opacity: 0.6; stroke: rgb(128, 128, 128); stroke-opacity: 1; fill: rgb(0, 0, 0); fill-opacity: 0; stroke-dasharray: 9px, 9px; stroke-width: 2px;"/></g><g class="shape-group" data-index="1" clip-path="url(#clipa9e1edx)"><path data-index="1" fill-rule="evenodd" d="M260.5,820L260.5,100" style="opacity: 0.6; stroke: rgb(128, 128, 128); stroke-opacity: 1; fill: rgb(0, 0, 0); fill-opacity: 0; stroke-dasharray: 9px, 9px; stroke-width: 2px;"/></g></g></g><g class="infolayer"><g class="legend" pointer-events="all" transform="translate(1474.34,100)"><rect class="bg" shape-rendering="crispEdges" style="stroke: rgb(68, 68, 68); stroke-opacity: 1; fill: rgb(255, 255, 255); fill-opacity: 1; stroke-width: 0px;" width="114" height="425" x="0" y="0"/><g class="scrollbox" transform="" clip-path="url(#legenda9e1ed)"><text class="legendtitletext" text-anchor="start" x="2" y="18.2" style="font-family: 'Vazirmatn FD'; font-size: 14px; fill: rgb(42, 63, 95); fill-opacity: 1; white-space: pre;">کشور</text><g class="groups" transform=""><g class="traces" transform="translate(0,32.7)" style="opacity: 1;"><text class="legendtext" text-anchor="start" x="40" y="4.680000000000001" style="font-family: 'Vazirmatn FD'; font-size: 12px; fill: rgb(42, 63, 95); fill-opacity: 1; white-space: pre;">برزیل</text><g class="layers" style="opacity: 1;"><g class="legendfill"/><g class="legendlines"/><g class="legendsymbols"><g class="legendpoints"><path class="scatterpts" transform="translate(20,0)" d="M8,0A8,8 0 1,1 0,-8A8,8 0 0,1 8,0Z" style="opacity: 0.7; stroke-width: 0.3px; fill: rgb(102, 140, 200); fill-opacity: 1; stroke: rgb(0, 0, 0); stroke-opacity: 1;"/></g></g></g><rect class="legendtoggle" x="0" y="-9.5" width="108.517578125" height="19" style="fill: rgb(0, 0, 0); fill-opacity: 0;"/></g></g><g class="groups" transform="translate(0,10)"><g class="traces" transform="translate(0,51.7)" style="opacity: 1;"><text class="legendtext" text-anchor="start" x="40" y="4.680000000000001" style="font-family: 'Vazirmatn FD'; font-size: 12px; fill: rgb(42, 63, 95); fill-opacity: 1; white-space: pre;">چین</text><g class="layers" style="opacity: 1;"><g class="legendfill"/><g class="legendlines"/><g class="legendsymbols"><g class="legendpoints"><path class="scatterpts" transform="translate(20,0)" d="M8,0A8,8 0 1,1 0,-8A8,8 0 0,1 8,0Z" style="opacity: 0.7; stroke-width: 0.3px; fill: rgb(255, 180, 102); fill-opacity: 1; stroke: rgb(0, 0, 0); stroke-opacity: 1;"/></g></g></g><rect class="legendtoggle" x="0" y="-9.5" width="108.517578125" height="19" style="fill: rgb(0, 0, 0); fill-opacity: 0;"/></g></g><g class="groups" transform="translate(0,20)"><g class="traces" transform="translate(0,70.7)" style="opacity: 1;"><text class="legendtext" text-anchor="start" x="40" y="4.680000000000001" style="font-family: 'Vazirmatn FD'; font-size: 12px; fill: rgb(42, 63, 95); fill-opacity: 1; white-space: pre;">آلمان</text><g class="layers" style="opacity: 1;"><g class="legendfill"/><g class="legendlines"/><g class="legendsymbols"><g class="legendpoints"><path class="scatterpts" transform="translate(20,0)" d="M8,0A8,8 0 1,1 0,-8A8,8 0 0,1 8,0Z" style="opacity: 0.7; stroke-width: 0.3px; fill: rgb(179, 179, 179); fill-opacity: 1; stroke: rgb(0, 0, 0); stroke-opacity: 1;"/></g></g></g><rect class="legendtoggle" x="0" y="-9.5" width="108.517578125" height="19" style="fill: rgb(0, 0, 0); fill-opacity: 0;"/></g></g><g class="groups" transform="translate(0,30)"><g class="traces" transform="translate(0,89.7)" style="opacity: 1;"><text class="legendtext" text-anchor="start" x="40" y="4.680000000000001" style="font-family: 'Vazirmatn FD'; font-size: 12px; fill: rgb(42, 63, 95); fill-opacity: 1; white-space: pre;">هند</text><g class="layers" style="opacity: 1;"><g class="legendfill"/><g class="legendlines"/><g class="legendsymbols"><g class="legendpoints"><path class="scatterpts" transform="translate(20,0)" d="M8,0A8,8 0 1,1 0,-8A8,8 0 0,1 8,0Z" style="opacity: 0.7; stroke-width: 0.3px; fill: rgb(180, 151, 231); fill-opacity: 1; stroke: rgb(0, 0, 0); stroke-opacity: 1;"/></g></g></g><rect class="legendtoggle" x="0" y="-9.5" width="108.517578125" height="19" style="fill: rgb(0, 0, 0); fill-opacity: 0;"/></g></g><g class="groups" transform="translate(0,40)"><g class="traces" transform="translate(0,108.7)" style="opacity: 1;"><text class="legendtext" text-anchor="start" x="40" y="4.680000000000001" style="font-family: 'Vazirmatn FD'; font-size: 12px; fill: rgb(42, 63, 95); fill-opacity: 1; white-space: pre;">ایران</text><g class="layers" style="opacity: 1;"><g class="legendfill"/><g class="legendlines"/><g class="legendsymbols"><g class="legendpoints"><path class="scatterpts" transform="translate(20,0)" d="M8,0A8,8 0 1,1 0,-8A8,8 0 0,1 8,0Z" style="opacity: 0.7; stroke-width: 1px; fill: rgb(139, 224, 164); fill-opacity: 1; stroke: rgb(255, 0, 0); stroke-opacity: 1;"/></g></g></g><rect class="legendtoggle" x="0" y="-9.5" width="108.517578125" height="19" style="fill: rgb(0, 0, 0); fill-opacity: 0;"/></g></g><g class="groups" transform="translate(0,50)"><g class="traces" transform="translate(0,127.7)" style="opacity: 1;"><text class="legendtext" text-anchor="start" x="40" y="4.680000000000001" style="font-family: 'Vazirmatn FD'; font-size: 12px; fill: rgb(42, 63, 95); fill-opacity: 1; white-space: pre;">اسرائیل</text><g class="layers" style="opacity: 1;"><g class="legendfill"/><g class="legendlines"/><g class="legendsymbols"><g class="legendpoints"><path class="scatterpts" transform="translate(20,0)" d="M8,0A8,8 0 1,1 0,-8A8,8 0 0,1 8,0Z" style="opacity: 0.7; stroke-width: 0.3px; fill: rgb(201, 219, 116); fill-opacity: 1; stroke: rgb(0, 0, 0); stroke-opacity: 1;"/></g></g></g><rect class="legendtoggle" x="0" y="-9.5" width="108.517578125" height="19" style="fill: rgb(0, 0, 0); fill-opacity: 0;"/></g></g><g class="groups" transform="translate(0,60)"><g class="traces" transform="translate(0,146.7)" style="opacity: 1;"><text class="legendtext" text-anchor="start" x="40" y="4.680000000000001" style="font-family: 'Vazirmatn FD'; font-size: 12px; fill: rgb(42, 63, 95); fill-opacity: 1; white-space: pre;">روسیه</text><g class="layers" style="opacity: 1;"><g class="legendfill"/><g class="legendlines"/><g class="legendsymbols"><g class="legendpoints"><path class="scatterpts" transform="translate(20,0)" d="M8,0A8,8 0 1,1 0,-8A8,8 0 0,1 8,0Z" style="opacity: 0.7; stroke-width: 0.3px; fill: rgb(254, 136, 177); fill-opacity: 1; stroke: rgb(0, 0, 0); stroke-opacity: 1;"/></g></g></g><rect class="legendtoggle" x="0" y="-9.5" width="108.517578125" height="19" style="fill: rgb(0, 0, 0); fill-opacity: 0;"/></g></g><g class="groups" transform="translate(0,70)"><g class="traces" transform="translate(0,165.7)" style="opacity: 1;"><text class="legendtext" text-anchor="start" x="40" y="4.680000000000001" style="font-family: 'Vazirmatn FD'; font-size: 12px; fill: rgb(42, 63, 95); fill-opacity: 1; white-space: pre;">عربستان</text><g class="layers" style="opacity: 1;"><g class="legendfill"/><g class="legendlines"/><g class="legendsymbols"><g class="legendpoints"><path class="scatterpts" transform="translate(20,0)" d="M8,0A8,8 0 1,1 0,-8A8,8 0 0,1 8,0Z" style="opacity: 0.7; stroke-width: 0.3px; fill: rgb(158, 185, 243); fill-opacity: 1; stroke: rgb(0, 0, 0); stroke-opacity: 1;"/></g></g></g><rect class="legendtoggle" x="0" y="-9.5" width="108.517578125" height="19" style="fill: rgb(0, 0, 0); fill-opacity: 0;"/></g></g><g class="groups" transform="translate(0,80)"><g class="traces" transform="translate(0,184.7)" style="opacity: 1;"><text class="legendtext" text-anchor="start" x="40" y="4.680000000000001" style="font-family: 'Vazirmatn FD'; font-size: 12px; fill: rgb(42, 63, 95); fill-opacity: 1; white-space: pre;">آفریقای جنوبی</text><g class="layers" style="opacity: 1;"><g class="legendfill"/><g class="legendlines"/><g class="legendsymbols"><g class="legendpoints"><path class="scatterpts" transform="translate(20,0)" d="M8,0A8,8 0 1,1 0,-8A8,8 0 0,1 8,0Z" style="opacity: 0.7; stroke-width: 0.3px; fill: rgb(135, 197, 95); fill-opacity: 1; stroke: rgb(0, 0, 0); stroke-opacity: 1;"/></g></g></g><rect class="legendtoggle" x="0" y="-9.5" width="108.517578125" height="19" style="fill: rgb(0, 0, 0); fill-opacity: 0;"/></g></g><g class="groups" transform="translate(0,90)"><g class="traces" transform="translate(0,203.7)" style="opacity: 1;"><text class="legendtext" text-anchor="start" x="40" y="4.680000000000001" style="font-family: 'Vazirmatn FD'; font-size: 12px; fill: rgb(42, 63, 95); fill-opacity: 1; white-space: pre;">کره جنوبی</text><g class="layers" style="opacity: 1;"><g class="legendfill"/><g class="legendlines"/><g class="legendsymbols"><g class="legendpoints"><path class="scatterpts" transform="translate(20,0)" d="M8,0A8,8 0 1,1 0,-8A8,8 0 0,1 8,0Z" style="opacity: 0.7; stroke-width: 0.3px; fill: rgb(0, 112, 122); fill-opacity: 1; stroke: rgb(0, 0, 0); stroke-opacity: 1;"/></g></g></g><rect class="legendtoggle" x="0" y="-9.5" width="108.517578125" height="19" style="fill: rgb(0, 0, 0); fill-opacity: 0;"/></g></g><g class="groups" transform="translate(0,100)"><g class="traces" transform="translate(0,222.7)" style="opacity: 1;"><text class="legendtext" text-anchor="start" x="40" y="4.680000000000001" style="font-family: 'Vazirmatn FD'; font-size: 12px; fill: rgb(42, 63, 95); fill-opacity: 1; white-space: pre;">ترکیه</text><g class="layers" style="opacity: 1;"><g class="legendfill"/><g class="legendlines"/><g class="legendsymbols"><g class="legendpoints"><path class="scatterpts" transform="translate(20,0)" d="M8,0A8,8 0 1,1 0,-8A8,8 0 0,1 8,0Z" style="opacity: 0.7; stroke-width: 0.3px; fill: rgb(220, 176, 242); fill-opacity: 1; stroke: rgb(0, 0, 0); stroke-opacity: 1;"/></g></g></g><rect class="legendtoggle" x="0" y="-9.5" width="108.517578125" height="19" style="fill: rgb(0, 0, 0); fill-opacity: 0;"/></g></g><g class="groups" transform="translate(0,110)"><g class="traces" transform="translate(0,241.7)" style="opacity: 1;"><text class="legendtext" text-anchor="start" x="40" y="4.680000000000001" style="font-family: 'Vazirmatn FD'; font-size: 12px; fill: rgb(42, 63, 95); fill-opacity: 1; white-space: pre;">امارات</text><g class="layers" style="opacity: 1;"><g class="legendfill"/><g class="legendlines"/><g class="legendsymbols"><g class="legendpoints"><path class="scatterpts" transform="translate(20,0)" d="M8,0A8,8 0 1,1 0,-8A8,8 0 0,1 8,0Z" style="opacity: 0.7; stroke-width: 0.3px; fill: rgb(248, 156, 116); fill-opacity: 1; stroke: rgb(0, 0, 0); stroke-opacity: 1;"/></g></g></g><rect class="legendtoggle" x="0" y="-9.5" width="108.517578125" height="19" style="fill: rgb(0, 0, 0); fill-opacity: 0;"/></g></g><g class="groups" transform="translate(0,120)"><g class="traces" transform="translate(0,260.7)" style="opacity: 1;"><text class="legendtext" text-anchor="start" x="40" y="4.680000000000001" style="font-family: 'Vazirmatn FD'; font-size: 12px; fill: rgb(42, 63, 95); fill-opacity: 1; white-space: pre;">بریتانیا</text><g class="layers" style="opacity: 1;"><g class="legendfill"/><g class="legendlines"/><g class="legendsymbols"><g class="legendpoints"><path class="scatterpts" transform="translate(20,0)" d="M8,0A8,8 0 1,1 0,-8A8,8 0 0,1 8,0Z" style="opacity: 0.7; stroke-width: 0.3px; fill: rgb(246, 207, 113); fill-opacity: 1; stroke: rgb(0, 0, 0); stroke-opacity: 1;"/></g></g></g><rect class="legendtoggle" x="0" y="-9.5" width="108.517578125" height="19" style="fill: rgb(0, 0, 0); fill-opacity: 0;"/></g></g><g class="groups" transform="translate(0,130)"><g class="traces" transform="translate(0,279.7)" style="opacity: 1;"><text class="legendtext" text-anchor="start" x="40" y="4.680000000000001" style="font-family: 'Vazirmatn FD'; font-size: 12px; fill: rgb(42, 63, 95); fill-opacity: 1; white-space: pre;">آمریکا</text><g class="layers" style="opacity: 1;"><g class="legendfill"/><g class="legendlines"/><g class="legendsymbols"><g class="legendpoints"><path class="scatterpts" transform="translate(20,0)" d="M8,0A8,8 0 1,1 0,-8A8,8 0 0,1 8,0Z" style="opacity: 0.7; stroke-width: 0.3px; fill: rgb(102, 197, 204); fill-opacity: 1; stroke: rgb(0, 0, 0); stroke-opacity: 1;"/></g></g></g><rect class="legendtoggle" x="0" y="-9.5" width="108.517578125" height="19" style="fill: rgb(0, 0, 0); fill-opacity: 0;"/></g></g></g><rect class="scrollbar" rx="20" ry="3" width="0" height="0" style="fill: rgb(128, 139, 164); fill-opacity: 1;" x="0" y="0"/></g><g class="g-gtitle"><text class="gtitle" x="800" y="50" text-anchor="middle" dy="0.7em" style="opacity: 1; font-family: 'Vazirmatn FD Black'; font-size: 17px; fill: rgb(42, 63, 95); fill-opacity: 1; white-space: pre;">تحلیل جایگاهی حوزه فیزیک در کشورهای منتخب در دو بازه ۲۰۱۵-۲۰۱۷ و ۲۰۲۲-۲۰۲۴</text></g><g class="g-xtitle"><text class="xtitle" x="763.5" y="865.3" text-anchor="middle" style="opacity: 1; font-family: 'Vazirmatn FD'; font-size: 14px; fill: rgb(42, 63, 95); fill-opacity: 1; white-space: pre;">شاخص تمرکز</text></g><g class="g-ytitle"><text class="ytitle" transform="rotate(-90,42.459375,460)" x="42.459375" y="460" text-anchor="middle" style="opacity: 1; font-family: 'Vazirmatn FD'; font-size: 14px; fill: rgb(42, 63, 95); fill-opacity: 1; white-space: pre;">تأثیر استنادی نرمال‌شده</text></g></g></svg>