<svg class="main-svg" xmlns="http://www.w3.org/2000/svg" xmlns:xlink="http://www.w3.org/1999/xlink" width="1600" height="900" style="" viewBox="0 0 1600 900"><rect x="0" y="0" width="1600" height="900" style="fill: rgb(255, 255, 255); fill-opacity: 1;"/><defs id="defs-2f7e47"><g class="clips"><clipPath id="clip2f7e47xyplot" class="plotclip"><rect width="1379" height="760"/></clipPath><clipPath class="axesclip" id="clip2f7e47x"><rect x="80" y="0" width="1379" height="900"/></clipPath><clipPath class="axesclip" id="clip2f7e47y"><rect x="0" y="60" width="1600" height="760"/></clipPath><clipPath class="axesclip" id="clip2f7e47xy"><rect x="80" y="60" width="1379" height="760"/></clipPath></g><g class="gradients"/><g class="patterns"/></defs><g class="bglayer"><rect class="bg" x="80" y="60" width="1379" height="760" style="fill: rgb(229, 236, 246); fill-opacity: 1; stroke-width: 0;"/></g><g class="layer-below"><g class="imagelayer"/><g class="shapelayer"/></g><g class="cartesianlayer"><g class="subplot xy"><g class="layer-subplot"><g class="shapelayer"/><g class="imagelayer"/></g><g class="minor-gridlayer"><g class="x"/><g class="y"/></g><g class="gridlayer"><g class="x"><path class="xgrid crisp" transform="translate(84.71,0)" d="M0,60v760" style="stroke: rgb(255, 255, 255); stroke-opacity: 1; stroke-width: 1px;"/><path class="xgrid crisp" transform="translate(225.03,0)" d="M0,60v760" style="stroke: rgb(255, 255, 255); stroke-opacity: 1; stroke-width: 1px;"/><path class="xgrid crisp" transform="translate(365.35,0)" d="M0,60v760" style="stroke: rgb(255, 255, 255); stroke-opacity: 1; stroke-width: 1px;"/><path class="xgrid crisp" transform="translate(505.67,0)" d="M0,60v760" style="stroke: rgb(255, 255, 255); stroke-opacity: 1; stroke-width: 1px;"/><path class="xgrid crisp" transform="translate(645.99,0)" d="M0,60v760" style="stroke: rgb(255, 255, 255); stroke-opacity: 1; stroke-width: 1px;"/><path class="xgrid crisp" transform="translate(786.3,0)" d="M0,60v760" style="stroke: rgb(255, 255, 255); stroke-opacity: 1; stroke-width: 1px;"/><path class="xgrid crisp" transform="translate(926.62,0)" d="M0,60v760" style="stroke: rgb(255, 255, 255); stroke-opacity: 1; stroke-width: 1px;"/><path class="xgrid crisp" transform="translate(1066.94,0)" d="M0,60v760" style="stroke: rgb(255, 255, 255); stroke-opacity: 1; stroke-width: 1px;"/><path class="xgrid crisp" transform="translate(1207.26,0)" d="M0,60v760" style="stroke: rgb(255, 255, 255); stroke-opacity: 1; stroke-width: 1px;"/><path class="xgrid crisp" transform="translate(1347.58,0)" d="M0,60v760" style="stroke: rgb(255, 255, 255); stroke-opacity: 1; stroke-width: 1px;"/></g><g class="y"><path class="ygrid crisp" transform="translate(0,775.61)" d="M80,0h1379" style="stroke: rgb(255, 255, 255); stroke-opacity: 1; stroke-width: 1px;"/><path class="ygrid crisp" transform="translate(0,689)" d="M80,0h1379" style="stroke: rgb(255, 255, 255); stroke-opacity: 1; stroke-width: 1px;"/><path class="ygrid crisp" transform="translate(0,602.4)" d="M80,0h1379" style="stroke: rgb(255, 255, 255); stroke-opacity: 1; stroke-width: 1px;"/><path class="ygrid crisp" transform="translate(0,515.79)" d="M80,0h1379" style="stroke: rgb(255, 255, 255); stroke-opacity: 1; stroke-width: 1px;"/><path class="ygrid crisp" transform="translate(0,429.18)" d="M80,0h1379" style="stroke: rgb(255, 255, 255); stroke-opacity: 1; stroke-width: 1px;"/><path class="ygrid crisp" transform="translate(0,342.58)" d="M80,0h1379" style="stroke: rgb(255, 255, 255); stroke-opacity: 1; stroke-width: 1px;"/><path class="ygrid crisp" transform="translate(0,255.97)" d="M80,0h1379" style="stroke: rgb(255, 255, 255); stroke-opacity: 1; stroke-width: 1px;"/><path class="ygrid crisp" transform="translate(0,169.36)" d="M80,0h1379" style="stroke: rgb(255, 255, 255); stroke-opacity: 1; stroke-width: 1px;"/><path class="ygrid crisp" transform="translate(0,82.76)" d="M80,0h1379" style="stroke: rgb(255, 255, 255); stroke-opacity: 1; stroke-width: 1px;"/></g></g><g class="zerolinelayer"/><g class="layer-between"><g class="shapelayer"/><g class="imagelayer"/></g><path class="xlines-below"/><path class="ylines-below"/><g class="overlines-below"/><g class="xaxislayer-below"/><g class="yaxislayer-below"/><g class="overaxes-below"/><g class="overplot"><g class="xy" transform="translate(80,60)" clip-path="url(#clip2f7e47xyplot)"><g class="scatterlayer mlayer"><g class="trace scatter trace22e1c7" style="stroke-miterlimit: 2; opacity: 0.5;"><g class="fills"/><g class="errorbars"/><g class="lines"/><g class="points"><path class="point plotly-customdata" transform="translate(162.63,548.82)" d="M8.8,0A8.8,8.8 0 1,1 0,-8.8A8.8,8.8 0 0,1 8.8,0Z" style="opacity: 0.7; stroke-width: 1px; fill: rgb(70, 130, 180); fill-opacity: 1; stroke: rgb(255, 255, 255); stroke-opacity: 1;"/><path class="point plotly-customdata" transform="translate(438.36,366.84)" d="M34.22,0A34.22,34.22 0 1,1 0,-34.22A34.22,34.22 0 0,1 34.22,0Z" style="opacity: 0.7; stroke-width: 1px; fill: rgb(70, 130, 180); fill-opacity: 1; stroke: rgb(255, 255, 255); stroke-opacity: 1;"/><path class="point plotly-customdata" transform="translate(1054.35,78.05)" d="M33.54,0A33.54,33.54 0 1,1 0,-33.54A33.54,33.54 0 0,1 33.54,0Z" style="opacity: 0.7; stroke-width: 1px; fill: rgb(70, 130, 180); fill-opacity: 1; stroke: rgb(255, 255, 255); stroke-opacity: 1;"/><path class="point plotly-customdata" transform="translate(763.24,472.55)" d="M34.36,0A34.36,34.36 0 1,1 0,-34.36A34.36,34.36 0 0,1 34.36,0Z" style="opacity: 0.7; stroke-width: 1px; fill: rgb(70, 130, 180); fill-opacity: 1; stroke: rgb(255, 255, 255); stroke-opacity: 1;"/><path class="point plotly-customdata" transform="translate(82.5,708.45)" d="M12.12,0A12.12,12.12 0 1,1 0,-12.12A12.12,12.12 0 0,1 12.12,0Z" style="opacity: 0.7; stroke-width: 1px; fill: rgb(70, 130, 180); fill-opacity: 1; stroke: rgb(255, 255, 255); stroke-opacity: 1;"/><path class="point plotly-customdata" transform="translate(929.32,664.24)" d="M13.54,0A13.54,13.54 0 1,1 0,-13.54A13.54,13.54 0 0,1 13.54,0Z" style="opacity: 0.7; stroke-width: 1px; fill: rgb(70, 130, 180); fill-opacity: 1; stroke: rgb(255, 255, 255); stroke-opacity: 1;"/></g><g class="text"><g class="textpoint" transform="translate(0,-4.799999999999999)"><text x="162.63" y="548.82" text-anchor="middle" style="font-family: 'Vazirmatn FD'; font-size: 12px; fill: rgb(42, 63, 95); fill-opacity: 1; white-space: pre;"><tspan class="line" dy="0em" x="162.63" y="548.82">سامانه‌های پیوسته</tspan><tspan class="line" dy="1.3em" x="162.63" y="548.82">و آماری</tspan></text></g><g class="textpoint" transform="translate(0,-4.799999999999999)"><text x="438.36" y="366.84" text-anchor="middle" style="font-family: 'Vazirmatn FD'; font-size: 12px; fill: rgb(42, 63, 95); fill-opacity: 1; white-space: pre;"><tspan class="line" dy="0em" x="438.36" y="366.84">علم مواد و</tspan><tspan class="line" dy="1.3em" x="438.36" y="366.84">انرژی</tspan></text></g><g class="textpoint" transform="translate(0,-4.799999999999999)"><text x="1054.35" y="78.05" text-anchor="middle" style="font-family: 'Vazirmatn FD'; font-size: 12px; fill: rgb(42, 63, 95); fill-opacity: 1; white-space: pre;"><tspan class="line" dy="0em" x="1054.35" y="78.05">فیزیک ذرات، میدان‌ها</tspan><tspan class="line" dy="1.3em" x="1054.35" y="78.05">و کیهان‌شناسی</tspan></text></g><g class="textpoint" transform="translate(0,-4.799999999999999)"><text x="763.24" y="472.55" text-anchor="middle" style="font-family: 'Vazirmatn FD'; font-size: 12px; fill: rgb(42, 63, 95); fill-opacity: 1; white-space: pre;"><tspan class="line" dy="0em" x="763.24" y="472.55">فیزیک نور و </tspan><tspan class="line" dy="1.3em" x="763.24" y="472.55">برهم‌کنش نور و ماده</tspan></text></g><g class="textpoint" transform="translate(0,-4.799999999999999)"><text x="82.5" y="708.45" text-anchor="middle" style="font-family: 'Vazirmatn FD'; font-size: 12px; fill: rgb(42, 63, 95); fill-opacity: 1; white-space: pre;"><tspan class="line" dy="0em" x="82.5" y="708.45">نجوم و</tspan><tspan class="line" dy="1.3em" x="82.5" y="708.45">اخترفیزیک</tspan></text></g><g class="textpoint" transform="translate(0,-4.799999999999999)"><text x="929.32" y="664.24" text-anchor="middle" style="font-family: 'Vazirmatn FD'; font-size: 12px; fill: rgb(42, 63, 95); fill-opacity: 1; white-space: pre;"><tspan class="line" dy="0em" x="929.32" y="664.24">‬‬علوم داده، اطلاعات کوانتمی</tspan><tspan class="line" dy="1.3em" x="929.32" y="664.24">و یادگیری ماشین‬</tspan></text></g></g></g><g class="trace scatter tracea3c818" style="stroke-miterlimit: 2; opacity: 1;"><g class="fills"/><g class="errorbars"/><g class="lines"/><g class="points"><path class="point plotly-customdata" transform="translate(162.36,376.81)" d="M8.59,0A8.59,8.59 0 1,1 0,-8.59A8.59,8.59 0 0,1 8.59,0Z" style="opacity: 0.7; stroke-width: 1px; fill: rgb(255, 215, 0); fill-opacity: 1; stroke: rgb(255, 255, 255); stroke-opacity: 1;"/><path class="point plotly-customdata" transform="translate(388.6,281.33)" d="M30.06,0A30.06,30.06 0 1,1 0,-30.06A30.06,30.06 0 0,1 30.06,0Z" style="opacity: 0.7; stroke-width: 1px; fill: rgb(255, 215, 0); fill-opacity: 1; stroke: rgb(255, 255, 255); stroke-opacity: 1;"/><path class="point plotly-customdata" transform="translate(1270.52,77.53)" d="M35.36,0A35.36,35.36 0 1,1 0,-35.36A35.36,35.36 0 0,1 35.36,0Z" style="opacity: 0.7; stroke-width: 1px; fill: rgb(255, 215, 0); fill-opacity: 1; stroke: rgb(255, 255, 255); stroke-opacity: 1;"/><path class="point plotly-customdata" transform="translate(661.98,396.63)" d="M30.93,0A30.93,30.93 0 1,1 0,-30.93A30.93,30.93 0 0,1 30.93,0Z" style="opacity: 0.7; stroke-width: 1px; fill: rgb(255, 215, 0); fill-opacity: 1; stroke: rgb(255, 255, 255); stroke-opacity: 1;"/><path class="point plotly-customdata" transform="translate(142.41,560.34)" d="M13.5,0A13.5,13.5 0 1,1 0,-13.5A13.5,13.5 0 0,1 13.5,0Z" style="opacity: 0.7; stroke-width: 1px; fill: rgb(255, 215, 0); fill-opacity: 1; stroke: rgb(255, 255, 255); stroke-opacity: 1;"/><path class="point plotly-customdata" transform="translate(752.2,398.37)" d="M13.23,0A13.23,13.23 0 1,1 0,-13.23A13.23,13.23 0 0,1 13.23,0Z" style="opacity: 0.7; stroke-width: 1px; fill: rgb(255, 215, 0); fill-opacity: 1; stroke: rgb(255, 255, 255); stroke-opacity: 1;"/></g><g class="text"><g class="textpoint" transform="translate(0,-4.799999999999999)"><text x="162.36" y="376.81" text-anchor="middle" style="font-family: 'Vazirmatn FD'; font-size: 12px; fill: rgb(42, 63, 95); fill-opacity: 1; white-space: pre;"><tspan class="line" dy="0em" x="162.36" y="376.81">سامانه‌های پیوسته</tspan><tspan class="line" dy="1.3em" x="162.36" y="376.81">و آماری</tspan></text></g><g class="textpoint" transform="translate(0,-4.799999999999999)"><text x="388.6" y="281.33" text-anchor="middle" style="font-family: 'Vazirmatn FD'; font-size: 12px; fill: rgb(42, 63, 95); fill-opacity: 1; white-space: pre;"><tspan class="line" dy="0em" x="388.6" y="281.33">علم مواد و</tspan><tspan class="line" dy="1.3em" x="388.6" y="281.33">انرژی</tspan></text></g><g class="textpoint" transform="translate(0,-4.799999999999999)"><text x="1270.52" y="77.53" text-anchor="middle" style="font-family: 'Vazirmatn FD'; font-size: 12px; fill: rgb(42, 63, 95); fill-opacity: 1; white-space: pre;"><tspan class="line" dy="0em" x="1270.52" y="77.53">فیزیک ذرات، میدان‌ها</tspan><tspan class="line" dy="1.3em" x="1270.52" y="77.53">و کیهان‌شناسی</tspan></text></g><g class="textpoint" transform="translate(0,-4.799999999999999)"><text x="661.98" y="396.63" text-anchor="middle" style="font-family: 'Vazirmatn FD'; font-size: 12px; fill: rgb(42, 63, 95); fill-opacity: 1; white-space: pre;"><tspan class="line" dy="0em" x="661.98" y="396.63">فیزیک نور و </tspan><tspan class="line" dy="1.3em" x="661.98" y="396.63">برهم‌کنش نور و ماده</tspan></text></g><g class="textpoint" transform="translate(0,-4.799999999999999)"><text x="142.41" y="560.34" text-anchor="middle" style="font-family: 'Vazirmatn FD'; font-size: 12px; fill: rgb(42, 63, 95); fill-opacity: 1; white-space: pre;"><tspan class="line" dy="0em" x="142.41" y="560.34">نجوم و</tspan><tspan class="line" dy="1.3em" x="142.41" y="560.34">اخترفیزیک</tspan></text></g><g class="textpoint" transform="translate(0,-4.799999999999999)"><text x="752.2" y="398.37" text-anchor="middle" style="font-family: 'Vazirmatn FD'; font-size: 12px; fill: rgb(42, 63, 95); fill-opacity: 1; white-space: pre;"><tspan class="line" dy="0em" x="752.2" y="398.37">‬‬علوم داده، اطلاعات کوانتمی</tspan><tspan class="line" dy="1.3em" x="752.2" y="398.37">و یادگیری ماشین‬</tspan></text></g></g></g><g class="trace scatter traced5767b" style="stroke-miterlimit: 2; opacity: 0.8;"><g class="fills"/><g class="errorbars"/><g class="lines"><path class="js-line" d="M162.63,548.82L162.36,376.81" style="vector-effect: none; fill: none; stroke: rgb(128, 128, 128); stroke-opacity: 1; stroke-width: 1.2px; opacity: 1;"/></g><g class="points"><path class="point" transform="translate(162.63,548.82)" d="M0,0Z" style="opacity: 0.7; stroke-width: 1px; fill: rgb(128, 128, 128); fill-opacity: 1; stroke: rgb(255, 255, 255); stroke-opacity: 1;"/><path class="point" transform="translate(162.5,462.81)" d="M0,0L-9.17848381646179,9.206271494527467A13,13,-0.08659976357103005,0,1,9.206271494527469,9.178483816461789Z" style="opacity: 0.7; stroke-width: 1px; fill: rgb(128, 128, 128); fill-opacity: 1; stroke: rgb(255, 255, 255); stroke-opacity: 1;"/><path class="point" transform="translate(162.36,376.81)" d="M0,0A0,0 0 1,1 0,-0A0,0 0 0,1 0,0Z" style="opacity: 0.7; stroke-width: 1px; fill: rgb(128, 128, 128); fill-opacity: 1; stroke: rgb(255, 255, 255); stroke-opacity: 1;"/></g><g class="text"/></g><g class="trace scatter trace238e27" style="stroke-miterlimit: 2; opacity: 0.8;"><g class="fills"/><g class="errorbars"/><g class="lines"><path class="js-line" d="M162.63,548.82L162.36,376.81" style="vector-effect: none; fill: none; stroke: rgb(128, 128, 128); stroke-opacity: 1; stroke-width: 1.2px; opacity: 1;"/></g><g class="points"><path class="point" transform="translate(162.63,548.82)" d="M0,0Z" style="opacity: 0.7; stroke-width: 1px; fill: rgb(128, 128, 128); fill-opacity: 1; stroke: rgb(255, 255, 255); stroke-opacity: 1;"/><path class="point" transform="translate(162.5,462.81)" d="M0,0L-9.17848381646179,9.206271494527467A13,13,-0.08659976357103005,0,1,9.206271494527469,9.178483816461789Z" style="opacity: 0.7; stroke-width: 1px; fill: rgb(128, 128, 128); fill-opacity: 1; stroke: rgb(255, 255, 255); stroke-opacity: 1;"/><path class="point" transform="translate(162.36,376.81)" d="M0,0A0,0 0 1,1 0,-0A0,0 0 0,1 0,0Z" style="opacity: 0.7; stroke-width: 1px; fill: rgb(128, 128, 128); fill-opacity: 1; stroke: rgb(255, 255, 255); stroke-opacity: 1;"/></g><g class="text"/></g><g class="trace scatter tracead0d01" style="stroke-miterlimit: 2; opacity: 0.8;"><g class="fills"/><g class="errorbars"/><g class="lines"><path class="js-line" d="M438.36,366.84L388.6,281.33" style="vector-effect: none; fill: none; stroke: rgb(128, 128, 128); stroke-opacity: 1; stroke-width: 1.2px; opacity: 1;"/></g><g class="points"><path class="point" transform="translate(438.36,366.84)" d="M0,0Z" style="opacity: 0.7; stroke-width: 1px; fill: rgb(128, 128, 128); fill-opacity: 1; stroke: rgb(255, 255, 255); stroke-opacity: 1;"/><path class="point" transform="translate(413.48,324.08)" d="M0,0L-3.3223130483130827,12.568302829300727A13,13,-30.19307903484676,0,1,12.568302829300727,3.32231304831308Z" style="opacity: 0.7; stroke-width: 1px; fill: rgb(128, 128, 128); fill-opacity: 1; stroke: rgb(255, 255, 255); stroke-opacity: 1;"/><path class="point" transform="translate(388.6,281.33)" d="M0,0A0,0 0 1,1 0,-0A0,0 0 0,1 0,0Z" style="opacity: 0.7; stroke-width: 1px; fill: rgb(128, 128, 128); fill-opacity: 1; stroke: rgb(255, 255, 255); stroke-opacity: 1;"/></g><g class="text"/></g><g class="trace scatter trace50b6de" style="stroke-miterlimit: 2; opacity: 0.8;"><g class="fills"/><g class="errorbars"/><g class="lines"><path class="js-line" d="M438.36,366.84L388.6,281.33" style="vector-effect: none; fill: none; stroke: rgb(128, 128, 128); stroke-opacity: 1; stroke-width: 1.2px; opacity: 1;"/></g><g class="points"><path class="point" transform="translate(438.36,366.84)" d="M0,0Z" style="opacity: 0.7; stroke-width: 1px; fill: rgb(128, 128, 128); fill-opacity: 1; stroke: rgb(255, 255, 255); stroke-opacity: 1;"/><path class="point" transform="translate(413.48,324.08)" d="M0,0L-3.3223130483130827,12.568302829300727A13,13,-30.19307903484676,0,1,12.568302829300727,3.32231304831308Z" style="opacity: 0.7; stroke-width: 1px; fill: rgb(128, 128, 128); fill-opacity: 1; stroke: rgb(255, 255, 255); stroke-opacity: 1;"/><path class="point" transform="translate(388.6,281.33)" d="M0,0A0,0 0 1,1 0,-0A0,0 0 0,1 0,0Z" style="opacity: 0.7; stroke-width: 1px; fill: rgb(128, 128, 128); fill-opacity: 1; stroke: rgb(255, 255, 255); stroke-opacity: 1;"/></g><g class="text"/></g><g class="trace scatter trace00b5dd" style="stroke-miterlimit: 2; opacity: 0.8;"><g class="fills"/><g class="errorbars"/><g class="lines"><path class="js-line" d="M1054.35,78.05L1270.52,77.53" style="vector-effect: none; fill: none; stroke: rgb(128, 128, 128); stroke-opacity: 1; stroke-width: 1.2px; opacity: 1;"/></g><g class="points"><path class="point" transform="translate(1054.35,78.05)" d="M0,0Z" style="opacity: 0.7; stroke-width: 1px; fill: rgb(128, 128, 128); fill-opacity: 1; stroke: rgb(255, 255, 255); stroke-opacity: 1;"/><path class="point" transform="translate(1162.44,77.79)" d="M0,0L-9.21447289533626,-9.170250228925788A13,13,89.8621808313209,0,1,-9.170250228925786,9.214472895336261Z" style="opacity: 0.7; stroke-width: 1px; fill: rgb(128, 128, 128); fill-opacity: 1; stroke: rgb(255, 255, 255); stroke-opacity: 1;"/><path class="point" transform="translate(1270.52,77.53)" d="M0,0A0,0 0 1,1 0,-0A0,0 0 0,1 0,0Z" style="opacity: 0.7; stroke-width: 1px; fill: rgb(128, 128, 128); fill-opacity: 1; stroke: rgb(255, 255, 255); stroke-opacity: 1;"/></g><g class="text"/></g><g class="trace scatter tracef1b2e1" style="stroke-miterlimit: 2; opacity: 0.8;"><g class="fills"/><g class="errorbars"/><g class="lines"><path class="js-line" d="M1054.35,78.05L1270.52,77.53" style="vector-effect: none; fill: none; stroke: rgb(128, 128, 128); stroke-opacity: 1; stroke-width: 1.2px; opacity: 1;"/></g><g class="points"><path class="point" transform="translate(1054.35,78.05)" d="M0,0Z" style="opacity: 0.7; stroke-width: 1px; fill: rgb(128, 128, 128); fill-opacity: 1; stroke: rgb(255, 255, 255); stroke-opacity: 1;"/><path class="point" transform="translate(1162.44,77.79)" d="M0,0L-9.21447289533626,-9.170250228925788A13,13,89.8621808313209,0,1,-9.170250228925786,9.214472895336261Z" style="opacity: 0.7; stroke-width: 1px; fill: rgb(128, 128, 128); fill-opacity: 1; stroke: rgb(255, 255, 255); stroke-opacity: 1;"/><path class="point" transform="translate(1270.52,77.53)" d="M0,0A0,0 0 1,1 0,-0A0,0 0 0,1 0,0Z" style="opacity: 0.7; stroke-width: 1px; fill: rgb(128, 128, 128); fill-opacity: 1; stroke: rgb(255, 255, 255); stroke-opacity: 1;"/></g><g class="text"/></g><g class="trace scatter trace68a19d" style="stroke-miterlimit: 2; opacity: 0.8;"><g class="fills"/><g class="errorbars"/><g class="lines"><path class="js-line" d="M763.24,472.55L661.98,396.63" style="vector-effect: none; fill: none; stroke: rgb(128, 128, 128); stroke-opacity: 1; stroke-width: 1.2px; opacity: 1;"/></g><g class="points"><path class="point" transform="translate(763.24,472.55)" d="M0,0Z" style="opacity: 0.7; stroke-width: 1px; fill: rgb(128, 128, 128); fill-opacity: 1; stroke: rgb(255, 255, 255); stroke-opacity: 1;"/><path class="point" transform="translate(712.61,434.59)" d="M0,0L1.840511322297342,12.869052726307997A13,13,-53.139156680805144,0,1,12.869052726307997,-1.8405113222973437Z" style="opacity: 0.7; stroke-width: 1px; fill: rgb(128, 128, 128); fill-opacity: 1; stroke: rgb(255, 255, 255); stroke-opacity: 1;"/><path class="point" transform="translate(661.98,396.63)" d="M0,0A0,0 0 1,1 0,-0A0,0 0 0,1 0,0Z" style="opacity: 0.7; stroke-width: 1px; fill: rgb(128, 128, 128); fill-opacity: 1; stroke: rgb(255, 255, 255); stroke-opacity: 1;"/></g><g class="text"/></g><g class="trace scatter tracea27b92" style="stroke-miterlimit: 2; opacity: 0.8;"><g class="fills"/><g class="errorbars"/><g class="lines"><path class="js-line" d="M763.24,472.55L661.98,396.63" style="vector-effect: none; fill: none; stroke: rgb(128, 128, 128); stroke-opacity: 1; stroke-width: 1.2px; opacity: 1;"/></g><g class="points"><path class="point" transform="translate(763.24,472.55)" d="M0,0Z" style="opacity: 0.7; stroke-width: 1px; fill: rgb(128, 128, 128); fill-opacity: 1; stroke: rgb(255, 255, 255); stroke-opacity: 1;"/><path class="point" transform="translate(712.61,434.59)" d="M0,0L1.840511322297342,12.869052726307997A13,13,-53.139156680805144,0,1,12.869052726307997,-1.8405113222973437Z" style="opacity: 0.7; stroke-width: 1px; fill: rgb(128, 128, 128); fill-opacity: 1; stroke: rgb(255, 255, 255); stroke-opacity: 1;"/><path class="point" transform="translate(661.98,396.63)" d="M0,0A0,0 0 1,1 0,-0A0,0 0 0,1 0,0Z" style="opacity: 0.7; stroke-width: 1px; fill: rgb(128, 128, 128); fill-opacity: 1; stroke: rgb(255, 255, 255); stroke-opacity: 1;"/></g><g class="text"/></g><g class="trace scatter trace4998bc" style="stroke-miterlimit: 2; opacity: 0.8;"><g class="fills"/><g class="errorbars"/><g class="lines"><path class="js-line" d="M82.5,708.45L142.41,560.34" style="vector-effect: none; fill: none; stroke: rgb(128, 128, 128); stroke-opacity: 1; stroke-width: 1.2px; opacity: 1;"/></g><g class="points"><path class="point" transform="translate(82.5,708.45)" d="M0,0Z" style="opacity: 0.7; stroke-width: 1px; fill: rgb(128, 128, 128); fill-opacity: 1; stroke: rgb(255, 255, 255); stroke-opacity: 1;"/><path class="point" transform="translate(112.45,634.4)" d="M0,0L-11.968440647334413,5.075079159110078A13,13,22.02118763938219,0,1,5.07507915911008,11.968440647334411Z" style="opacity: 0.7; stroke-width: 1px; fill: rgb(128, 128, 128); fill-opacity: 1; stroke: rgb(255, 255, 255); stroke-opacity: 1;"/><path class="point" transform="translate(142.41,560.34)" d="M0,0A0,0 0 1,1 0,-0A0,0 0 0,1 0,0Z" style="opacity: 0.7; stroke-width: 1px; fill: rgb(128, 128, 128); fill-opacity: 1; stroke: rgb(255, 255, 255); stroke-opacity: 1;"/></g><g class="text"/></g><g class="trace scatter trace5c334d" style="stroke-miterlimit: 2; opacity: 0.8;"><g class="fills"/><g class="errorbars"/><g class="lines"><path class="js-line" d="M82.5,708.45L142.41,560.34" style="vector-effect: none; fill: none; stroke: rgb(128, 128, 128); stroke-opacity: 1; stroke-width: 1.2px; opacity: 1;"/></g><g class="points"><path class="point" transform="translate(82.5,708.45)" d="M0,0Z" style="opacity: 0.7; stroke-width: 1px; fill: rgb(128, 128, 128); fill-opacity: 1; stroke: rgb(255, 255, 255); stroke-opacity: 1;"/><path class="point" transform="translate(112.45,634.4)" d="M0,0L-11.968440647334413,5.075079159110078A13,13,22.02118763938219,0,1,5.07507915911008,11.968440647334411Z" style="opacity: 0.7; stroke-width: 1px; fill: rgb(128, 128, 128); fill-opacity: 1; stroke: rgb(255, 255, 255); stroke-opacity: 1;"/><path class="point" transform="translate(142.41,560.34)" d="M0,0A0,0 0 1,1 0,-0A0,0 0 0,1 0,0Z" style="opacity: 0.7; stroke-width: 1px; fill: rgb(128, 128, 128); fill-opacity: 1; stroke: rgb(255, 255, 255); stroke-opacity: 1;"/></g><g class="text"/></g><g class="trace scatter trace5c82b2" style="stroke-miterlimit: 2; opacity: 0.8;"><g class="fills"/><g class="errorbars"/><g class="lines"><path class="js-line" d="M929.32,664.24L752.2,398.37" style="vector-effect: none; fill: none; stroke: rgb(128, 128, 128); stroke-opacity: 1; stroke-width: 1.2px; opacity: 1;"/></g><g class="points"><path class="point" transform="translate(929.32,664.24)" d="M0,0Z" style="opacity: 0.7; stroke-width: 1px; fill: rgb(128, 128, 128); fill-opacity: 1; stroke: rgb(255, 255, 255); stroke-opacity: 1;"/><path class="point" transform="translate(840.76,531.3)" d="M0,0L-2.5539362961394048,12.746662676766093A13,13,-33.67017108634721,0,1,12.746662676766094,2.553936296139402Z" style="opacity: 0.7; stroke-width: 1px; fill: rgb(128, 128, 128); fill-opacity: 1; stroke: rgb(255, 255, 255); stroke-opacity: 1;"/><path class="point" transform="translate(752.2,398.37)" d="M0,0A0,0 0 1,1 0,-0A0,0 0 0,1 0,0Z" style="opacity: 0.7; stroke-width: 1px; fill: rgb(128, 128, 128); fill-opacity: 1; stroke: rgb(255, 255, 255); stroke-opacity: 1;"/></g><g class="text"/></g><g class="trace scatter traceb3409c" style="stroke-miterlimit: 2; opacity: 0.8;"><g class="fills"/><g class="errorbars"/><g class="lines"><path class="js-line" d="M929.32,664.24L752.2,398.37" style="vector-effect: none; fill: none; stroke: rgb(128, 128, 128); stroke-opacity: 1; stroke-width: 1.2px; opacity: 1;"/></g><g class="points"><path class="point" transform="translate(929.32,664.24)" d="M0,0Z" style="opacity: 0.7; stroke-width: 1px; fill: rgb(128, 128, 128); fill-opacity: 1; stroke: rgb(255, 255, 255); stroke-opacity: 1;"/><path class="point" transform="translate(840.76,531.3)" d="M0,0L-2.5539362961394048,12.746662676766093A13,13,-33.67017108634721,0,1,12.746662676766094,2.553936296139402Z" style="opacity: 0.7; stroke-width: 1px; fill: rgb(128, 128, 128); fill-opacity: 1; stroke: rgb(255, 255, 255); stroke-opacity: 1;"/><path class="point" transform="translate(752.2,398.37)" d="M0,0A0,0 0 1,1 0,-0A0,0 0 0,1 0,0Z" style="opacity: 0.7; stroke-width: 1px; fill: rgb(128, 128, 128); fill-opacity: 1; stroke: rgb(255, 255, 255); stroke-opacity: 1;"/></g><g class="text"/></g></g></g></g><g class="zerolinelayer-above"/><path class="xlines-above crisp" d="M0,0" style="fill: none;"/><path class="ylines-above crisp" d="M0,0" style="fill: none;"/><g class="overlines-above"/><g class="xaxislayer-above"><g class="xtick"><text text-anchor="middle" x="0" y="834" transform="translate(84.71,0)" style="font-family: 'Vazirmatn FD'; font-size: 13px; fill: rgb(42, 63, 95); fill-opacity: 1; white-space: pre;">0.2</text></g><g class="xtick"><text text-anchor="middle" x="0" y="834" style="font-family: 'Vazirmatn FD'; font-size: 13px; fill: rgb(42, 63, 95); fill-opacity: 1; white-space: pre;" transform="translate(225.03,0)">0.4</text></g><g class="xtick"><text text-anchor="middle" x="0" y="834" style="font-family: 'Vazirmatn FD'; font-size: 13px; fill: rgb(42, 63, 95); fill-opacity: 1; white-space: pre;" transform="translate(365.35,0)">0.6</text></g><g class="xtick"><text text-anchor="middle" x="0" y="834" style="font-family: 'Vazirmatn FD'; font-size: 13px; fill: rgb(42, 63, 95); fill-opacity: 1; white-space: pre;" transform="translate(505.67,0)">0.8</text></g><g class="xtick"><text text-anchor="middle" x="0" y="834" style="font-family: 'Vazirmatn FD'; font-size: 13px; fill: rgb(42, 63, 95); fill-opacity: 1; white-space: pre;" transform="translate(645.99,0)">1</text></g><g class="xtick"><text text-anchor="middle" x="0" y="834" style="font-family: 'Vazirmatn FD'; font-size: 13px; fill: rgb(42, 63, 95); fill-opacity: 1; white-space: pre;" transform="translate(786.3,0)">1.2</text></g><g class="xtick"><text text-anchor="middle" x="0" y="834" style="font-family: 'Vazirmatn FD'; font-size: 13px; fill: rgb(42, 63, 95); fill-opacity: 1; white-space: pre;" transform="translate(926.62,0)">1.4</text></g><g class="xtick"><text text-anchor="middle" x="0" y="834" style="font-family: 'Vazirmatn FD'; font-size: 13px; fill: rgb(42, 63, 95); fill-opacity: 1; white-space: pre;" transform="translate(1066.94,0)">1.6</text></g><g class="xtick"><text text-anchor="middle" x="0" y="834" style="font-family: 'Vazirmatn FD'; font-size: 13px; fill: rgb(42, 63, 95); fill-opacity: 1; white-space: pre;" transform="translate(1207.26,0)">1.8</text></g><g class="xtick"><text text-anchor="middle" x="0" y="834" style="font-family: 'Vazirmatn FD'; font-size: 13px; fill: rgb(42, 63, 95); fill-opacity: 1; white-space: pre;" transform="translate(1347.58,0)">2</text></g></g><g class="yaxislayer-above"><g class="ytick"><text text-anchor="end" x="79" y="4.55" transform="translate(0,775.61)" style="font-family: 'Vazirmatn FD'; font-size: 13px; fill: rgb(42, 63, 95); fill-opacity: 1; white-space: pre;">0.4</text></g><g class="ytick"><text text-anchor="end" x="79" y="4.55" style="font-family: 'Vazirmatn FD'; font-size: 13px; fill: rgb(42, 63, 95); fill-opacity: 1; white-space: pre;" transform="translate(0,689)">0.5</text></g><g class="ytick"><text text-anchor="end" x="79" y="4.55" style="font-family: 'Vazirmatn FD'; font-size: 13px; fill: rgb(42, 63, 95); fill-opacity: 1; white-space: pre;" transform="translate(0,602.4)">0.6</text></g><g class="ytick"><text text-anchor="end" x="79" y="4.55" style="font-family: 'Vazirmatn FD'; font-size: 13px; fill: rgb(42, 63, 95); fill-opacity: 1; white-space: pre;" transform="translate(0,515.79)">0.7</text></g><g class="ytick"><text text-anchor="end" x="79" y="4.55" style="font-family: 'Vazirmatn FD'; font-size: 13px; fill: rgb(42, 63, 95); fill-opacity: 1; white-space: pre;" transform="translate(0,429.18)">0.8</text></g><g class="ytick"><text text-anchor="end" x="79" y="4.55" style="font-family: 'Vazirmatn FD'; font-size: 13px; fill: rgb(42, 63, 95); fill-opacity: 1; white-space: pre;" transform="translate(0,342.58)">0.9</text></g><g class="ytick"><text text-anchor="end" x="79" y="4.55" style="font-family: 'Vazirmatn FD'; font-size: 13px; fill: rgb(42, 63, 95); fill-opacity: 1; white-space: pre;" transform="translate(0,255.97)">1</text></g><g class="ytick"><text text-anchor="end" x="79" y="4.55" style="font-family: 'Vazirmatn FD'; font-size: 13px; fill: rgb(42, 63, 95); fill-opacity: 1; white-space: pre;" transform="translate(0,169.36)">1.1</text></g><g class="ytick"><text text-anchor="end" x="79" y="4.55" style="font-family: 'Vazirmatn FD'; font-size: 13px; fill: rgb(42, 63, 95); fill-opacity: 1; white-space: pre;" transform="translate(0,82.76)">1.2</text></g></g><g class="overaxes-above"/></g></g><g class="polarlayer"/><g class="smithlayer"/><g class="ternarylayer"/><g class="geolayer"/><g class="funnelarealayer"/><g class="pielayer"/><g class="iciclelayer"/><g class="treemaplayer"/><g class="sunburstlayer"/><g class="glimages"/><defs id="topdefs-2f7e47"><g class="clips"/><clipPath id="legend2f7e47"><rect width="101" height="67" x="0" y="0"/></clipPath></defs><g class="layer-above"><g class="imagelayer"/><g class="shapelayer"><g class="shape-group" data-index="0" clip-path="url(#clip2f7e47y)"><path data-index="0" fill-rule="evenodd" d="M80,255.97L1459,255.97" style="opacity: 1; stroke: rgb(128, 128, 128); stroke-opacity: 1; fill: rgb(0, 0, 0); fill-opacity: 0; stroke-dasharray: 9px, 9px; stroke-width: 2px;"/></g><g class="shape-group" data-index="1" clip-path="url(#clip2f7e47x)"><path data-index="1" fill-rule="evenodd" d="M645.99,820L645.99,60" style="opacity: 1; stroke: rgb(128, 128, 128); stroke-opacity: 1; fill: rgb(0, 0, 0); fill-opacity: 0; stroke-dasharray: 9px, 9px; stroke-width: 2px;"/></g></g></g><g class="infolayer"><g class="legend" pointer-events="all" transform="translate(1486.58,60)"><rect class="bg" shape-rendering="crispEdges" style="stroke: rgb(68, 68, 68); stroke-opacity: 1; fill: rgb(255, 255, 255); fill-opacity: 1; stroke-width: 0px;" width="101" height="67" x="0" y="0"/><g class="scrollbox" transform="" clip-path="url(#legend2f7e47)"><text class="legendtitletext" text-anchor="start" x="2" y="18.2" style="font-family: 'Vazirmatn FD'; font-size: 14px; fill: rgb(42, 63, 95); fill-opacity: 1; white-space: pre;">دوره زمانی</text><g class="groups" transform=""><g class="traces" transform="translate(0,32.7)" style="opacity: 1;"><text class="legendtext" text-anchor="start" x="40" y="4.680000000000001" style="font-family: 'Vazirmatn FD'; font-size: 12px; fill: rgb(42, 63, 95); fill-opacity: 1; white-space: pre;">2015-2016</text><g class="layers" style="opacity: 0.5;"><g class="legendfill"/><g class="legendlines"/><g class="legendsymbols"><g class="legendpoints"><path class="scatterpts" transform="translate(20,0)" d="M6,0A6,6 0 1,1 0,-6A6,6 0 0,1 6,0Z" style="opacity: 0.7; stroke-width: 2px; fill: rgb(70, 130, 180); fill-opacity: 1; stroke: rgb(255, 255, 255); stroke-opacity: 1;"/></g></g></g><rect class="legendtoggle" x="0" y="-9.5" width="95.75" height="19" style="fill: rgb(0, 0, 0); fill-opacity: 0;"/></g></g><g class="groups" transform=""><g class="traces" transform="translate(0,51.7)" style="opacity: 1;"><text class="legendtext" text-anchor="start" x="40" y="4.680000000000001" style="font-family: 'Vazirmatn FD'; font-size: 12px; fill: rgb(42, 63, 95); fill-opacity: 1; white-space: pre;">2023-2024</text><g class="layers" style="opacity: 1;"><g class="legendfill"/><g class="legendlines"/><g class="legendsymbols"><g class="legendpoints"><path class="scatterpts" transform="translate(20,0)" d="M6,0A6,6 0 1,1 0,-6A6,6 0 0,1 6,0Z" style="opacity: 0.7; stroke-width: 2px; fill: rgb(255, 215, 0); fill-opacity: 1; stroke: rgb(255, 255, 255); stroke-opacity: 1;"/></g></g></g><rect class="legendtoggle" x="0" y="-9.5" width="95.75" height="19" style="fill: rgb(0, 0, 0); fill-opacity: 0;"/></g></g></g><rect class="scrollbar" rx="20" ry="3" width="0" height="0" style="fill: rgb(128, 139, 164); fill-opacity: 1;" x="0" y="0"/></g><g class="g-gtitle"><text class="gtitle" x="800" y="45" text-anchor="middle" dy="0.7em" style="opacity: 1; font-family: 'Vazirmatn FD Black'; font-size: 17px; fill: rgb(42, 63, 95); fill-opacity: 1; white-space: pre;">تحلیل جایگاهی زیرحوزه‌های فیزیک در ایران</text></g><g class="g-xtitle"><text class="xtitle" x="769.5" y="865.3" text-anchor="middle" style="opacity: 1; font-family: 'Vazirmatn FD'; font-size: 14px; fill: rgb(42, 63, 95); fill-opacity: 1; white-space: pre;">شاخص تمرکز</text></g><g class="g-ytitle"><text class="ytitle" transform="rotate(-90,42.9125,440)" x="42.9125" y="440" text-anchor="middle" style="opacity: 1; font-family: 'Vazirmatn FD'; font-size: 14px; fill: rgb(42, 63, 95); fill-opacity: 1; white-space: pre;">تأثیر استنادی نرمال‌شده</text></g></g></svg>