<svg class="main-svg" xmlns="http://www.w3.org/2000/svg" xmlns:xlink="http://www.w3.org/1999/xlink" width="1600" height="900" style="" viewBox="0 0 1600 900"><rect x="0" y="0" width="1600" height="900" style="fill: rgb(255, 255, 255); fill-opacity: 1;"/><defs id="defs-ce1a08"><g class="clips"><clipPath id="clipce1a08xyplot" class="plotclip"><rect width="1337" height="772"/></clipPath><clipPath id="clipce1a08xy2plot" class="plotclip"><rect width="1337" height="772"/></clipPath><clipPath id="clipce1a08xyz2plot" class="plotclip"><rect width="1337" height="772"/></clipPath><clipPath id="clipce1a08xy2z2plot" class="plotclip"><rect width="1337" height="772"/></clipPath><clipPath class="axesclip" id="clipce1a08x"><rect x="63" y="0" width="1337" height="900"/></clipPath><clipPath class="axesclip" id="clipce1a08y"><rect x="0" y="70" width="1600" height="772"/></clipPath><clipPath class="axesclip" id="clipce1a08xy"><rect x="63" y="70" width="1337" height="772"/></clipPath><clipPath class="axesclip" id="clipce1a08y2"><rect x="0" y="70" width="1600" height="772"/></clipPath><clipPath class="axesclip" id="clipce1a08xy2"><rect x="63" y="70" width="1337" height="772"/></clipPath></g><g class="gradients"/><g class="patterns"/></defs><g class="bglayer"><rect class="bg" x="63" y="70" width="1337" height="772" style="fill: rgb(229, 236, 246); fill-opacity: 1; stroke-width: 0;"/><rect class="bg" x="63" y="70" width="1337" height="772" style="fill: rgb(229, 236, 246); fill-opacity: 1; stroke-width: 0;"/></g><g class="layer-below"><g class="imagelayer"/><g class="shapelayer"/></g><g class="cartesianlayer"><g class="subplot xy"><g class="layer-subplot"><g class="shapelayer"/><g class="imagelayer"/></g><g class="minor-gridlayer"><g class="x"/><g class="y"/><g class="y2"/></g><g class="gridlayer"><g class="x"/><g class="y"><path class="ygrid crisp" transform="translate(0,713.33)" d="M63,0h1337" style="stroke: rgb(255, 255, 255); stroke-opacity: 1; stroke-width: 1px;"/><path class="ygrid crisp" transform="translate(0,584.67)" d="M63,0h1337" style="stroke: rgb(255, 255, 255); stroke-opacity: 1; stroke-width: 1px;"/><path class="ygrid crisp" transform="translate(0,456)" d="M63,0h1337" style="stroke: rgb(255, 255, 255); stroke-opacity: 1; stroke-width: 1px;"/><path class="ygrid crisp" transform="translate(0,327.33)" d="M63,0h1337" style="stroke: rgb(255, 255, 255); stroke-opacity: 1; stroke-width: 1px;"/><path class="ygrid crisp" transform="translate(0,198.67)" d="M63,0h1337" style="stroke: rgb(255, 255, 255); stroke-opacity: 1; stroke-width: 1px;"/></g><g class="y2"/></g><g class="zerolinelayer"><path class="yzl zl crisp" transform="translate(0,842)" d="M63,0h1337" style="stroke: rgb(255, 255, 255); stroke-opacity: 1; stroke-width: 2px;"/></g><g class="layer-between"><g class="shapelayer"/><g class="imagelayer"/></g><path class="xlines-below"/><path class="ylines-below"/><g class="overlines-below"/><g class="xaxislayer-below"/><g class="yaxislayer-below"/><g class="overaxes-below"/><g class="overplot"><g class="xy" transform="translate(63,70)" clip-path="url(#clipce1a08xyplot)"><g class="barlayer mlayer"><g class="trace bars" shape-rendering="crispEdges" style="opacity: 0.9;"><g class="points"><g class="point"><path d="M22.13,772V642.56H121.57V772Z" style="vector-effect: none; opacity: 1; stroke-width: 0.5px; fill: rgb(26, 152, 80); fill-opacity: 1; stroke: rgb(229, 236, 246); stroke-opacity: 1;"/></g><g class="point"><path d="M154.72,772V600.62H254.16V772Z" style="vector-effect: none; opacity: 1; stroke-width: 0.5px; fill: rgb(26, 152, 80); fill-opacity: 1; stroke: rgb(229, 236, 246); stroke-opacity: 1;"/></g><g class="point"><path d="M287.31,772V580.03H386.75V772Z" style="vector-effect: none; opacity: 1; stroke-width: 0.5px; fill: rgb(26, 152, 80); fill-opacity: 1; stroke: rgb(229, 236, 246); stroke-opacity: 1;"/></g><g class="point"><path d="M419.9,772V572.31H519.34V772Z" style="vector-effect: none; opacity: 1; stroke-width: 0.5px; fill: rgb(26, 152, 80); fill-opacity: 1; stroke: rgb(229, 236, 246); stroke-opacity: 1;"/></g><g class="point"><path d="M552.48,772V566.13H651.93V772Z" style="vector-effect: none; opacity: 1; stroke-width: 0.5px; fill: rgb(26, 152, 80); fill-opacity: 1; stroke: rgb(229, 236, 246); stroke-opacity: 1;"/></g><g class="point"><path d="M685.07,772V587.23H784.52V772Z" style="vector-effect: none; opacity: 1; stroke-width: 0.5px; fill: rgb(26, 152, 80); fill-opacity: 1; stroke: rgb(229, 236, 246); stroke-opacity: 1;"/></g><g class="point"><path d="M817.66,772V618.89H917.1V772Z" style="vector-effect: none; opacity: 1; stroke-width: 0.5px; fill: rgb(26, 152, 80); fill-opacity: 1; stroke: rgb(229, 236, 246); stroke-opacity: 1;"/></g><g class="point"><path d="M950.25,772V613.74H1049.69V772Z" style="vector-effect: none; opacity: 1; stroke-width: 0.5px; fill: rgb(26, 152, 80); fill-opacity: 1; stroke: rgb(229, 236, 246); stroke-opacity: 1;"/></g><g class="point"><path d="M1082.84,772V575.4H1182.28V772Z" style="vector-effect: none; opacity: 1; stroke-width: 0.5px; fill: rgb(26, 152, 80); fill-opacity: 1; stroke: rgb(229, 236, 246); stroke-opacity: 1;"/></g><g class="point"><path d="M1215.43,772V537.57H1314.87V772Z" style="vector-effect: none; opacity: 1; stroke-width: 0.5px; fill: rgb(26, 152, 80); fill-opacity: 1; stroke: rgb(229, 236, 246); stroke-opacity: 1;"/></g></g></g><g class="trace bars" shape-rendering="crispEdges" style="opacity: 0.9;"><g class="points"><g class="point"><path d="M22.13,642.56V477.61H121.57V642.56Z" style="vector-effect: none; opacity: 1; stroke-width: 0.5px; fill: rgb(145, 207, 96); fill-opacity: 1; stroke: rgb(229, 236, 246); stroke-opacity: 1;"/></g><g class="point"><path d="M154.72,600.62V429.75H254.16V600.62Z" style="vector-effect: none; opacity: 1; stroke-width: 0.5px; fill: rgb(145, 207, 96); fill-opacity: 1; stroke: rgb(229, 236, 246); stroke-opacity: 1;"/></g><g class="point"><path d="M287.31,580.03V415.08H386.75V580.03Z" style="vector-effect: none; opacity: 1; stroke-width: 0.5px; fill: rgb(145, 207, 96); fill-opacity: 1; stroke: rgb(229, 236, 246); stroke-opacity: 1;"/></g><g class="point"><path d="M419.9,572.31V392.69H519.34V572.31Z" style="vector-effect: none; opacity: 1; stroke-width: 0.5px; fill: rgb(145, 207, 96); fill-opacity: 1; stroke: rgb(229, 236, 246); stroke-opacity: 1;"/></g><g class="point"><path d="M552.48,566.13V398.35H651.93V566.13Z" style="vector-effect: none; opacity: 1; stroke-width: 0.5px; fill: rgb(145, 207, 96); fill-opacity: 1; stroke: rgb(229, 236, 246); stroke-opacity: 1;"/></g><g class="point"><path d="M685.07,587.23V378.28H784.52V587.23Z" style="vector-effect: none; opacity: 1; stroke-width: 0.5px; fill: rgb(145, 207, 96); fill-opacity: 1; stroke: rgb(229, 236, 246); stroke-opacity: 1;"/></g><g class="point"><path d="M817.66,618.89V352.8H917.1V618.89Z" style="vector-effect: none; opacity: 1; stroke-width: 0.5px; fill: rgb(145, 207, 96); fill-opacity: 1; stroke: rgb(229, 236, 246); stroke-opacity: 1;"/></g><g class="point"><path d="M950.25,613.74V400.15H1049.69V613.74Z" style="vector-effect: none; opacity: 1; stroke-width: 0.5px; fill: rgb(145, 207, 96); fill-opacity: 1; stroke: rgb(229, 236, 246); stroke-opacity: 1;"/></g><g class="point"><path d="M1082.84,575.4V362.33H1182.28V575.4Z" style="vector-effect: none; opacity: 1; stroke-width: 0.5px; fill: rgb(145, 207, 96); fill-opacity: 1; stroke: rgb(229, 236, 246); stroke-opacity: 1;"/></g><g class="point"><path d="M1215.43,537.57V349.72H1314.87V537.57Z" style="vector-effect: none; opacity: 1; stroke-width: 0.5px; fill: rgb(145, 207, 96); fill-opacity: 1; stroke: rgb(229, 236, 246); stroke-opacity: 1;"/></g></g></g><g class="trace bars" shape-rendering="crispEdges" style="opacity: 0.9;"><g class="points"><g class="point"><path d="M22.13,477.61V330.42H121.57V477.61Z" style="vector-effect: none; opacity: 1; stroke-width: 0.5px; fill: rgb(217, 239, 139); fill-opacity: 1; stroke: rgb(229, 236, 246); stroke-opacity: 1;"/></g><g class="point"><path d="M154.72,429.75V247.3H254.16V429.75Z" style="vector-effect: none; opacity: 1; stroke-width: 0.5px; fill: rgb(217, 239, 139); fill-opacity: 1; stroke: rgb(229, 236, 246); stroke-opacity: 1;"/></g><g class="point"><path d="M287.31,415.08V218.73H386.75V415.08Z" style="vector-effect: none; opacity: 1; stroke-width: 0.5px; fill: rgb(217, 239, 139); fill-opacity: 1; stroke: rgb(229, 236, 246); stroke-opacity: 1;"/></g><g class="point"><path d="M419.9,392.69V207.41H519.34V392.69Z" style="vector-effect: none; opacity: 1; stroke-width: 0.5px; fill: rgb(217, 239, 139); fill-opacity: 1; stroke: rgb(229, 236, 246); stroke-opacity: 1;"/></g><g class="point"><path d="M552.48,398.35V231.6H651.93V398.35Z" style="vector-effect: none; opacity: 1; stroke-width: 0.5px; fill: rgb(217, 239, 139); fill-opacity: 1; stroke: rgb(229, 236, 246); stroke-opacity: 1;"/></g><g class="point"><path d="M685.07,378.28V223.88H784.52V378.28Z" style="vector-effect: none; opacity: 1; stroke-width: 0.5px; fill: rgb(217, 239, 139); fill-opacity: 1; stroke: rgb(229, 236, 246); stroke-opacity: 1;"/></g><g class="point"><path d="M817.66,352.8V216.93H917.1V352.8Z" style="vector-effect: none; opacity: 1; stroke-width: 0.5px; fill: rgb(217, 239, 139); fill-opacity: 1; stroke: rgb(229, 236, 246); stroke-opacity: 1;"/></g><g class="point"><path d="M950.25,400.15V270.71H1049.69V400.15Z" style="vector-effect: none; opacity: 1; stroke-width: 0.5px; fill: rgb(217, 239, 139); fill-opacity: 1; stroke: rgb(229, 236, 246); stroke-opacity: 1;"/></g><g class="point"><path d="M1082.84,362.33V295.16H1182.28V362.33Z" style="vector-effect: none; opacity: 1; stroke-width: 0.5px; fill: rgb(217, 239, 139); fill-opacity: 1; stroke: rgb(229, 236, 246); stroke-opacity: 1;"/></g><g class="point"><path d="M1215.43,349.72V288.47H1314.87V349.72Z" style="vector-effect: none; opacity: 1; stroke-width: 0.5px; fill: rgb(217, 239, 139); fill-opacity: 1; stroke: rgb(229, 236, 246); stroke-opacity: 1;"/></g></g></g><g class="trace bars" shape-rendering="crispEdges" style="opacity: 0.9;"><g class="points"><g class="point"><path d="M22.13,330.42V263.77H121.57V330.42Z" style="vector-effect: none; opacity: 1; stroke-width: 0.5px; fill: rgb(255, 255, 191); fill-opacity: 1; stroke: rgb(229, 236, 246); stroke-opacity: 1;"/></g><g class="point"><path d="M154.72,247.3V176.79H254.16V247.3Z" style="vector-effect: none; opacity: 1; stroke-width: 0.5px; fill: rgb(255, 255, 191); fill-opacity: 1; stroke: rgb(229, 236, 246); stroke-opacity: 1;"/></g><g class="point"><path d="M287.31,218.73V146.42H386.75V218.73Z" style="vector-effect: none; opacity: 1; stroke-width: 0.5px; fill: rgb(255, 255, 191); fill-opacity: 1; stroke: rgb(229, 236, 246); stroke-opacity: 1;"/></g><g class="point"><path d="M419.9,207.41V137.16H519.34V207.41Z" style="vector-effect: none; opacity: 1; stroke-width: 0.5px; fill: rgb(255, 255, 191); fill-opacity: 1; stroke: rgb(229, 236, 246); stroke-opacity: 1;"/></g><g class="point"><path d="M552.48,231.6V165.47H651.93V231.6Z" style="vector-effect: none; opacity: 1; stroke-width: 0.5px; fill: rgb(255, 255, 191); fill-opacity: 1; stroke: rgb(229, 236, 246); stroke-opacity: 1;"/></g><g class="point"><path d="M685.07,223.88V151.05H784.52V223.88Z" style="vector-effect: none; opacity: 1; stroke-width: 0.5px; fill: rgb(255, 255, 191); fill-opacity: 1; stroke: rgb(229, 236, 246); stroke-opacity: 1;"/></g><g class="point"><path d="M817.66,216.93V160.32H917.1V216.93Z" style="vector-effect: none; opacity: 1; stroke-width: 0.5px; fill: rgb(255, 255, 191); fill-opacity: 1; stroke: rgb(229, 236, 246); stroke-opacity: 1;"/></g><g class="point"><path d="M950.25,270.71V232.37H1049.69V270.71Z" style="vector-effect: none; opacity: 1; stroke-width: 0.5px; fill: rgb(255, 255, 191); fill-opacity: 1; stroke: rgb(229, 236, 246); stroke-opacity: 1;"/></g><g class="point"><path d="M1082.84,295.16V270.97H1182.28V295.16Z" style="vector-effect: none; opacity: 1; stroke-width: 0.5px; fill: rgb(255, 255, 191); fill-opacity: 1; stroke: rgb(229, 236, 246); stroke-opacity: 1;"/></g><g class="point"><path d="M1215.43,288.47V267.37H1314.87V288.47Z" style="vector-effect: none; opacity: 1; stroke-width: 0.5px; fill: rgb(255, 255, 191); fill-opacity: 1; stroke: rgb(229, 236, 246); stroke-opacity: 1;"/></g></g></g><g class="trace bars" shape-rendering="crispEdges" style="opacity: 0.9;"><g class="points"><g class="point"><path d="M22.13,263.77V221.56H121.57V263.77Z" style="vector-effect: none; opacity: 1; stroke-width: 0.5px; fill: rgb(128, 128, 128); fill-opacity: 1; stroke: rgb(229, 236, 246); stroke-opacity: 1;"/></g><g class="point"><path d="M154.72,176.79V138.96H254.16V176.79Z" style="vector-effect: none; opacity: 1; stroke-width: 0.5px; fill: rgb(128, 128, 128); fill-opacity: 1; stroke: rgb(229, 236, 246); stroke-opacity: 1;"/></g><g class="point"><path d="M287.31,146.42V102.42H386.75V146.42Z" style="vector-effect: none; opacity: 1; stroke-width: 0.5px; fill: rgb(128, 128, 128); fill-opacity: 1; stroke: rgb(229, 236, 246); stroke-opacity: 1;"/></g><g class="point"><path d="M419.9,137.16V100.36H519.34V137.16Z" style="vector-effect: none; opacity: 1; stroke-width: 0.5px; fill: rgb(128, 128, 128); fill-opacity: 1; stroke: rgb(229, 236, 246); stroke-opacity: 1;"/></g><g class="point"><path d="M552.48,165.47V124.55H651.93V165.47Z" style="vector-effect: none; opacity: 1; stroke-width: 0.5px; fill: rgb(128, 128, 128); fill-opacity: 1; stroke: rgb(229, 236, 246); stroke-opacity: 1;"/></g><g class="point"><path d="M685.07,151.05V133.04H784.52V151.05Z" style="vector-effect: none; opacity: 1; stroke-width: 0.5px; fill: rgb(128, 128, 128); fill-opacity: 1; stroke: rgb(229, 236, 246); stroke-opacity: 1;"/></g><g class="point"><path d="M817.66,160.32V144.36H917.1V160.32Z" style="vector-effect: none; opacity: 1; stroke-width: 0.5px; fill: rgb(128, 128, 128); fill-opacity: 1; stroke: rgb(229, 236, 246); stroke-opacity: 1;"/></g><g class="point"><path d="M950.25,232.37V211.27H1049.69V232.37Z" style="vector-effect: none; opacity: 1; stroke-width: 0.5px; fill: rgb(128, 128, 128); fill-opacity: 1; stroke: rgb(229, 236, 246); stroke-opacity: 1;"/></g><g class="point"><path d="M1082.84,270.97V258.62H1182.28V270.97Z" style="vector-effect: none; opacity: 1; stroke-width: 0.5px; fill: rgb(128, 128, 128); fill-opacity: 1; stroke: rgb(229, 236, 246); stroke-opacity: 1;"/></g><g class="point"><path d="M1215.43,267.37V254.25H1314.87V267.37Z" style="vector-effect: none; opacity: 1; stroke-width: 0.5px; fill: rgb(128, 128, 128); fill-opacity: 1; stroke: rgb(229, 236, 246); stroke-opacity: 1;"/></g></g></g></g></g></g><g class="zerolinelayer-above"/><path class="xlines-above crisp" d="M0,0" style="fill: none;"/><path class="ylines-above crisp" d="M0,0" style="fill: none;"/><g class="overlines-above"/><g class="xaxislayer-above"><g class="xtick"><text text-anchor="middle" x="0" y="856" transform="translate(134.85,0)" style="font-family: 'Vazirmatn FD'; font-size: 13px; fill: rgb(42, 63, 95); fill-opacity: 1; white-space: pre;">2015</text></g><g class="xtick"><text text-anchor="middle" x="0" y="856" style="font-family: 'Vazirmatn FD'; font-size: 13px; fill: rgb(42, 63, 95); fill-opacity: 1; white-space: pre;" transform="translate(267.44,0)">2016</text></g><g class="xtick"><text text-anchor="middle" x="0" y="856" style="font-family: 'Vazirmatn FD'; font-size: 13px; fill: rgb(42, 63, 95); fill-opacity: 1; white-space: pre;" transform="translate(400.03,0)">2017</text></g><g class="xtick"><text text-anchor="middle" x="0" y="856" style="font-family: 'Vazirmatn FD'; font-size: 13px; fill: rgb(42, 63, 95); fill-opacity: 1; white-space: pre;" transform="translate(532.62,0)">2018</text></g><g class="xtick"><text text-anchor="middle" x="0" y="856" style="font-family: 'Vazirmatn FD'; font-size: 13px; fill: rgb(42, 63, 95); fill-opacity: 1; white-space: pre;" transform="translate(665.21,0)">2019</text></g><g class="xtick"><text text-anchor="middle" x="0" y="856" style="font-family: 'Vazirmatn FD'; font-size: 13px; fill: rgb(42, 63, 95); fill-opacity: 1; white-space: pre;" transform="translate(797.79,0)">2020</text></g><g class="xtick"><text text-anchor="middle" x="0" y="856" style="font-family: 'Vazirmatn FD'; font-size: 13px; fill: rgb(42, 63, 95); fill-opacity: 1; white-space: pre;" transform="translate(930.38,0)">2021</text></g><g class="xtick"><text text-anchor="middle" x="0" y="856" style="font-family: 'Vazirmatn FD'; font-size: 13px; fill: rgb(42, 63, 95); fill-opacity: 1; white-space: pre;" transform="translate(1062.97,0)">2022</text></g><g class="xtick"><text text-anchor="middle" x="0" y="856" style="font-family: 'Vazirmatn FD'; font-size: 13px; fill: rgb(42, 63, 95); fill-opacity: 1; white-space: pre;" transform="translate(1195.56,0)">2023</text></g><g class="xtick"><text text-anchor="middle" x="0" y="856" style="font-family: 'Vazirmatn FD'; font-size: 13px; fill: rgb(42, 63, 95); fill-opacity: 1; white-space: pre;" transform="translate(1328.15,0)">2024</text></g></g><g class="yaxislayer-above"><g class="ytick"><text text-anchor="end" x="62" y="4.55" transform="translate(0,842)" style="font-family: 'Vazirmatn FD'; font-size: 13px; fill: rgb(42, 63, 95); fill-opacity: 1; white-space: pre;">0</text></g><g class="ytick"><text text-anchor="end" x="62" y="4.55" style="font-family: 'Vazirmatn FD'; font-size: 13px; fill: rgb(42, 63, 95); fill-opacity: 1; white-space: pre;" transform="translate(0,713.33)">500</text></g><g class="ytick"><text text-anchor="end" x="62" y="4.55" style="font-family: 'Vazirmatn FD'; font-size: 13px; fill: rgb(42, 63, 95); fill-opacity: 1; white-space: pre;" transform="translate(0,584.67)">1000</text></g><g class="ytick"><text text-anchor="end" x="62" y="4.55" style="font-family: 'Vazirmatn FD'; font-size: 13px; fill: rgb(42, 63, 95); fill-opacity: 1; white-space: pre;" transform="translate(0,456)">1500</text></g><g class="ytick"><text text-anchor="end" x="62" y="4.55" style="font-family: 'Vazirmatn FD'; font-size: 13px; fill: rgb(42, 63, 95); fill-opacity: 1; white-space: pre;" transform="translate(0,327.33)">2000</text></g><g class="ytick"><text text-anchor="end" x="62" y="4.55" style="font-family: 'Vazirmatn FD'; font-size: 13px; fill: rgb(42, 63, 95); fill-opacity: 1; white-space: pre;" transform="translate(0,198.67)">2500</text></g><g class="ytick"><text text-anchor="end" x="62" y="4.55" style="font-family: 'Vazirmatn FD'; font-size: 13px; fill: rgb(42, 63, 95); fill-opacity: 1; white-space: pre;" transform="translate(0,70)">3000</text></g></g><g class="overaxes-above"/></g><g class="subplot xy2"><g class="layer-subplot"><g class="shapelayer"/><g class="imagelayer"/></g><g class="layer-between"><g class="shapelayer"/><g class="imagelayer"/></g><path class="xlines-below"/><path class="ylines-below"/><g class="overlines-below"/><g class="xaxislayer-below"/><g class="yaxislayer-below"/><g class="overaxes-below"/><g class="overplot"><g class="xy2" transform="translate(63,70)" clip-path="url(#clipce1a08xy2plot)"/></g><path class="xlines-above crisp" d="M0,0" style="fill: none;"/><path class="ylines-above crisp" d="M0,0" style="fill: none;"/><g class="overlines-above"/><g class="xaxislayer-above"/><g class="yaxislayer-above"/><g class="overaxes-above"/></g><g class="subplot xyz2"><g class="overplot"><g class="xyz2" transform="translate(63,70)" clip-path="url(#clipce1a08xyz2plot)"/></g><g class="zerolinelayer-above"/></g><g class="subplot xy2z2"><g class="overplot"><g class="xy2z2" transform="translate(63,70)" clip-path="url(#clipce1a08xy2z2plot)"><g class="scatterlayer2 mlayer"><g class="trace scatter trace945c61" style="stroke-miterlimit: 2; opacity: 1;"><g class="fills"/><g class="errorbars"/><g class="lines"><path class="js-line" d="M71.85,475.75L204.44,310.18L337.03,394.15L469.62,347.97L602.21,331.82L734.79,194L867.38,251.12L999.97,231.92L1132.56,173.02L1265.15,196.11" style="vector-effect: none; fill: none; stroke: rgb(0, 0, 255); stroke-opacity: 1; stroke-width: 2px; opacity: 1;"/></g><g class="points"><path class="point" transform="translate(71.85,475.75)" d="M4,0A4,4 0 1,1 0,-4A4,4 0 0,1 4,0Z" style="opacity: 1; stroke-width: 0px; fill: rgb(0, 0, 255); fill-opacity: 1;"/><path class="point" transform="translate(204.44,310.18)" d="M4,0A4,4 0 1,1 0,-4A4,4 0 0,1 4,0Z" style="opacity: 1; stroke-width: 0px; fill: rgb(0, 0, 255); fill-opacity: 1;"/><path class="point" transform="translate(337.03,394.15)" d="M4,0A4,4 0 1,1 0,-4A4,4 0 0,1 4,0Z" style="opacity: 1; stroke-width: 0px; fill: rgb(0, 0, 255); fill-opacity: 1;"/><path class="point" transform="translate(469.62,347.97)" d="M4,0A4,4 0 1,1 0,-4A4,4 0 0,1 4,0Z" style="opacity: 1; stroke-width: 0px; fill: rgb(0, 0, 255); fill-opacity: 1;"/><path class="point" transform="translate(602.21,331.82)" d="M4,0A4,4 0 1,1 0,-4A4,4 0 0,1 4,0Z" style="opacity: 1; stroke-width: 0px; fill: rgb(0, 0, 255); fill-opacity: 1;"/><path class="point" transform="translate(734.79,194)" d="M4,0A4,4 0 1,1 0,-4A4,4 0 0,1 4,0Z" style="opacity: 1; stroke-width: 0px; fill: rgb(0, 0, 255); fill-opacity: 1;"/><path class="point" transform="translate(867.38,251.12)" d="M4,0A4,4 0 1,1 0,-4A4,4 0 0,1 4,0Z" style="opacity: 1; stroke-width: 0px; fill: rgb(0, 0, 255); fill-opacity: 1;"/><path class="point" transform="translate(999.97,231.92)" d="M4,0A4,4 0 1,1 0,-4A4,4 0 0,1 4,0Z" style="opacity: 1; stroke-width: 0px; fill: rgb(0, 0, 255); fill-opacity: 1;"/><path class="point" transform="translate(1132.56,173.02)" d="M4,0A4,4 0 1,1 0,-4A4,4 0 0,1 4,0Z" style="opacity: 1; stroke-width: 0px; fill: rgb(0, 0, 255); fill-opacity: 1;"/><path class="point" transform="translate(1265.15,196.11)" d="M4,0A4,4 0 1,1 0,-4A4,4 0 0,1 4,0Z" style="opacity: 1; stroke-width: 0px; fill: rgb(0, 0, 255); fill-opacity: 1;"/></g><g class="text"><g class="textpoint" transform="translate(0,-9)"><text x="71.85" y="475.75" text-anchor="middle" style="font-family: 'Vazirmatn FD'; font-size: 12px; fill: rgb(42, 63, 95); fill-opacity: 1; white-space: pre;">0.73</text></g><g class="textpoint" transform="translate(0,-9)"><text x="204.44" y="310.18" text-anchor="middle" style="font-family: 'Vazirmatn FD'; font-size: 12px; fill: rgb(42, 63, 95); fill-opacity: 1; white-space: pre;">0.86</text></g><g class="textpoint" transform="translate(0,-9)"><text x="337.03" y="394.15" text-anchor="middle" style="font-family: 'Vazirmatn FD'; font-size: 12px; fill: rgb(42, 63, 95); fill-opacity: 1; white-space: pre;">0.79</text></g><g class="textpoint" transform="translate(0,-9)"><text x="469.62" y="347.97" text-anchor="middle" style="font-family: 'Vazirmatn FD'; font-size: 12px; fill: rgb(42, 63, 95); fill-opacity: 1; white-space: pre;">0.83</text></g><g class="textpoint" transform="translate(0,-9)"><text x="602.21" y="331.82" text-anchor="middle" style="font-family: 'Vazirmatn FD'; font-size: 12px; fill: rgb(42, 63, 95); fill-opacity: 1; white-space: pre;">0.84</text></g><g class="textpoint" transform="translate(0,-9)"><text x="734.79" y="194" text-anchor="middle" style="font-family: 'Vazirmatn FD'; font-size: 12px; fill: rgb(42, 63, 95); fill-opacity: 1; white-space: pre;">0.95</text></g><g class="textpoint" transform="translate(0,-9)"><text x="867.38" y="251.12" text-anchor="middle" style="font-family: 'Vazirmatn FD'; font-size: 12px; fill: rgb(42, 63, 95); fill-opacity: 1; white-space: pre;">0.90</text></g><g class="textpoint" transform="translate(0,-9)"><text x="999.97" y="231.92" text-anchor="middle" style="font-family: 'Vazirmatn FD'; font-size: 12px; fill: rgb(42, 63, 95); fill-opacity: 1; white-space: pre;">0.92</text></g><g class="textpoint" transform="translate(0,-9)"><text x="1132.56" y="173.02" text-anchor="middle" style="font-family: 'Vazirmatn FD'; font-size: 12px; fill: rgb(42, 63, 95); fill-opacity: 1; white-space: pre;">0.97</text></g><g class="textpoint" transform="translate(0,-9)"><text x="1265.15" y="196.11" text-anchor="middle" style="font-family: 'Vazirmatn FD'; font-size: 12px; fill: rgb(42, 63, 95); fill-opacity: 1; white-space: pre;">0.95</text></g></g></g></g></g></g></g></g><g class="polarlayer"/><g class="smithlayer"/><g class="ternarylayer"/><g class="geolayer"/><g class="funnelarealayer"/><g class="pielayer"/><g class="iciclelayer"/><g class="treemaplayer"/><g class="sunburstlayer"/><g class="glimages"/><defs id="topdefs-ce1a08"><g class="clips"/><clipPath id="legendce1a08"><rect width="156" height="124" x="0" y="0"/></clipPath></defs><g class="layer-above"><g class="imagelayer"/><g class="shapelayer"/></g><g class="infolayer"><g class="legend" pointer-events="all" transform="translate(1426.74,70)"><rect class="bg" shape-rendering="crispEdges" style="stroke: rgb(68, 68, 68); stroke-opacity: 1; fill: rgb(255, 255, 255); fill-opacity: 1; stroke-width: 0px;" width="156" height="124" x="0" y="0"/><g class="scrollbox" transform="" clip-path="url(#legendce1a08)"><g class="groups"><g class="traces" transform="translate(0,14.5)" style="opacity: 1;"><text class="legendtext" text-anchor="start" x="40" y="4.680000000000001" style="font-family: 'Vazirmatn FD'; font-size: 12px; fill: rgb(42, 63, 95); fill-opacity: 1; white-space: pre;">بدون ضریب تأثیر</text><g class="layers" style="opacity: 0.9;"><g class="legendfill"/><g class="legendlines"/><g class="legendsymbols"><g class="legendpoints"><path class="legendundefined" d="M6,6H-6V-6H6Z" transform="translate(20,0)" style="stroke-width: 0.5px; fill: rgb(128, 128, 128); fill-opacity: 1; stroke: rgb(229, 236, 246); stroke-opacity: 1;"/></g></g></g><rect class="legendtoggle" x="0" y="-9.5" width="150.66796875" height="19" style="fill: rgb(0, 0, 0); fill-opacity: 0;"/></g><g class="traces" transform="translate(0,33.5)" style="opacity: 1;"><text class="legendtext" text-anchor="start" x="40" y="4.680000000000001" style="font-family: 'Vazirmatn FD'; font-size: 12px; fill: rgb(42, 63, 95); fill-opacity: 1; white-space: pre;">چارک چهارم</text><g class="layers" style="opacity: 0.9;"><g class="legendfill"/><g class="legendlines"/><g class="legendsymbols"><g class="legendpoints"><path class="legendundefined" d="M6,6H-6V-6H6Z" transform="translate(20,0)" style="stroke-width: 0.5px; fill: rgb(255, 255, 191); fill-opacity: 1; stroke: rgb(229, 236, 246); stroke-opacity: 1;"/></g></g></g><rect class="legendtoggle" x="0" y="-9.5" width="150.66796875" height="19" style="fill: rgb(0, 0, 0); fill-opacity: 0;"/></g><g class="traces" transform="translate(0,52.5)" style="opacity: 1;"><text class="legendtext" text-anchor="start" x="40" y="4.680000000000001" style="font-family: 'Vazirmatn FD'; font-size: 12px; fill: rgb(42, 63, 95); fill-opacity: 1; white-space: pre;">چارک سوم</text><g class="layers" style="opacity: 0.9;"><g class="legendfill"/><g class="legendlines"/><g class="legendsymbols"><g class="legendpoints"><path class="legendundefined" d="M6,6H-6V-6H6Z" transform="translate(20,0)" style="stroke-width: 0.5px; fill: rgb(217, 239, 139); fill-opacity: 1; stroke: rgb(229, 236, 246); stroke-opacity: 1;"/></g></g></g><rect class="legendtoggle" x="0" y="-9.5" width="150.66796875" height="19" style="fill: rgb(0, 0, 0); fill-opacity: 0;"/></g><g class="traces" transform="translate(0,71.5)" style="opacity: 1;"><text class="legendtext" text-anchor="start" x="40" y="4.680000000000001" style="font-family: 'Vazirmatn FD'; font-size: 12px; fill: rgb(42, 63, 95); fill-opacity: 1; white-space: pre;">چارک دوم</text><g class="layers" style="opacity: 0.9;"><g class="legendfill"/><g class="legendlines"/><g class="legendsymbols"><g class="legendpoints"><path class="legendundefined" d="M6,6H-6V-6H6Z" transform="translate(20,0)" style="stroke-width: 0.5px; fill: rgb(145, 207, 96); fill-opacity: 1; stroke: rgb(229, 236, 246); stroke-opacity: 1;"/></g></g></g><rect class="legendtoggle" x="0" y="-9.5" width="150.66796875" height="19" style="fill: rgb(0, 0, 0); fill-opacity: 0;"/></g><g class="traces" transform="translate(0,90.5)" style="opacity: 1;"><text class="legendtext" text-anchor="start" x="40" y="4.680000000000001" style="font-family: 'Vazirmatn FD'; font-size: 12px; fill: rgb(42, 63, 95); fill-opacity: 1; white-space: pre;">چارک اول</text><g class="layers" style="opacity: 0.9;"><g class="legendfill"/><g class="legendlines"/><g class="legendsymbols"><g class="legendpoints"><path class="legendundefined" d="M6,6H-6V-6H6Z" transform="translate(20,0)" style="stroke-width: 0.5px; fill: rgb(26, 152, 80); fill-opacity: 1; stroke: rgb(229, 236, 246); stroke-opacity: 1;"/></g></g></g><rect class="legendtoggle" x="0" y="-9.5" width="150.66796875" height="19" style="fill: rgb(0, 0, 0); fill-opacity: 0;"/></g><g class="traces" transform="translate(0,109.5)" style="opacity: 1;"><text class="legendtext" text-anchor="start" x="40" y="4.680000000000001" style="font-family: 'Vazirmatn FD'; font-size: 12px; fill: rgb(42, 63, 95); fill-opacity: 1; white-space: pre;">تأثیر استنادی نرمال‌شده</text><g class="layers" style="opacity: 1;"><g class="legendfill"/><g class="legendlines"><path class="js-line" d="M5,0h30" style="fill: none; stroke: rgb(0, 0, 255); stroke-opacity: 1; stroke-width: 2px;"/></g><g class="legendsymbols"><g class="legendpoints"><path class="scatterpts" transform="translate(20,0)" d="M4,0A4,4 0 1,1 0,-4A4,4 0 0,1 4,0Z" style="opacity: 1; stroke-width: 0px; fill: rgb(0, 0, 255); fill-opacity: 1;"/></g></g></g><rect class="legendtoggle" x="0" y="-9.5" width="150.66796875" height="19" style="fill: rgb(0, 0, 0); fill-opacity: 0;"/></g></g></g><rect class="scrollbar" rx="20" ry="3" width="0" height="0" style="fill: rgb(128, 139, 164); fill-opacity: 1;" x="0" y="0"/></g><g class="g-gtitle"><text class="gtitle" x="800" y="35" text-anchor="middle" dy="0em" style="opacity: 1; font-family: 'Vazirmatn FD Black'; font-size: 17px; fill: rgb(42, 63, 95); fill-opacity: 1; white-space: pre;">تغییرات تأثیر استنادی نرمال‌شده و توزیع مقالات ایران در مجلات چارک‌های ضریب تاثیری در حوزه فیزیک</text></g><g class="g-xtitle"><text class="xtitle" x="731.5" y="887.3" text-anchor="middle" style="opacity: 1; font-family: 'Vazirmatn FD'; font-size: 14px; fill: rgb(42, 63, 95); fill-opacity: 1; white-space: pre;">سال</text></g><g class="g-ytitle"><text class="ytitle" transform="rotate(-90,17.146875,456)" x="17.146875" y="456" text-anchor="middle" style="opacity: 1; font-family: 'Vazirmatn FD'; font-size: 14px; fill: rgb(42, 63, 95); fill-opacity: 1; white-space: pre;">تعداد مقالات</text></g><g class="g-y2title"><text class="y2title" transform="rotate(-90,1425.3,456)" x="1425.3" y="456" text-anchor="middle" style="opacity: 1; font-family: 'Vazirmatn FD'; font-size: 14px; fill: rgb(42, 63, 95); fill-opacity: 1; white-space: pre;">تأثیر استنادی نرمال‌شده</text></g></g></svg>