<svg class="main-svg" xmlns="http://www.w3.org/2000/svg" xmlns:xlink="http://www.w3.org/1999/xlink" width="1600" height="900" style="" viewBox="0 0 1600 900"><rect x="0" y="0" width="1600" height="900" style="fill: rgb(255, 255, 255); fill-opacity: 1;"/><defs id="defs-51af10"><g class="clips"><clipPath id="clip51af10polar-for-traces"><path d="M360,0A360,360 0,1,0 -360,-4.4087284769304716e-14A360,360 0,1,0 360,8.817456953860943e-14Z" transform="translate(360,360)"/></clipPath></g><g class="gradients"/><g class="patterns"/></defs><g class="bglayer"/><g class="layer-below"><g class="imagelayer"/><g class="shapelayer"/></g><g class="cartesianlayer"/><g class="polarlayer"><g class="polar"><g class="polarsublayer draglayer"/><g class="polarsublayer plotbg"><path d="M360,0A360,360 0,1,0 -360,-4.4087284769304716e-14A360,360 0,1,0 360,8.817456953860943e-14Z" transform="translate(774.5,460)" style="fill: rgb(229, 236, 246); fill-opacity: 1;"/></g><g class="polarsublayer backplot"><g class="maplayer"/></g><g class="polarsublayer angular-grid" style="fill: none;"><path class="angularaxisgrid" d="M774.5,460L774.5,820" style="stroke: rgb(255, 255, 255); stroke-opacity: 1; stroke-width: 1px;"/><path class="angularaxisgrid" d="M774.5,460L562.8973091747097,751.2461179749811" style="stroke: rgb(255, 255, 255); stroke-opacity: 1; stroke-width: 1px;"/><path class="angularaxisgrid" d="M774.5,460L432.11965413374475,571.2461179749811" style="stroke: rgb(255, 255, 255); stroke-opacity: 1; stroke-width: 1px;"/><path class="angularaxisgrid" d="M774.5,460L432.1196541337447,348.753882025019" style="stroke: rgb(255, 255, 255); stroke-opacity: 1; stroke-width: 1px;"/><path class="angularaxisgrid" d="M774.5,460L562.8973091747096,168.75388202501898" style="stroke: rgb(255, 255, 255); stroke-opacity: 1; stroke-width: 1px;"/><path class="angularaxisgrid" d="M774.5,460L774.4999999999999,100" style="stroke: rgb(255, 255, 255); stroke-opacity: 1; stroke-width: 1px;"/><path class="angularaxisgrid" d="M774.5,460L986.1026908252902,168.75388202501887" style="stroke: rgb(255, 255, 255); stroke-opacity: 1; stroke-width: 1px;"/><path class="angularaxisgrid" d="M774.5,460L1116.8803458662553,348.7538820250188" style="stroke: rgb(255, 255, 255); stroke-opacity: 1; stroke-width: 1px;"/><path class="angularaxisgrid" d="M774.5,460L1116.8803458662553,571.246117974981" style="stroke: rgb(255, 255, 255); stroke-opacity: 1; stroke-width: 1px;"/><path class="angularaxisgrid" d="M774.5,460L986.1026908252904,751.246117974981" style="stroke: rgb(255, 255, 255); stroke-opacity: 1; stroke-width: 1px;"/></g><g class="polarsublayer radial-grid" transform="translate(774.5,460)" style="fill: none;"><path class="xgrid" d="M44.37,0A44.37,44.37 0,1,0 -44.37,-5.433757847816806e-15A44.37,44.37 0,1,0 44.37,1.0867515695633612e-14Z" style="stroke: rgb(211, 211, 211); stroke-opacity: 1; stroke-width: 0.5px;"/><path class="xgrid" d="M88.74,0A88.74,88.74 0,1,0 -88.74,-1.0867515695633612e-14A88.74,88.74 0,1,0 88.74,2.1735031391267224e-14Z" style="stroke: rgb(211, 211, 211); stroke-opacity: 1; stroke-width: 0.5px;"/><path class="xgrid" d="M127.79,0A127.79,127.79 0,1,0 -127.79,-1.5649761446304028e-14A127.79,127.79 0,1,0 127.79,3.1299522892608055e-14Z" style="stroke: rgb(211, 211, 211); stroke-opacity: 1; stroke-width: 0.5px;"/><path class="xgrid" d="M168.61,0A168.61,168.61 0,1,0 -168.61,-2.0648769680423523e-14A168.61,168.61 0,1,0 168.61,4.1297539360847047e-14Z" style="stroke: rgb(211, 211, 211); stroke-opacity: 1; stroke-width: 0.5px;"/><path class="xgrid" d="M212.98,0A212.98,212.98 0,1,0 -212.98,-2.6082527528240328e-14A212.98,212.98 0,1,0 212.98,5.2165055056480655e-14Z" style="stroke: rgb(211, 211, 211); stroke-opacity: 1; stroke-width: 0.5px;"/><path class="xgrid" d="M266.22,0A266.22,266.22 0,1,0 -266.22,-3.260254708690084e-14A266.22,266.22 0,1,0 266.22,6.520509417380168e-14Z" style="stroke: rgb(211, 211, 211); stroke-opacity: 1; stroke-width: 0.5px;"/><path class="xgrid" d="M319.46,0A319.46,319.46 0,1,0 -319.46,-3.9122566645561343e-14A319.46,319.46 0,1,0 319.46,7.824513329112269e-14Z" style="stroke: rgb(211, 211, 211); stroke-opacity: 1; stroke-width: 0.5px;"/></g><g class="polarsublayer frontplot" transform="translate(414.5,100)"><g class="barlayer"/><g class="scatterlayer"><g class="trace scatter trace8ece2d" style="stroke-miterlimit: 2; opacity: 1;"><g class="fills" clip-path="url(#clip51af10polar-for-traces)"><g><path class="js-fill" d="M360,687.27L174.83,614.86L73.05,453.24L80.98,269.34L203.73,144.91L360,103.9L509.7,153.96L576.22,289.74L547.53,420.93L466.2,506.17L360,687.27Z" style="fill: rgb(31, 119, 180); fill-opacity: 0.5; stroke-width: 0;"/></g></g><g class="errorbars"/><g class="lines"><path class="js-line" d="M360,687.27L174.83,614.86L73.05,453.24L80.98,269.34L203.73,144.91L360,103.9L509.7,153.96L576.22,289.74L547.53,420.93L466.2,506.17L360,687.27" clip-path="url(#clip51af10polar-for-traces)" style="vector-effect: none; fill: none; stroke: rgb(31, 119, 180); stroke-opacity: 1; stroke-width: 2px; opacity: 1;"/></g><g class="points"><path class="point plotly-customdata" transform="translate(360,687.27)" d="M3,0A3,3 0 1,1 0,-3A3,3 0 0,1 3,0Z" style="opacity: 1; stroke-width: 0px; fill: rgb(31, 119, 180); fill-opacity: 1;"/><path class="point plotly-customdata" transform="translate(174.83,614.86)" d="M3,0A3,3 0 1,1 0,-3A3,3 0 0,1 3,0Z" style="opacity: 1; stroke-width: 0px; fill: rgb(31, 119, 180); fill-opacity: 1;"/><path class="point plotly-customdata" transform="translate(73.05,453.24)" d="M3,0A3,3 0 1,1 0,-3A3,3 0 0,1 3,0Z" style="opacity: 1; stroke-width: 0px; fill: rgb(31, 119, 180); fill-opacity: 1;"/><path class="point plotly-customdata" transform="translate(80.98,269.34)" d="M3,0A3,3 0 1,1 0,-3A3,3 0 0,1 3,0Z" style="opacity: 1; stroke-width: 0px; fill: rgb(31, 119, 180); fill-opacity: 1;"/><path class="point plotly-customdata" transform="translate(203.73,144.91)" d="M3,0A3,3 0 1,1 0,-3A3,3 0 0,1 3,0Z" style="opacity: 1; stroke-width: 0px; fill: rgb(31, 119, 180); fill-opacity: 1;"/><path class="point plotly-customdata" transform="translate(360,103.9)" d="M3,0A3,3 0 1,1 0,-3A3,3 0 0,1 3,0Z" style="opacity: 1; stroke-width: 0px; fill: rgb(31, 119, 180); fill-opacity: 1;"/><path class="point plotly-customdata" transform="translate(509.7,153.96)" d="M3,0A3,3 0 1,1 0,-3A3,3 0 0,1 3,0Z" style="opacity: 1; stroke-width: 0px; fill: rgb(31, 119, 180); fill-opacity: 1;"/><path class="point plotly-customdata" transform="translate(576.22,289.74)" d="M3,0A3,3 0 1,1 0,-3A3,3 0 0,1 3,0Z" style="opacity: 1; stroke-width: 0px; fill: rgb(31, 119, 180); fill-opacity: 1;"/><path class="point plotly-customdata" transform="translate(547.53,420.93)" d="M3,0A3,3 0 1,1 0,-3A3,3 0 0,1 3,0Z" style="opacity: 1; stroke-width: 0px; fill: rgb(31, 119, 180); fill-opacity: 1;"/><path class="point plotly-customdata" transform="translate(466.2,506.17)" d="M3,0A3,3 0 1,1 0,-3A3,3 0 0,1 3,0Z" style="opacity: 1; stroke-width: 0px; fill: rgb(31, 119, 180); fill-opacity: 1;"/><path class="point plotly-customdata" transform="translate(360,687.27)" d="M3,0A3,3 0 1,1 0,-3A3,3 0 0,1 3,0Z" style="opacity: 1; stroke-width: 0px; fill: rgb(31, 119, 180); fill-opacity: 1;"/></g><g class="text"><g class="textpoint"/><g class="textpoint"/><g class="textpoint"/><g class="textpoint"/><g class="textpoint"/><g class="textpoint"/><g class="textpoint"/><g class="textpoint"/><g class="textpoint"/><g class="textpoint"/><g class="textpoint"/></g></g><g class="trace scatter trace78914f" style="stroke-miterlimit: 2; opacity: 1;"><g class="fills" clip-path="url(#clip51af10polar-for-traces)"><g><path class="js-fill" d="M360,426.11L295.32,449.02L265.05,390.85L238.47,320.51L315.14,298.26L360,280.58L396.25,310.1L412.75,342.86L416.55,378.37L391.56,403.43L360,426.11Z" style="fill: rgb(255, 127, 14); fill-opacity: 0.5; stroke-width: 0;"/></g></g><g class="errorbars"/><g class="lines"><path class="js-line" d="M360,426.11L295.32,449.02L265.05,390.85L238.47,320.51L315.14,298.26L360,280.58L396.25,310.1L412.75,342.86L416.55,378.37L391.56,403.43L360,426.11" clip-path="url(#clip51af10polar-for-traces)" style="vector-effect: none; fill: none; stroke: rgb(255, 127, 14); stroke-opacity: 1; stroke-width: 2px; opacity: 1;"/></g><g class="points"><path class="point plotly-customdata" transform="translate(360,426.11)" d="M3,0A3,3 0 1,1 0,-3A3,3 0 0,1 3,0Z" style="opacity: 1; stroke-width: 0px; fill: rgb(255, 127, 14); fill-opacity: 1;"/><path class="point plotly-customdata" transform="translate(295.32,449.02)" d="M3,0A3,3 0 1,1 0,-3A3,3 0 0,1 3,0Z" style="opacity: 1; stroke-width: 0px; fill: rgb(255, 127, 14); fill-opacity: 1;"/><path class="point plotly-customdata" transform="translate(265.05,390.85)" d="M3,0A3,3 0 1,1 0,-3A3,3 0 0,1 3,0Z" style="opacity: 1; stroke-width: 0px; fill: rgb(255, 127, 14); fill-opacity: 1;"/><path class="point plotly-customdata" transform="translate(238.47,320.51)" d="M3,0A3,3 0 1,1 0,-3A3,3 0 0,1 3,0Z" style="opacity: 1; stroke-width: 0px; fill: rgb(255, 127, 14); fill-opacity: 1;"/><path class="point plotly-customdata" transform="translate(315.14,298.26)" d="M3,0A3,3 0 1,1 0,-3A3,3 0 0,1 3,0Z" style="opacity: 1; stroke-width: 0px; fill: rgb(255, 127, 14); fill-opacity: 1;"/><path class="point plotly-customdata" transform="translate(360,280.58)" d="M3,0A3,3 0 1,1 0,-3A3,3 0 0,1 3,0Z" style="opacity: 1; stroke-width: 0px; fill: rgb(255, 127, 14); fill-opacity: 1;"/><path class="point plotly-customdata" transform="translate(396.25,310.1)" d="M3,0A3,3 0 1,1 0,-3A3,3 0 0,1 3,0Z" style="opacity: 1; stroke-width: 0px; fill: rgb(255, 127, 14); fill-opacity: 1;"/><path class="point plotly-customdata" transform="translate(412.75,342.86)" d="M3,0A3,3 0 1,1 0,-3A3,3 0 0,1 3,0Z" style="opacity: 1; stroke-width: 0px; fill: rgb(255, 127, 14); fill-opacity: 1;"/><path class="point plotly-customdata" transform="translate(416.55,378.37)" d="M3,0A3,3 0 1,1 0,-3A3,3 0 0,1 3,0Z" style="opacity: 1; stroke-width: 0px; fill: rgb(255, 127, 14); fill-opacity: 1;"/><path class="point plotly-customdata" transform="translate(391.56,403.43)" d="M3,0A3,3 0 1,1 0,-3A3,3 0 0,1 3,0Z" style="opacity: 1; stroke-width: 0px; fill: rgb(255, 127, 14); fill-opacity: 1;"/><path class="point plotly-customdata" transform="translate(360,426.11)" d="M3,0A3,3 0 1,1 0,-3A3,3 0 0,1 3,0Z" style="opacity: 1; stroke-width: 0px; fill: rgb(255, 127, 14); fill-opacity: 1;"/></g><g class="text"/></g></g></g><g class="polarsublayer angular-line"><path d="M360,0A360,360 0,1,0 -360,-4.4087284769304716e-14A360,360 0,1,0 360,8.817456953860943e-14Z" transform="translate(774.5,460)" stroke-width="1" style="fill: none; stroke: rgb(255, 255, 255); stroke-opacity: 1;"/></g><g class="polarsublayer radial-line"><line x1="0" y1="0" x2="360" y2="0" transform="translate(774.5,460)" stroke-width="1" style="fill: none; stroke: rgb(255, 255, 255); stroke-opacity: 1;"/></g><g class="polarsublayer angular-axis"><g class="angularaxistick"><text text-anchor="middle" x="1.5308084989341916e-16" y="12.5" transform="translate(774.5,820)" style="font-family: 'Vazirmatn FD'; font-size: 10px; fill: rgb(42, 63, 95); fill-opacity: 1; white-space: pre;">عربستان</text></g><g class="angularaxistick"><text text-anchor="end" x="-1.4694631307311825" y="12.169960812710498" transform="translate(562.8973091747097,751.2461179749811)" style="font-family: 'Vazirmatn FD'; font-size: 10px; fill: rgb(42, 63, 95); fill-opacity: 1; white-space: pre;">آفریقای جنوبی</text></g><g class="angularaxistick"><text text-anchor="end" x="-2.3776412907378837" y="7.191410236719881" transform="translate(432.11965413374475,571.2461179749811)" style="font-family: 'Vazirmatn FD'; font-size: 10px; fill: rgb(42, 63, 95); fill-opacity: 1; white-space: pre;">بریتانیا</text></g><g class="angularaxistick"><text text-anchor="end" x="-2.377641290737884" y="1.9381213323457749" transform="translate(432.1196541337447,348.753882025019)" style="font-family: 'Vazirmatn FD'; font-size: 10px; fill: rgb(42, 63, 95); fill-opacity: 1; white-space: pre;">اسرائیل</text></g><g class="angularaxistick"><text text-anchor="end" x="-1.4694631307311832" y="-1.5833280916636068" transform="translate(562.8973091747096,168.75388202501898)" style="font-family: 'Vazirmatn FD'; font-size: 10px; fill: rgb(42, 63, 95); fill-opacity: 1; white-space: pre;">آلمان</text></g><g class="angularaxistick"><text text-anchor="middle" x="-4.592425496802574e-16" y="-4.499999999999999" transform="translate(774.4999999999999,100)" style="font-family: 'Vazirmatn FD'; font-size: 10px; fill: rgb(42, 63, 95); fill-opacity: 1; white-space: pre;">آمریکا</text></g><g class="angularaxistick"><text text-anchor="start" x="1.4694631307311823" y="-1.583328091663609" transform="translate(986.1026908252902,168.75388202501887)" style="font-family: 'Vazirmatn FD'; font-size: 10px; fill: rgb(42, 63, 95); fill-opacity: 1; white-space: pre;">امارات</text></g><g class="angularaxistick"><text text-anchor="start" x="2.3776412907378837" y="1.9381213323457729" transform="translate(1116.8803458662553,348.7538820250188)" style="font-family: 'Vazirmatn FD'; font-size: 10px; fill: rgb(42, 63, 95); fill-opacity: 1; white-space: pre;">ترکیه</text></g><g class="angularaxistick"><text text-anchor="start" x="2.377641290737884" y="7.191410236719877" transform="translate(1116.8803458662553,571.246117974981)" style="font-family: 'Vazirmatn FD'; font-size: 10px; fill: rgb(42, 63, 95); fill-opacity: 1; white-space: pre;">کره جنوبی</text></g><g class="angularaxistick"><text text-anchor="start" x="1.4694631307311834" y="12.169960812710498" transform="translate(986.1026908252904,751.246117974981)" style="font-family: 'Vazirmatn FD'; font-size: 10px; fill: rgb(42, 63, 95); fill-opacity: 1; white-space: pre;">چین</text></g></g><g class="polarsublayer radial-axis" transform="translate(774.5,460)"><g class="xtick"><text text-anchor="middle" x="0" y="14.9" transform="" style="font-family: 'Vazirmatn FD'; font-size: 12px; fill: rgb(42, 63, 95); fill-opacity: 1; white-space: pre;"><tspan style=" fill:#c65102">0</tspan></text></g><g class="xtick"><text text-anchor="middle" x="0" y="14.9" transform="translate(44.37,0)" style="font-family: 'Vazirmatn FD'; font-size: 12px; fill: rgb(42, 63, 95); fill-opacity: 1; white-space: pre;"><tspan style=" fill:#c65102">1</tspan></text></g><g class="xtick"><text text-anchor="middle" x="0" y="14.9" transform="translate(88.74,0)" style="font-family: 'Vazirmatn FD'; font-size: 12px; fill: rgb(42, 63, 95); fill-opacity: 1; white-space: pre;"><tspan style=" fill:#c65102">2</tspan></text></g><g class="xtick"><text text-anchor="middle" x="0" y="14.9" transform="translate(127.79,0)" style="font-family: 'Vazirmatn FD'; font-size: 12px; fill: rgb(42, 63, 95); fill-opacity: 1; white-space: pre;"><tspan style=" fill:#c65102">2.88</tspan></text></g><g class="xtick"><text text-anchor="middle" x="0" y="14.9" transform="translate(168.61,0)" style="font-family: 'Vazirmatn FD'; font-size: 12px; fill: rgb(42, 63, 95); fill-opacity: 1; white-space: pre;"><tspan style=" fill:#000080">9.5</tspan></text></g><g class="xtick"><text text-anchor="middle" x="0" y="14.9" transform="translate(212.98,0)" style="font-family: 'Vazirmatn FD'; font-size: 12px; fill: rgb(42, 63, 95); fill-opacity: 1; white-space: pre;"><tspan style=" fill:#000080">12</tspan></text></g><g class="xtick"><text text-anchor="middle" x="0" y="14.9" transform="translate(266.22,0)" style="font-family: 'Vazirmatn FD'; font-size: 12px; fill: rgb(42, 63, 95); fill-opacity: 1; white-space: pre;"><tspan style=" fill:#000080">15</tspan></text></g><g class="xtick"><text text-anchor="middle" x="0" y="14.9" transform="translate(319.46,0)" style="font-family: 'Vazirmatn FD'; font-size: 12px; fill: rgb(42, 63, 95); fill-opacity: 1; white-space: pre;"><tspan style=" fill:#000080">18</tspan></text></g></g></g></g><g class="smithlayer"/><g class="ternarylayer"/><g class="geolayer"/><g class="funnelarealayer"/><g class="pielayer"/><g class="iciclelayer"/><g class="treemaplayer"/><g class="sunburstlayer"/><g class="glimages"/><defs id="topdefs-51af10"><g class="clips"/><clipPath id="legend51af10"><rect width="91" height="67" x="0" y="0"/></clipPath></defs><g class="layer-above"><g class="imagelayer"/><g class="shapelayer"/></g><g class="infolayer"><g class="legend" pointer-events="all" transform="translate(1496.78,100)"><rect class="bg" shape-rendering="crispEdges" style="stroke: rgb(68, 68, 68); stroke-opacity: 1; fill: rgb(255, 255, 255); fill-opacity: 1; stroke-width: 0px;" width="91" height="67" x="0" y="0"/><g class="scrollbox" transform="" clip-path="url(#legend51af10)"><text class="legendtitletext" text-anchor="start" x="2" y="18.2" style="font-family: 'Vazirmatn FD'; font-size: 14px; fill: rgb(42, 63, 95); fill-opacity: 1; white-space: pre;">چندک</text><g class="groups"><g class="traces" transform="translate(0,32.7)" style="opacity: 1;"><text class="legendtext" text-anchor="start" x="40" y="4.680000000000001" style="font-family: 'Vazirmatn FD'; font-size: 12px; fill: rgb(42, 63, 95); fill-opacity: 1; white-space: pre;">دهک اول</text><g class="layers" style="opacity: 1;"><g class="legendfill"><path class="js-fill" d="M5,0h30v6h-30z" style="stroke-width: 0; fill: rgb(31, 119, 180); fill-opacity: 0.5;"/></g><g class="legendlines"><path class="js-line" d="M5,0h30" style="fill: none; stroke: rgb(31, 119, 180); stroke-opacity: 1; stroke-width: 2px;"/></g><g class="legendsymbols"><g class="legendpoints"><path class="scatterpts" transform="translate(20,0)" d="M3,0A3,3 0 1,1 0,-3A3,3 0 0,1 3,0Z" style="opacity: 1; stroke-width: 0px; fill: rgb(31, 119, 180); fill-opacity: 1;"/></g></g></g><rect class="legendtoggle" x="0" y="-9.5" width="85.8125" height="19" style="fill: rgb(0, 0, 0); fill-opacity: 0;"/></g><g class="traces" transform="translate(0,51.7)" style="opacity: 1;"><text class="legendtext" text-anchor="start" x="40" y="4.680000000000001" style="font-family: 'Vazirmatn FD'; font-size: 12px; fill: rgb(42, 63, 95); fill-opacity: 1; white-space: pre;">صدک اول</text><g class="layers" style="opacity: 1;"><g class="legendfill"><path class="js-fill" d="M5,0h30v6h-30z" style="stroke-width: 0; fill: rgb(255, 127, 14); fill-opacity: 0.5;"/></g><g class="legendlines"><path class="js-line" d="M5,0h30" style="fill: none; stroke: rgb(255, 127, 14); stroke-opacity: 1; stroke-width: 2px;"/></g><g class="legendsymbols"><g class="legendpoints"><path class="scatterpts" transform="translate(20,0)" d="M3,0A3,3 0 1,1 0,-3A3,3 0 0,1 3,0Z" style="opacity: 1; stroke-width: 0px; fill: rgb(255, 127, 14); fill-opacity: 1;"/></g></g></g><rect class="legendtoggle" x="0" y="-9.5" width="85.8125" height="19" style="fill: rgb(0, 0, 0); fill-opacity: 0;"/></g></g></g><rect class="scrollbar" rx="20" ry="3" width="0" height="0" style="fill: rgb(128, 139, 164); fill-opacity: 1;" x="0" y="0"/></g><g class="g-gtitle"><text class="gtitle" x="800" y="50" text-anchor="middle" dy="0em" style="opacity: 1; font-family: 'Vazirmatn FD Black'; font-size: 17px; fill: rgb(42, 63, 95); fill-opacity: 1; white-space: pre;">سهم مقالات دهک و صدک اول استنادی از کل مقالات حوزه فیزیک کشورهای منتخب</text></g><g class="g-polartitle"/></g></svg>